SplineFontDB: 3.2
FontName: VJDYOfficialAppLogo-Regular
FullName: VJDY Official App Logo Regular
FamilyName: VJDY Official App Logo
Weight: Regular
Copyright: Copyright 2015 The Roboto Mono Project Authors (https://github.com/googlefonts/robotomono)\n\nCopyright 2025 VJDY Official Pictures.
Version: 3.000
ItalicAngle: 0
UnderlinePosition: -200
UnderlineWidth: 100
Ascent: 1638
Descent: 410
InvalidEm: 0
sfntRevision: 0x00030000
LayerCount: 2
Layer: 0 1 "Back" 1
Layer: 1 1 "Fore" 0
XUID: [1021 474 -1613799265 3062]
StyleMap: 0x0040
FSType: 0
OS2Version: 4
OS2_WeightWidthSlopeOnly: 0
OS2_UseTypoMetrics: 0
CreationTime: 1221222574
ModificationTime: 1748510359
PfmFamily: 81
TTFWeight: 400
TTFWidth: 5
LineGap: 0
VLineGap: 0
Panose: 0 0 0 9 0 0 0 0 0 0
OS2TypoAscent: 2146
OS2TypoAOffset: 0
OS2TypoDescent: -555
OS2TypoDOffset: 0
OS2TypoLinegap: 0
OS2WinAscent: 2146
OS2WinAOffset: 0
OS2WinDescent: 555
OS2WinDOffset: 0
HheadAscent: 2146
HheadAOffset: 0
HheadDescent: -555
HheadDOffset: 0
OS2SubXSize: 1434
OS2SubYSize: 1331
OS2SubXOff: 0
OS2SubYOff: 287
OS2SupXSize: 1434
OS2SupYSize: 1331
OS2SupXOff: 0
OS2SupYOff: 977
OS2StrikeYSize: 102
OS2StrikeYPos: 512
OS2CapHeight: 1456
OS2XHeight: 1082
OS2Vendor: 'GOOG'
OS2CodePages: 2000019f.4f010000
OS2UnicodeRanges: e00002ff.1000205b.00000020.00000000
Lookup: 1 0 0 "'smcp' Lowercase to Small Capitals lookup 0" { "'smcp' Lowercase to Small Capitals lookup 0 subtable"  } ['smcp' ('DFLT' <'dflt' > 'cyrl' <'dflt' > 'grek' <'dflt' > 'latn' <'dflt' > ) ]
MarkAttachClasses: 1
DEI: 91125
TtTable: prep
PUSHW_1
 511
SCANCTRL
PUSHB_1
 4
SCANTYPE
EndTTInstrs
ShortTable: maxp 16
  1
  0
  1000
  177
  22
  135
  5
  1
  0
  0
  0
  0
  0
  0
  3
  1
EndShort
LangName: 1033 "" "" "" "" "" "Version 3.000" "" "Roboto Mono is a trademark of Google." "" "Google" "" "Google.com" "Christian Robertson" "Licensed under the Apache License, Version 2.0" "http://www.apache.org/licenses/LICENSE-2.0"
GaspTable: 1 65535 15 1
Encoding: UnicodeBmp

StartChar: exclam
Encoding: 33 33 4
Width: 1229
GlyphClass: 1
Flags: W
LayerCount: 2
Fore
SplineSet
690 471 m 1,0,-1
 690 1456 l 1,1,-1
 504 1456 l 1,2,-1
 504 471 l 1,3,-1
 690 471 l 1,0,-1
486 97 m 0,4,5
 486 51 486 51 514.5 20 c 128,-1,6
 543 -11 543 -11 600 -11 c 256,7,8
 657 -11 657 -11 686.5 20 c 128,-1,9
 716 51 716 51 716 97 c 0,10,11
 716 145 716 145 686.5 177 c 128,-1,12
 657 209 657 209 600 209 c 256,13,14
 543 209 543 209 514.5 177 c 128,-1,15
 486 145 486 145 486 97 c 0,4,5
EndSplineSet
EndChar

StartChar: quotedbl
Encoding: 34 34 5
Width: 1229
GlyphClass: 1
Flags: W
LayerCount: 2
Fore
SplineSet
505 1427 m 1,0,-1
 505 1536 l 1,1,-1
 355 1536 l 1,2,-1
 355 1411 l 1,3,-1
 354 1057 l 1,4,-1
 484 1057 l 1,5,-1
 505 1427 l 1,0,-1
862 1427 m 1,6,-1
 863 1536 l 1,7,-1
 713 1536 l 1,8,-1
 713 1411 l 1,9,-1
 712 1057 l 1,10,-1
 841 1057 l 1,11,-1
 862 1427 l 1,6,-1
EndSplineSet
EndChar

StartChar: numbersign
Encoding: 35 35 6
Width: 1229
GlyphClass: 1
Flags: W
LayerCount: 2
Fore
SplineSet
707 410 m 1,0,-1
 627 0 l 1,1,-1
 770 0 l 1,2,-1
 850 410 l 1,3,-1
 1102 410 l 1,4,-1
 1102 547 l 1,5,-1
 876 547 l 1,6,-1
 945 901 l 1,7,-1
 1177 901 l 1,8,-1
 1177 1040 l 1,9,-1
 972 1040 l 1,10,-1
 1054 1456 l 1,11,-1
 911 1456 l 1,12,-1
 829 1040 l 1,13,-1
 565 1040 l 1,14,-1
 647 1456 l 1,15,-1
 504 1456 l 1,16,-1
 422 1040 l 1,17,-1
 137 1040 l 1,18,-1
 137 901 l 1,19,-1
 395 901 l 1,20,-1
 326 547 l 1,21,-1
 61 547 l 1,22,-1
 61 410 l 1,23,-1
 300 410 l 1,24,-1
 220 0 l 1,25,-1
 363 0 l 1,26,-1
 443 410 l 1,27,-1
 707 410 l 1,0,-1
469 547 m 1,28,-1
 538 901 l 1,29,-1
 802 901 l 1,30,-1
 733 547 l 1,31,-1
 469 547 l 1,28,-1
EndSplineSet
EndChar

StartChar: dollar
Encoding: 36 36 7
Width: 1229
GlyphClass: 1
Flags: W
LayerCount: 2
Fore
SplineSet
907 375 m 0,0,1
 907 320 907 320 887.5 276.5 c 128,-1,2
 868 233 868 233 832 203 c 0,3,4
 796 172 796 172 744 156 c 128,-1,5
 692 140 692 140 627 140 c 0,6,7
 576 140 576 140 526 154 c 128,-1,8
 476 168 476 168 437 201 c 0,9,10
 397 234 397 234 372 289.5 c 128,-1,11
 347 345 347 345 347 429 c 1,12,-1
 162 429 l 1,13,14
 162 316 162 316 195 235 c 128,-1,15
 228 154 228 154 283 101 c 0,16,17
 338 47 338 47 409.5 19 c 128,-1,18
 481 -9 481 -9 559 -17 c 1,19,-1
 559 -208 l 1,20,-1
 708 -208 l 1,21,-1
 708 -16 l 1,22,23
 795 -7 795 -7 866.5 23 c 128,-1,24
 938 53 938 53 988 103 c 0,25,26
 1038 152 1038 152 1065.5 221 c 128,-1,27
 1093 290 1093 290 1093 377 c 0,28,29
 1093 466 1093 466 1065.5 533 c 128,-1,30
 1038 600 1038 600 986 651 c 256,31,32
 934 702 934 702 859 740 c 128,-1,33
 784 778 784 778 690 809 c 0,34,35
 613 835 613 835 558.5 862.5 c 128,-1,36
 504 890 504 890 470 922 c 0,37,38
 435 954 435 954 419 993 c 128,-1,39
 403 1032 403 1032 403 1082 c 0,40,41
 403 1133 403 1133 417.5 1174.5 c 128,-1,42
 432 1216 432 1216 460 1246 c 0,43,44
 490 1279 490 1279 537.5 1297 c 128,-1,45
 585 1315 585 1315 649 1315 c 0,46,47
 708 1315 708 1315 754 1292 c 128,-1,48
 800 1269 800 1269 832 1229 c 0,49,50
 863 1188 863 1188 879.5 1131.5 c 128,-1,51
 896 1075 896 1075 896 1008 c 1,52,-1
 1080 1008 l 1,53,54
 1079 1123 1079 1123 1049 1211.5 c 128,-1,55
 1019 1300 1019 1300 962 1360 c 0,56,57
 918 1405 918 1405 858 1433.5 c 128,-1,58
 798 1462 798 1462 725 1472 c 1,59,-1
 725 1692 l 1,60,-1
 576 1692 l 1,61,-1
 576 1472 l 1,62,63
 495 1462 495 1462 428.5 1431 c 128,-1,64
 362 1400 362 1400 316 1350 c 0,65,66
 269 1299 269 1299 243.5 1231 c 128,-1,67
 218 1163 218 1163 218 1079 c 0,68,69
 218 990 218 990 247 922 c 128,-1,70
 276 854 276 854 330 802 c 0,71,72
 383 749 383 749 458 711 c 128,-1,73
 533 673 533 673 626 644 c 0,74,75
 700 620 700 620 754 591.5 c 128,-1,76
 808 563 808 563 842 530 c 256,77,78
 876 497 876 497 891.5 458.5 c 128,-1,79
 907 420 907 420 907 375 c 0,0,1
EndSplineSet
EndChar

StartChar: percent
Encoding: 37 37 8
Width: 1229
GlyphClass: 1
Flags: W
LayerCount: 2
Fore
SplineSet
44 1194 m 2,0,-1
 44 1117 l 2,1,2
 44 1060 44 1060 61.5 1009 c 128,-1,3
 79 958 79 958 113 920 c 0,4,5
 147 881 147 881 197.5 858.5 c 128,-1,6
 248 836 248 836 313 836 c 256,7,8
 378 836 378 836 428 858.5 c 128,-1,9
 478 881 478 881 512 920 c 0,10,11
 545 958 545 958 562.5 1009 c 128,-1,12
 580 1060 580 1060 580 1117 c 2,13,-1
 580 1194 l 2,14,15
 580 1251 580 1251 562.5 1302.5 c 128,-1,16
 545 1354 545 1354 512 1393 c 0,17,18
 478 1432 478 1432 427.5 1454.5 c 128,-1,19
 377 1477 377 1477 311 1477 c 0,20,21
 246 1477 246 1477 196 1454.5 c 128,-1,22
 146 1432 146 1432 113 1393 c 0,23,24
 79 1354 79 1354 61.5 1302.5 c 128,-1,25
 44 1251 44 1251 44 1194 c 2,0,-1
182 1117 m 2,26,-1
 182 1194 l 2,27,28
 182 1225 182 1225 189 1254.5 c 128,-1,29
 196 1284 196 1284 212 1307 c 0,30,31
 227 1329 227 1329 251.5 1342.5 c 128,-1,32
 276 1356 276 1356 311 1356 c 0,33,34
 347 1356 347 1356 371.5 1342.5 c 128,-1,35
 396 1329 396 1329 412 1307 c 0,36,37
 427 1284 427 1284 434.5 1254.5 c 128,-1,38
 442 1225 442 1225 442 1194 c 2,39,-1
 442 1117 l 2,40,41
 442 1086 442 1086 434.5 1057.5 c 128,-1,42
 427 1029 427 1029 412 1007 c 0,43,44
 397 984 397 984 372.5 970.5 c 128,-1,45
 348 957 348 957 313 957 c 0,46,47
 277 957 277 957 252.5 970.5 c 128,-1,48
 228 984 228 984 212 1007 c 0,49,50
 196 1029 196 1029 189 1057.5 c 128,-1,51
 182 1086 182 1086 182 1117 c 2,26,-1
645 338 m 2,52,-1
 645 260 l 2,53,54
 645 203 645 203 662.5 152 c 128,-1,55
 680 101 680 101 714 63 c 0,56,57
 748 24 748 24 798.5 1.5 c 128,-1,58
 849 -21 849 -21 915 -21 c 0,59,60
 980 -21 980 -21 1029.5 1.5 c 128,-1,61
 1079 24 1079 24 1113 63 c 0,62,63
 1147 101 1147 101 1164.5 152 c 128,-1,64
 1182 203 1182 203 1182 260 c 2,65,-1
 1182 338 l 2,66,67
 1182 395 1182 395 1164.5 446 c 128,-1,68
 1147 497 1147 497 1113 536 c 256,69,70
 1079 575 1079 575 1029 597.5 c 128,-1,71
 979 620 979 620 913 620 c 0,72,73
 848 620 848 620 798 597.5 c 128,-1,74
 748 575 748 575 714 536 c 256,75,76
 680 497 680 497 662.5 446 c 128,-1,77
 645 395 645 395 645 338 c 2,52,-1
783 260 m 2,78,-1
 783 338 l 2,79,80
 783 369 783 369 790 398 c 128,-1,81
 797 427 797 427 813 450 c 0,82,83
 828 472 828 472 852.5 485.5 c 128,-1,84
 877 499 877 499 913 499 c 0,85,86
 948 499 948 499 973 485.5 c 128,-1,87
 998 472 998 472 1014 450 c 0,88,89
 1029 427 1029 427 1036 398 c 128,-1,90
 1043 369 1043 369 1043 338 c 2,91,-1
 1043 260 l 2,92,93
 1043 229 1043 229 1036 200 c 128,-1,94
 1029 171 1029 171 1014 149 c 0,95,96
 999 126 999 126 974.5 112.5 c 128,-1,97
 950 99 950 99 915 99 c 0,98,99
 879 99 879 99 854 112.5 c 128,-1,100
 829 126 829 126 814 149 c 0,101,102
 798 171 798 171 790.5 200 c 128,-1,103
 783 229 783 229 783 260 c 2,78,-1
398 188 m 1,104,-1
 965 1225 l 1,105,-1
 854 1287 l 1,106,-1
 287 250 l 1,107,-1
 398 188 l 1,104,-1
EndSplineSet
EndChar

StartChar: ampersand
Encoding: 38 38 9
Width: 1229
GlyphClass: 1
Flags: W
LayerCount: 2
Fore
SplineSet
107 373 m 0,0,1
 107 287 107 287 137.5 214.5 c 128,-1,2
 168 142 168 142 224 90 c 256,3,4
 280 38 280 38 360 9 c 128,-1,5
 440 -20 440 -20 539 -20 c 0,6,7
 600 -20 600 -20 657.5 -7 c 128,-1,8
 715 6 715 6 768 31 c 0,9,10
 800 46 800 46 830.5 66 c 128,-1,11
 861 86 861 86 889 110 c 1,12,-1
 972 0 l 1,13,-1
 1193 0 l 1,14,-1
 1012 237 l 1,15,16
 1082 325 1082 325 1118.5 434.5 c 128,-1,17
 1155 544 1155 544 1155 672 c 1,18,-1
 988 672 l 1,19,20
 987 584 987 584 967 508 c 128,-1,21
 947 432 947 432 912 368 c 1,22,-1
 605 771 l 1,23,-1
 699 851 l 2,24,25
 743 884 743 884 781 918 c 128,-1,26
 819 952 819 952 847 990 c 0,27,28
 874 1028 874 1028 889.5 1071.5 c 128,-1,29
 905 1115 905 1115 905 1168 c 0,30,31
 905 1230 905 1230 883 1286 c 128,-1,32
 861 1342 861 1342 821 1385 c 0,33,34
 780 1427 780 1427 722 1452 c 128,-1,35
 664 1477 664 1477 593 1477 c 0,36,37
 511 1477 511 1477 445 1454 c 128,-1,38
 379 1431 379 1431 332 1387 c 0,39,40
 285 1342 285 1342 259.5 1276.5 c 128,-1,41
 234 1211 234 1211 234 1126 c 0,42,43
 234 1086 234 1086 242.5 1048 c 128,-1,44
 251 1010 251 1010 266 973 c 0,45,46
 285 928 285 928 314 881.5 c 128,-1,47
 343 835 343 835 380 785 c 1,48,-1
 344 759 l 2,49,50
 295 722 295 722 254.5 684 c 128,-1,51
 214 646 214 646 183 604 c 0,52,53
 147 554 147 554 127 497 c 128,-1,54
 107 440 107 440 107 373 c 0,0,1
539 130 m 0,55,56
 478 130 478 130 432 149 c 128,-1,57
 386 168 386 168 355 201 c 256,58,59
 324 234 324 234 308 278 c 128,-1,60
 292 322 292 322 292 373 c 0,61,62
 292 392 292 392 297.5 420.5 c 128,-1,63
 303 449 303 449 320 484 c 0,64,65
 336 518 336 518 367 557 c 128,-1,66
 398 596 398 596 448 637 c 2,67,-1
 476 661 l 1,68,-1
 799 230 l 1,69,70
 775 210 775 210 749.5 193.5 c 128,-1,71
 724 177 724 177 697 165 c 0,72,73
 660 148 660 148 620 139 c 128,-1,74
 580 130 580 130 539 130 c 0,55,56
420 1128 m 0,75,76
 420 1168 420 1168 431 1203.5 c 128,-1,77
 442 1239 442 1239 464 1266 c 0,78,79
 485 1293 485 1293 517.5 1309 c 128,-1,80
 550 1325 550 1325 593 1325 c 0,81,82
 626 1325 626 1325 652 1311.5 c 128,-1,83
 678 1298 678 1298 697 1277 c 0,84,85
 715 1255 715 1255 724.5 1226.5 c 128,-1,86
 734 1198 734 1198 734 1168 c 0,87,88
 734 1145 734 1145 729.5 1121 c 128,-1,89
 725 1097 725 1097 714 1074 c 0,90,91
 703 1050 703 1050 683 1027 c 128,-1,92
 663 1004 663 1004 632 983 c 2,93,-1
 515 890 l 1,94,95
 490 926 490 926 471 960 c 128,-1,96
 452 994 452 994 440 1027 c 0,97,98
 430 1052 430 1052 425 1077.5 c 128,-1,99
 420 1103 420 1103 420 1128 c 0,75,76
EndSplineSet
EndChar

StartChar: quotesingle
Encoding: 39 39 10
Width: 1229
GlyphClass: 1
Flags: W
LayerCount: 2
Fore
SplineSet
653 1425 m 1,0,-1
 653 1536 l 1,1,-1
 495 1536 l 1,2,-1
 495 1409 l 1,3,-1
 494 1057 l 1,4,-1
 632 1057 l 1,5,-1
 653 1425 l 1,0,-1
EndSplineSet
EndChar

StartChar: parenleft
Encoding: 40 40 11
Width: 1229
GlyphClass: 1
Flags: W
LayerCount: 2
Fore
SplineSet
357 591 m 2,0,-1
 357 581 l 2,1,2
 357 438 357 438 379.5 312 c 128,-1,3
 402 186 402 186 440 79 c 0,4,5
 477 -29 477 -29 526.5 -117.5 c 128,-1,6
 576 -206 576 -206 631 -275 c 0,7,8
 685 -345 685 -345 740.5 -393.5 c 128,-1,9
 796 -442 796 -442 846 -470 c 1,10,-1
 885 -357 l 1,11,12
 844 -324 844 -324 803.5 -277.5 c 128,-1,13
 763 -231 763 -231 725 -171 c 0,14,15
 688 -108 688 -108 654 -28.5 c 128,-1,16
 620 51 620 51 594 144 c 0,17,18
 570 236 570 236 556 345 c 128,-1,19
 542 454 542 454 542 579 c 2,20,-1
 542 593 l 2,21,22
 542 723 542 723 557 836 c 128,-1,23
 572 949 572 949 599 1043 c 0,24,25
 627 1147 627 1147 669 1234.5 c 128,-1,26
 711 1322 711 1322 757 1387 c 0,27,28
 788 1429 788 1429 820.5 1463 c 128,-1,29
 853 1497 853 1497 885 1521 c 1,30,-1
 846 1643 l 1,31,32
 796 1615 796 1615 741 1566 c 128,-1,33
 686 1517 686 1517 632 1448 c 0,34,35
 577 1379 577 1379 527.5 1290 c 128,-1,36
 478 1201 478 1201 440 1094 c 0,37,38
 402 986 402 986 379.5 860 c 128,-1,39
 357 734 357 734 357 591 c 2,0,-1
EndSplineSet
EndChar

StartChar: parenright
Encoding: 41 41 12
Width: 1229
GlyphClass: 1
Flags: W
LayerCount: 2
Fore
SplineSet
849 581 m 2,0,-1
 849 591 l 2,1,2
 849 744 849 744 825.5 866.5 c 128,-1,3
 802 989 802 989 766 1094 c 0,4,5
 729 1203 729 1203 680 1290 c 128,-1,6
 631 1377 631 1377 575 1448 c 0,7,8
 521 1517 521 1517 465 1566 c 128,-1,9
 409 1615 409 1615 359 1643 c 1,10,-1
 320 1530 l 1,11,12
 353 1503 353 1503 388 1464.5 c 128,-1,13
 423 1426 423 1426 456 1375 c 0,14,15
 499 1310 499 1310 540 1222.5 c 128,-1,16
 581 1135 581 1135 610 1025 c 0,17,18
 630 948 630 948 646.5 838 c 128,-1,19
 663 728 663 728 663 593 c 2,20,-1
 663 579 l 2,21,22
 663 460 663 460 650.5 355.5 c 128,-1,23
 638 251 638 251 615 161 c 0,24,25
 593 64 593 64 558.5 -17.5 c 128,-1,26
 524 -99 524 -99 487 -164 c 0,27,28
 448 -228 448 -228 405 -277 c 128,-1,29
 362 -326 362 -326 320 -357 c 1,30,-1
 359 -470 l 1,31,32
 409 -442 409 -442 464.5 -393.5 c 128,-1,33
 520 -345 520 -345 575 -275 c 0,34,35
 629 -206 629 -206 678.5 -117.5 c 128,-1,36
 728 -29 728 -29 766 79 c 0,37,38
 804 186 804 186 826.5 312 c 128,-1,39
 849 438 849 438 849 581 c 2,0,-1
EndSplineSet
EndChar

StartChar: asterisk
Encoding: 42 42 13
Width: 1229
GlyphClass: 1
Flags: W
LayerCount: 2
Fore
SplineSet
537 915 m 1,0,-1
 276 588 l 1,1,-1
 422 482 l 1,2,-1
 634 836 l 1,3,-1
 848 473 l 1,4,-1
 994 583 l 1,5,-1
 738 907 l 1,6,-1
 1120 1001 l 1,7,-1
 1066 1179 l 1,8,-1
 703 1029 l 1,9,-1
 732 1456 l 1,10,-1
 554 1456 l 1,11,-1
 579 1035 l 1,12,-1
 214 1186 l 1,13,-1
 160 1011 l 1,14,-1
 537 915 l 1,0,-1
EndSplineSet
EndChar

StartChar: plus
Encoding: 43 43 14
Width: 1229
GlyphClass: 1
Flags: W
LayerCount: 2
Fore
SplineSet
710 781 m 1,0,-1
 710 1206 l 1,1,-1
 525 1206 l 1,2,-1
 525 781 l 1,3,-1
 119 781 l 1,4,-1
 119 597 l 1,5,-1
 525 597 l 1,6,-1
 525 146 l 1,7,-1
 710 146 l 1,8,-1
 710 597 l 1,9,-1
 1117 597 l 1,10,-1
 1117 781 l 1,11,-1
 710 781 l 1,0,-1
EndSplineSet
EndChar

StartChar: comma
Encoding: 44 44 15
Width: 1229
GlyphClass: 1
Flags: W
LayerCount: 2
Fore
SplineSet
643 43 m 2,0,-1
 643 219 l 1,1,-1
 442 219 l 1,2,-1
 442 40 l 2,3,4
 442 -45 442 -45 422 -124 c 128,-1,5
 402 -203 402 -203 354 -273 c 1,6,-1
 469 -336 l 1,7,8
 549 -265 549 -265 596 -161 c 128,-1,9
 643 -57 643 -57 643 43 c 2,0,-1
EndSplineSet
EndChar

StartChar: hyphen
Encoding: 45 45 16
Width: 1229
GlyphClass: 1
Flags: W
LayerCount: 2
Fore
SplineSet
983 561 m 1,0,-1
 983 713 l 1,1,-1
 218 713 l 1,2,-1
 218 561 l 1,3,-1
 983 561 l 1,0,-1
EndSplineSet
EndChar

StartChar: period
Encoding: 46 46 17
Width: 1229
GlyphClass: 1
Flags: W
LayerCount: 2
Fore
SplineSet
496 120 m 0,0,1
 496 62 496 62 532.5 21.5 c 128,-1,2
 569 -19 569 -19 641 -19 c 0,3,4
 712 -19 712 -19 750 21 c 128,-1,5
 788 61 788 61 788 120 c 0,6,7
 788 180 788 180 750.5 221.5 c 128,-1,8
 713 263 713 263 641 263 c 0,9,10
 568 263 568 263 532 221 c 128,-1,11
 496 179 496 179 496 120 c 0,0,1
EndSplineSet
EndChar

StartChar: slash
Encoding: 47 47 18
AltUni2: 002215.ffffffff.0 002215.ffffffff.0
Width: 1229
GlyphClass: 1
Flags: W
LayerCount: 2
Fore
SplineSet
418 -125 m 1,0,-1
 1025 1456 l 1,1,-1
 860 1456 l 1,2,-1
 252 -125 l 1,3,-1
 418 -125 l 1,0,-1
EndSplineSet
EndChar

StartChar: zero
Encoding: 48 48 19
Width: 1229
GlyphClass: 1
Flags: W
LayerCount: 2
Fore
SplineSet
1088 557 m 2,0,-1
 1088 898 l 2,1,2
 1088 1037 1088 1037 1056 1144.5 c 128,-1,3
 1024 1252 1024 1252 964 1326 c 0,4,5
 903 1400 903 1400 815.5 1438.5 c 128,-1,6
 728 1477 728 1477 616 1477 c 0,7,8
 505 1477 505 1477 417.5 1438.5 c 128,-1,9
 330 1400 330 1400 270 1326 c 0,10,11
 209 1252 209 1252 177 1144.5 c 128,-1,12
 145 1037 145 1037 145 898 c 2,13,-1
 145 557 l 2,14,15
 145 418 145 418 177 310.5 c 128,-1,16
 209 203 209 203 270 130 c 0,17,18
 331 55 331 55 419 17.5 c 128,-1,19
 507 -20 507 -20 618 -20 c 0,20,21
 730 -20 730 -20 817 18 c 128,-1,22
 904 56 904 56 964 130 c 0,23,24
 1024 203 1024 203 1056 310.5 c 128,-1,25
 1088 418 1088 418 1088 557 c 2,0,-1
331 594 m 1,26,27
 331 620 331 620 331 645 c 128,-1,28
 331 670 331 670 331 695 c 2,29,-1
 331 939 l 2,30,31
 331 1041 331 1041 351.5 1118.5 c 128,-1,32
 372 1196 372 1196 414 1245 c 0,33,34
 449 1284 449 1284 499.5 1304.5 c 128,-1,35
 550 1325 550 1325 616 1325 c 0,36,37
 681 1325 681 1325 730.5 1306 c 128,-1,38
 780 1287 780 1287 814 1249 c 0,39,40
 849 1212 849 1212 869.5 1156.5 c 128,-1,41
 890 1101 890 1101 898 1029 c 1,42,-1
 331 594 l 1,26,27
902 518 m 2,43,44
 902 411 902 411 880.5 332 c 128,-1,45
 859 253 859 253 813 204 c 0,46,47
 779 168 779 168 730 149 c 128,-1,48
 681 130 681 130 618 130 c 0,49,50
 558 130 558 130 510 147.5 c 128,-1,51
 462 165 462 165 428 199 c 0,52,53
 391 235 391 235 368 290.5 c 128,-1,54
 345 346 345 346 336 419 c 1,55,-1
 902 852 l 1,56,57
 902 824 902 824 902 781.5 c 128,-1,58
 902 739 902 739 902 724 c 2,59,-1
 902 518 l 2,43,44
EndSplineSet
EndChar

StartChar: one
Encoding: 49 49 20
Width: 1229
GlyphClass: 1
Flags: W
LayerCount: 2
Fore
SplineSet
774 0 m 1,0,-1
 774 1456 l 1,1,-1
 759 1456 l 1,2,-1
 208 1244 l 1,3,-1
 208 1075 l 1,4,-1
 589 1220 l 1,5,-1
 589 0 l 1,6,-1
 774 0 l 1,0,-1
EndSplineSet
EndChar

StartChar: two
Encoding: 50 50 21
Width: 1229
GlyphClass: 1
Flags: W
LayerCount: 2
Fore
SplineSet
1067 0 m 1,0,-1
 1067 151 l 1,1,-1
 336 151 l 1,2,-1
 727 575 l 2,3,4
 782 635 782 635 831.5 695.5 c 128,-1,5
 881 756 881 756 919 818 c 0,6,7
 956 880 956 880 978 943.5 c 128,-1,8
 1000 1007 1000 1007 1000 1072 c 0,9,10
 1000 1159 1000 1159 969.5 1233 c 128,-1,11
 939 1307 939 1307 882 1361 c 256,12,13
 825 1415 825 1415 742.5 1445.5 c 128,-1,14
 660 1476 660 1476 557 1476 c 0,15,16
 445 1476 445 1476 357.5 1440 c 128,-1,17
 270 1404 270 1404 210 1343 c 0,18,19
 149 1282 149 1282 117 1200.5 c 128,-1,20
 85 1119 85 1119 85 1027 c 1,21,-1
 271 1027 l 1,22,23
 271 1095 271 1095 288.5 1150 c 128,-1,24
 306 1205 306 1205 342 1244 c 0,25,26
 377 1282 377 1282 430.5 1303 c 128,-1,27
 484 1324 484 1324 557 1324 c 0,28,29
 617 1324 617 1324 664.5 1303.5 c 128,-1,30
 712 1283 712 1283 746 1248 c 0,31,32
 779 1213 779 1213 796.5 1165.5 c 128,-1,33
 814 1118 814 1118 814 1064 c 0,34,35
 814 1020 814 1020 803 978.5 c 128,-1,36
 792 937 792 937 766 891 c 0,37,38
 740 844 740 844 697 789 c 128,-1,39
 654 734 654 734 590 663 c 2,40,-1
 113 133 l 1,41,-1
 113 0 l 1,42,-1
 1067 0 l 1,0,-1
EndSplineSet
EndChar

StartChar: three
Encoding: 51 51 22
Width: 1229
GlyphClass: 1
Flags: W
LayerCount: 2
Fore
SplineSet
390 817 m 1,0,-1
 390 667 l 1,1,-1
 522 667 l 2,2,3
 591 667 591 667 648.5 651 c 128,-1,4
 706 635 706 635 747 602 c 0,5,6
 787 569 787 569 809.5 519.5 c 128,-1,7
 832 470 832 470 832 402 c 0,8,9
 832 333 832 333 812.5 282.5 c 128,-1,10
 793 232 793 232 757 198 c 256,11,12
 721 164 721 164 670 147.5 c 128,-1,13
 619 131 619 131 556 131 c 256,14,15
 493 131 493 131 441.5 149 c 128,-1,16
 390 167 390 167 354 200 c 256,17,18
 318 233 318 233 298.5 280 c 128,-1,19
 279 327 279 327 279 384 c 1,20,-1
 94 384 l 1,21,22
 94 288 94 288 130.5 213 c 128,-1,23
 167 138 167 138 229 86 c 256,24,25
 291 34 291 34 375.5 7 c 128,-1,26
 460 -20 460 -20 556 -20 c 0,27,28
 654 -20 654 -20 738.5 8.5 c 128,-1,29
 823 37 823 37 885 92 c 0,30,31
 947 146 947 146 982 225 c 128,-1,32
 1017 304 1017 304 1017 406 c 0,33,34
 1017 456 1017 456 1005.5 507 c 128,-1,35
 994 558 994 558 966 604 c 0,36,37
 937 650 937 650 889.5 687 c 128,-1,38
 842 724 842 724 771 747 c 1,39,40
 830 772 830 772 872.5 809.5 c 128,-1,41
 915 847 915 847 942 890 c 0,42,43
 969 932 969 932 982 977 c 128,-1,44
 995 1022 995 1022 995 1064 c 0,45,46
 995 1165 995 1165 963 1242 c 128,-1,47
 931 1319 931 1319 873 1371 c 256,48,49
 815 1423 815 1423 734 1449.5 c 128,-1,50
 653 1476 653 1476 555 1476 c 0,51,52
 454 1476 454 1476 371.5 1444.5 c 128,-1,53
 289 1413 289 1413 230 1359 c 0,54,55
 171 1304 171 1304 138.5 1230.5 c 128,-1,56
 106 1157 106 1157 106 1074 c 1,57,-1
 292 1074 l 1,58,59
 292 1131 292 1131 311 1177 c 128,-1,60
 330 1223 330 1223 365 1256 c 0,61,62
 399 1289 399 1289 447.5 1306.5 c 128,-1,63
 496 1324 496 1324 555 1324 c 0,64,65
 616 1324 616 1324 663.5 1308.5 c 128,-1,66
 711 1293 711 1293 743 1262 c 0,67,68
 776 1230 776 1230 793 1181.5 c 128,-1,69
 810 1133 810 1133 810 1068 c 0,70,71
 810 1013 810 1013 791 967 c 128,-1,72
 772 921 772 921 736 888 c 0,73,74
 699 855 699 855 645.5 836 c 128,-1,75
 592 817 592 817 522 817 c 2,76,-1
 390 817 l 1,0,-1
EndSplineSet
EndChar

StartChar: four
Encoding: 52 52 23
Width: 1229
GlyphClass: 1
Flags: W
LayerCount: 2
Fore
SplineSet
924 489 m 1,0,-1
 924 1456 l 1,1,-1
 727 1456 l 1,2,-1
 75 447 l 1,3,-1
 75 338 l 1,4,-1
 739 338 l 1,5,-1
 739 0 l 1,6,-1
 924 0 l 1,7,-1
 924 338 l 1,8,-1
 1127 338 l 1,9,-1
 1127 489 l 1,10,-1
 924 489 l 1,0,-1
280 489 m 1,11,-1
 709 1154 l 1,12,-1
 739 1210 l 1,13,-1
 739 489 l 1,14,-1
 280 489 l 1,11,-1
EndSplineSet
EndChar

StartChar: five
Encoding: 53 53 24
Width: 1229
GlyphClass: 1
Flags: W
LayerCount: 2
Fore
SplineSet
240 730 m 1,0,-1
 388 692 l 1,1,2
 413 714 413 714 436.5 731 c 128,-1,3
 460 748 460 748 487 760 c 256,4,5
 514 772 514 772 547.5 778.5 c 128,-1,6
 581 785 581 785 627 785 c 0,7,8
 697 785 697 785 751 760 c 128,-1,9
 805 735 805 735 842 692 c 0,10,11
 879 648 879 648 898.5 589 c 128,-1,12
 918 530 918 530 918 462 c 0,13,14
 918 387 918 387 900.5 326 c 128,-1,15
 883 265 883 265 849 222 c 0,16,17
 814 178 814 178 763 154.5 c 128,-1,18
 712 131 712 131 646 131 c 0,19,20
 529 131 529 131 454.5 195 c 128,-1,21
 380 259 380 259 363 383 c 1,22,-1
 187 383 l 1,23,24
 197 282 197 282 236.5 206 c 128,-1,25
 276 130 276 130 338 80 c 0,26,27
 399 30 399 30 478 5 c 128,-1,28
 557 -20 557 -20 646 -20 c 0,29,30
 762 -20 762 -20 848 16.5 c 128,-1,31
 934 53 934 53 991 118 c 0,32,33
 1047 182 1047 182 1075 271 c 128,-1,34
 1103 360 1103 360 1103 464 c 0,35,36
 1103 574 1103 574 1073 664 c 128,-1,37
 1043 754 1043 754 987 818 c 0,38,39
 931 881 931 881 851 916 c 128,-1,40
 771 951 771 951 670 951 c 0,41,42
 591 951 591 951 531 932 c 128,-1,43
 471 913 471 913 428 888 c 1,44,-1
 469 1276 l 1,45,-1
 1060 1276 l 1,46,-1
 1060 1456 l 1,47,-1
 313 1456 l 1,48,-1
 240 730 l 1,0,-1
EndSplineSet
EndChar

StartChar: six
Encoding: 54 54 25
Width: 1229
GlyphClass: 1
Flags: W
LayerCount: 2
Fore
SplineSet
856 1457 m 1,0,-1
 840 1457 l 2,1,2
 684 1457 684 1457 561 1413.5 c 128,-1,3
 438 1370 438 1370 352 1284 c 0,4,5
 227 1159 227 1159 184 983 c 128,-1,6
 141 807 141 807 141 625 c 2,7,-1
 141 538 l 2,8,9
 141 432 141 432 173 326.5 c 128,-1,10
 205 221 205 221 270 142 c 0,11,12
 328 70 328 70 413 25 c 128,-1,13
 498 -20 498 -20 610 -20 c 0,14,15
 721 -20 721 -20 805.5 19 c 128,-1,16
 890 58 890 58 947 126 c 0,17,18
 1004 193 1004 193 1032.5 283 c 128,-1,19
 1061 373 1061 373 1061 475 c 0,20,21
 1061 564 1061 564 1037 650 c 128,-1,22
 1013 736 1013 736 962 804 c 256,23,24
 911 872 911 872 832 913.5 c 128,-1,25
 753 955 753 955 644 955 c 0,26,27
 594 955 594 955 548.5 943.5 c 128,-1,28
 503 932 503 932 464 913 c 0,29,30
 424 893 424 893 390 866.5 c 128,-1,31
 356 840 356 840 330 809 c 1,32,33
 336 905 336 905 368.5 996 c 128,-1,34
 401 1087 401 1087 464 1153 c 0,35,36
 524 1216 524 1216 616 1253.5 c 128,-1,37
 708 1291 708 1291 840 1291 c 2,38,-1
 856 1291 l 1,39,-1
 856 1457 l 1,0,-1
614 801 m 0,40,41
 681 801 681 801 731 773 c 128,-1,42
 781 745 781 745 814 698 c 256,43,44
 847 651 847 651 863 590.5 c 128,-1,45
 879 530 879 530 879 466 c 0,46,47
 879 394 879 394 861.5 332.5 c 128,-1,48
 844 271 844 271 810 227 c 0,49,50
 775 183 775 183 725 158 c 128,-1,51
 675 133 675 133 610 133 c 0,52,53
 554 133 554 133 503 159.5 c 128,-1,54
 452 186 452 186 413 237 c 256,55,56
 374 288 374 288 351 362.5 c 128,-1,57
 328 437 328 437 328 533 c 2,58,-1
 328 595 l 1,59,60
 345 641 345 641 374 679 c 128,-1,61
 403 717 403 717 441 744 c 256,62,63
 479 771 479 771 523 786 c 128,-1,64
 567 801 567 801 614 801 c 0,40,41
EndSplineSet
EndChar

StartChar: seven
Encoding: 55 55 26
Width: 1229
GlyphClass: 1
Flags: W
LayerCount: 2
Fore
SplineSet
1096 1352 m 1,0,-1
 1096 1456 l 1,1,-1
 112 1456 l 1,2,-1
 112 1294 l 1,3,-1
 900 1294 l 1,4,-1
 299 0 l 1,5,-1
 493 0 l 1,6,-1
 1096 1352 l 1,0,-1
EndSplineSet
EndChar

StartChar: eight
Encoding: 56 56 27
Width: 1229
GlyphClass: 1
Flags: W
LayerCount: 2
Fore
SplineSet
1070 1076 m 0,0,1
 1070 1171 1070 1171 1037 1245.5 c 128,-1,2
 1004 1320 1004 1320 946 1371 c 256,3,4
 888 1422 888 1422 809 1449 c 128,-1,5
 730 1476 730 1476 638 1476 c 0,6,7
 545 1476 545 1476 466.5 1449 c 128,-1,8
 388 1422 388 1422 332 1371 c 0,9,10
 275 1320 275 1320 243 1245.5 c 128,-1,11
 211 1171 211 1171 211 1076 c 0,12,13
 211 1022 211 1022 226 973 c 128,-1,14
 241 924 241 924 268 883 c 0,15,16
 295 841 295 841 334 807.5 c 128,-1,17
 373 774 373 774 421 750 c 1,18,19
 365 726 365 726 320 690 c 128,-1,20
 275 654 275 654 243 609 c 0,21,22
 211 563 211 563 194 508.5 c 128,-1,23
 177 454 177 454 177 393 c 0,24,25
 177 293 177 293 213 216 c 128,-1,26
 249 139 249 139 312 87 c 0,27,28
 374 34 374 34 458.5 7 c 128,-1,29
 543 -20 543 -20 641 -20 c 0,30,31
 737 -20 737 -20 821 7.5 c 128,-1,32
 905 35 905 35 968 88 c 0,33,34
 1030 140 1030 140 1066.5 217 c 128,-1,35
 1103 294 1103 294 1103 393 c 0,36,37
 1103 454 1103 454 1085.5 508 c 128,-1,38
 1068 562 1068 562 1036 608 c 0,39,40
 1003 654 1003 654 957.5 689.5 c 128,-1,41
 912 725 912 725 856 749 c 1,42,43
 888 765 888 765 916 785 c 128,-1,44
 944 805 944 805 967 828 c 0,45,46
 1015 876 1015 876 1042 939.5 c 128,-1,47
 1069 1003 1069 1003 1070 1076 c 0,0,1
918 397 m 0,48,49
 918 334 918 334 897.5 284.5 c 128,-1,50
 877 235 877 235 841 201 c 0,51,52
 804 167 804 167 753 149 c 128,-1,53
 702 131 702 131 641 131 c 0,54,55
 577 131 577 131 525.5 149 c 128,-1,56
 474 167 474 167 438 201 c 256,57,58
 402 235 402 235 382.5 284.5 c 128,-1,59
 363 334 363 334 363 397 c 0,60,61
 363 458 363 458 382.5 509 c 128,-1,62
 402 560 402 560 438 597 c 0,63,64
 474 633 474 633 525 653 c 128,-1,65
 576 673 576 673 639 673 c 0,66,67
 700 673 700 673 751.5 653 c 128,-1,68
 803 633 803 633 840 597 c 0,69,70
 877 560 877 560 897.5 509 c 128,-1,71
 918 458 918 458 918 397 c 0,48,49
884 1073 m 0,72,73
 884 1017 884 1017 866 971 c 128,-1,74
 848 925 848 925 816 893 c 0,75,76
 783 860 783 860 738 842.5 c 128,-1,77
 693 825 693 825 640 825 c 0,78,79
 586 825 586 825 541.5 842.5 c 128,-1,80
 497 860 497 860 465 893 c 0,81,82
 432 925 432 925 414.5 970.5 c 128,-1,83
 397 1016 397 1016 397 1073 c 256,84,85
 397 1130 397 1130 414.5 1176.5 c 128,-1,86
 432 1223 432 1223 464 1256 c 256,87,88
 496 1289 496 1289 540 1306.5 c 128,-1,89
 584 1324 584 1324 638 1324 c 256,90,91
 692 1324 692 1324 737 1305.5 c 128,-1,92
 782 1287 782 1287 815 1254 c 0,93,94
 847 1220 847 1220 865.5 1174 c 128,-1,95
 884 1128 884 1128 884 1073 c 0,72,73
EndSplineSet
EndChar

StartChar: nine
Encoding: 57 57 28
Width: 1229
GlyphClass: 1
Flags: W
LayerCount: 2
Fore
SplineSet
373 164 m 2,0,-1
 354 164 l 1,1,-1
 354 -1 l 1,2,-1
 373 -1 l 2,3,4
 553 -1 553 -1 678.5 48.5 c 128,-1,5
 804 98 804 98 875 178 c 0,6,7
 993 310 993 310 1029 480.5 c 128,-1,8
 1065 651 1065 651 1065 820 c 2,9,-1
 1065 887 l 2,10,11
 1065 1006 1065 1006 1032 1125.5 c 128,-1,12
 999 1245 999 1245 933 1325 c 0,13,14
 877 1393 877 1393 794.5 1434.5 c 128,-1,15
 712 1476 712 1476 600 1476 c 256,16,17
 488 1476 488 1476 403.5 1435.5 c 128,-1,18
 319 1395 319 1395 263 1327 c 0,19,20
 206 1258 206 1258 177.5 1166.5 c 128,-1,21
 149 1075 149 1075 149 972 c 0,22,23
 149 884 149 884 173 797 c 128,-1,24
 197 710 197 710 248 641 c 256,25,26
 299 572 299 572 377.5 529.5 c 128,-1,27
 456 487 456 487 564 487 c 0,28,29
 620 487 620 487 667.5 498.5 c 128,-1,30
 715 510 715 510 754 530 c 256,31,32
 793 550 793 550 824 576.5 c 128,-1,33
 855 603 855 603 879 633 c 1,34,-1
 879 631 l 1,35,36
 874 539 874 539 850 453 c 128,-1,37
 826 367 826 367 757 292 c 0,38,39
 700 231 700 231 606.5 197.5 c 128,-1,40
 513 164 513 164 373 164 c 2,0,-1
594 640 m 0,41,42
 527 640 527 640 477.5 669.5 c 128,-1,43
 428 699 428 699 396 747 c 0,44,45
 363 795 363 795 347 856.5 c 128,-1,46
 331 918 331 918 331 982 c 0,47,48
 331 1054 331 1054 349 1116.5 c 128,-1,49
 367 1179 367 1179 402 1225 c 0,50,51
 436 1270 436 1270 486 1296 c 128,-1,52
 536 1322 536 1322 601 1322 c 0,53,54
 658 1322 658 1322 708.5 1294 c 128,-1,55
 759 1266 759 1266 798 1214 c 0,56,57
 836 1161 836 1161 858.5 1085 c 128,-1,58
 881 1009 881 1009 881 912 c 2,59,-1
 881 852 l 1,60,61
 864 805 864 805 834.5 766.5 c 128,-1,62
 805 728 805 728 768 700 c 0,63,64
 730 671 730 671 685.5 655.5 c 128,-1,65
 641 640 641 640 594 640 c 0,41,42
EndSplineSet
EndChar

StartChar: less
Encoding: 60 60 31
Width: 1229
GlyphClass: 1
Flags: W
LayerCount: 2
Fore
SplineSet
1018 196 m 1,0,-1
 1018 392 l 1,1,-1
 406 628 l 1,2,-1
 353 646 l 1,3,-1
 406 663 l 1,4,-1
 1018 903 l 1,5,-1
 1018 1099 l 1,6,-1
 170 721 l 1,7,-1
 170 575 l 1,8,-1
 1018 196 l 1,0,-1
EndSplineSet
EndChar

StartChar: equal
Encoding: 61 61 32
Width: 1229
GlyphClass: 1
Flags: W
LayerCount: 2
Fore
SplineSet
1066 780 m 1,0,-1
 1066 941 l 1,1,-1
 173 941 l 1,2,-1
 173 780 l 1,3,-1
 1066 780 l 1,0,-1
1066 365 m 1,4,-1
 1066 525 l 1,5,-1
 173 525 l 1,6,-1
 173 365 l 1,7,-1
 1066 365 l 1,4,-1
EndSplineSet
EndChar

StartChar: greater
Encoding: 62 62 33
Width: 1229
GlyphClass: 1
Flags: W
LayerCount: 2
Fore
SplineSet
178 197 m 1,0,-1
 1061 576 l 1,1,-1
 1061 722 l 1,2,-1
 178 1100 l 1,3,-1
 178 909 l 1,4,-1
 825 669 l 1,5,-1
 885 650 l 1,6,-1
 825 633 l 1,7,-1
 178 389 l 1,8,-1
 178 197 l 1,0,-1
EndSplineSet
EndChar

StartChar: question
Encoding: 63 63 34
Width: 1229
GlyphClass: 1
Flags: W
LayerCount: 2
Fore
SplineSet
511 410 m 1,0,-1
 696 410 l 1,1,2
 696 449 696 449 698 479.5 c 128,-1,3
 700 510 700 510 708 537 c 256,4,5
 716 564 716 564 732.5 590 c 128,-1,6
 749 616 749 616 779 645 c 0,7,8
 826 687 826 687 874.5 736 c 128,-1,9
 923 785 923 785 962 842 c 0,10,11
 1001 898 1001 898 1026 961.5 c 128,-1,12
 1051 1025 1051 1025 1051 1097 c 0,13,14
 1051 1187 1051 1187 1022 1257 c 128,-1,15
 993 1327 993 1327 938 1376 c 256,16,17
 883 1425 883 1425 803.5 1450.5 c 128,-1,18
 724 1476 724 1476 623 1476 c 0,19,20
 532 1476 532 1476 453.5 1451.5 c 128,-1,21
 375 1427 375 1427 318 1381 c 0,22,23
 260 1334 260 1334 226 1267 c 128,-1,24
 192 1200 192 1200 191 1116 c 1,25,-1
 376 1116 l 1,26,27
 376 1168 376 1168 397 1205.5 c 128,-1,28
 418 1243 418 1243 453 1268 c 0,29,30
 487 1292 487 1292 531.5 1303.5 c 128,-1,31
 576 1315 576 1315 623 1315 c 0,32,33
 684 1315 684 1315 731 1299 c 128,-1,34
 778 1283 778 1283 809 1252 c 0,35,36
 837 1224 837 1224 851.5 1183.5 c 128,-1,37
 866 1143 866 1143 866 1091 c 0,38,39
 866 1041 866 1041 847 996 c 128,-1,40
 828 951 828 951 799 911 c 0,41,42
 769 870 769 870 733.5 833 c 128,-1,43
 698 796 698 796 664 761 c 0,44,45
 614 715 614 715 584 681.5 c 128,-1,46
 554 648 554 648 538 612 c 0,47,48
 522 575 522 575 517 528.5 c 128,-1,49
 512 482 512 482 511 410 c 1,0,-1
490 97 m 0,50,51
 490 51 490 51 518.5 20 c 128,-1,52
 547 -11 547 -11 604 -11 c 256,53,54
 661 -11 661 -11 690.5 20 c 128,-1,55
 720 51 720 51 720 97 c 0,56,57
 720 145 720 145 690.5 177 c 128,-1,58
 661 209 661 209 604 209 c 256,59,60
 547 209 547 209 518.5 177 c 128,-1,61
 490 145 490 145 490 97 c 0,50,51
EndSplineSet
EndChar

StartChar: at
Encoding: 64 64 35
Width: 1229
GlyphClass: 1
Flags: W
LayerCount: 2
Fore
SplineSet
1159 789 m 0,0,1
 1163 940 1163 940 1131 1063.5 c 128,-1,2
 1099 1187 1099 1187 1035 1275 c 0,3,4
 970 1363 970 1363 875 1410.5 c 128,-1,5
 780 1458 780 1458 658 1458 c 0,6,7
 533 1458 533 1458 429.5 1401 c 128,-1,8
 326 1344 326 1344 250 1244 c 0,9,10
 170 1139 170 1139 122.5 995 c 128,-1,11
 75 851 75 851 69 691 c 0,12,13
 64 538 64 538 93.5 409.5 c 128,-1,14
 123 281 123 281 190 188 c 0,15,16
 256 95 256 95 361.5 43.5 c 128,-1,17
 467 -8 467 -8 614 -8 c 0,18,19
 646 -8 646 -8 682 -3.5 c 128,-1,20
 718 1 718 1 753 11 c 0,21,22
 788 20 788 20 820 34 c 128,-1,23
 852 48 852 48 877 67 c 1,24,-1
 845 184 l 1,25,26
 823 169 823 169 796 157 c 128,-1,27
 769 145 769 145 739 137 c 0,28,29
 709 128 709 128 678 123.5 c 128,-1,30
 647 119 647 119 617 119 c 0,31,32
 505 119 505 119 422.5 157.5 c 128,-1,33
 340 196 340 196 287 270 c 0,34,35
 234 343 234 343 210 449 c 128,-1,36
 186 555 186 555 191 691 c 0,37,38
 195 836 195 836 232 957.5 c 128,-1,39
 269 1079 269 1079 336 1165 c 0,40,41
 399 1245 399 1245 478.5 1288.5 c 128,-1,42
 558 1332 558 1332 655 1332 c 0,43,44
 751 1332 751 1332 826 1295 c 128,-1,45
 901 1258 901 1258 953 1188 c 0,46,47
 1004 1118 1004 1118 1029 1017 c 128,-1,48
 1054 916 1054 916 1050 789 c 0,49,50
 1049 716 1049 716 1039 651 c 128,-1,51
 1029 586 1029 586 1010 538 c 0,52,53
 991 489 991 489 962.5 460.5 c 128,-1,54
 934 432 934 432 897 432 c 0,55,56
 881 432 881 432 867 437 c 128,-1,57
 853 442 853 442 844 457 c 0,58,59
 834 471 834 471 829 496.5 c 128,-1,60
 824 522 824 522 827 563 c 2,61,-1
 871 1067 l 1,62,63
 845 1103 845 1103 801 1129.5 c 128,-1,64
 757 1156 757 1156 690 1156 c 0,65,66
 619 1156 619 1156 560 1122.5 c 128,-1,67
 501 1089 501 1089 457 1027 c 0,68,69
 412 964 412 964 384 874.5 c 128,-1,70
 356 785 356 785 347 674 c 0,71,72
 341 596 341 596 349.5 531 c 128,-1,73
 358 466 358 466 381 419 c 0,74,75
 403 372 403 372 439 346 c 128,-1,76
 475 320 475 320 524 320 c 0,77,78
 558 320 558 320 589 330 c 128,-1,79
 620 340 620 340 647 358 c 0,80,81
 669 374 669 374 688.5 395 c 128,-1,82
 708 416 708 416 724 441 c 1,83,84
 731 417 731 417 742 397.5 c 128,-1,85
 753 378 753 378 768 363 c 0,86,87
 789 342 789 342 818 331 c 128,-1,88
 847 320 847 320 883 320 c 0,89,90
 957 320 957 320 1008 363 c 128,-1,91
 1059 406 1059 406 1092 474 c 0,92,93
 1124 542 1124 542 1140 625.5 c 128,-1,94
 1156 709 1156 709 1159 789 c 0,0,1
470 674 m 0,95,96
 478 756 478 756 494.5 822.5 c 128,-1,97
 511 889 511 889 538 936 c 0,98,99
 565 982 565 982 604.5 1007.5 c 128,-1,100
 644 1033 644 1033 697 1033 c 0,101,102
 712 1033 712 1033 726.5 1030 c 128,-1,103
 741 1027 741 1027 755 1020 c 1,104,-1
 717 585 l 1,105,-1
 716 575 l 1,106,107
 705 551 705 551 692 532.5 c 128,-1,108
 679 514 679 514 665 500 c 0,109,110
 642 478 642 478 614.5 468 c 128,-1,111
 587 458 587 458 557 458 c 0,112,113
 533 458 533 458 515.5 472.5 c 128,-1,114
 498 487 498 487 487 515 c 0,115,116
 476 542 476 542 472 582.5 c 128,-1,117
 468 623 468 623 470 674 c 0,95,96
EndSplineSet
EndChar

StartChar: A
Encoding: 65 65 36
Width: 1229
GlyphClass: 1
Flags: W
LayerCount: 2
Fore
SplineSet
869 377 m 1,0,-1
 984 0 l 1,1,-1
 1168 0 l 1,2,-1
 706 1456 l 1,3,-1
 551 1456 l 1,4,-1
 81 0 l 1,5,-1
 266 0 l 1,6,-1
 383 377 l 1,7,-1
 869 377 l 1,0,-1
433 538 m 1,8,-1
 628 1170 l 1,9,-1
 820 538 l 1,10,-1
 433 538 l 1,8,-1
EndSplineSet
Substitution2: "'smcp' Lowercase to Small Capitals lookup 0 subtable" A.smcp
EndChar

StartChar: B
Encoding: 66 66 37
Width: 1229
GlyphClass: 1
Flags: W
LayerCount: 2
Fore
SplineSet
172 0 m 1,0,-1
 638 0 l 2,1,2
 731 1 731 1 818.5 29 c 128,-1,3
 906 57 906 57 973 110 c 0,4,5
 1040 162 1040 162 1080 240 c 128,-1,6
 1120 318 1120 318 1119 420 c 0,7,8
 1119 485 1119 485 1099.5 541 c 128,-1,9
 1080 597 1080 597 1045 642 c 0,10,11
 1012 683 1012 683 961 717 c 128,-1,12
 910 751 910 751 855 764 c 1,13,-1
 855 767 l 1,14,15
 908 790 908 790 945.5 816 c 128,-1,16
 983 842 983 842 1014 880 c 0,17,18
 1044 917 1044 917 1061.5 964 c 128,-1,19
 1079 1011 1079 1011 1080 1068 c 0,20,21
 1081 1170 1081 1170 1041 1243 c 128,-1,22
 1001 1316 1001 1316 934 1363 c 256,23,24
 867 1410 867 1410 781 1432.5 c 128,-1,25
 695 1455 695 1455 605 1456 c 2,26,-1
 172 1456 l 1,27,-1
 172 0 l 1,0,-1
358 681 m 1,28,-1
 653 681 l 2,29,30
 712 679 712 679 763 661 c 128,-1,31
 814 643 814 643 852 610 c 0,32,33
 890 576 890 576 911.5 528 c 128,-1,34
 933 480 933 480 932 418 c 0,35,36
 932 357 932 357 908.5 309 c 128,-1,37
 885 261 885 261 845 228 c 256,38,39
 805 195 805 195 753 176.5 c 128,-1,40
 701 158 701 158 643 157 c 2,41,-1
 358 157 l 1,42,-1
 358 681 l 1,28,-1
358 835 m 1,43,-1
 358 1298 l 1,44,-1
 611 1298 l 2,45,46
 665 1297 665 1297 716.5 1284 c 128,-1,47
 768 1271 768 1271 808 1244 c 0,48,49
 847 1216 847 1216 870.5 1173 c 128,-1,50
 894 1130 894 1130 894 1069 c 0,51,52
 894 1012 894 1012 870 969 c 128,-1,53
 846 926 846 926 807 897 c 0,54,55
 768 867 768 867 718 851.5 c 128,-1,56
 668 836 668 836 616 835 c 2,57,-1
 358 835 l 1,43,-1
EndSplineSet
Substitution2: "'smcp' Lowercase to Small Capitals lookup 0 subtable" B.smcp
EndChar

StartChar: C
Encoding: 67 67 38
Width: 1229
GlyphClass: 1
Flags: W
LayerCount: 2
Fore
SplineSet
1117 438 m 1,0,-1
 932 438 l 1,1,2
 923 372 923 372 901 315.5 c 128,-1,3
 879 259 879 259 842 218 c 0,4,5
 805 176 805 176 751.5 153 c 128,-1,6
 698 130 698 130 625 130 c 0,7,8
 558 130 558 130 508 151.5 c 128,-1,9
 458 173 458 173 421 211 c 0,10,11
 384 248 384 248 360 297 c 128,-1,12
 336 346 336 346 321 402 c 0,13,14
 306 457 306 457 299.5 514.5 c 128,-1,15
 293 572 293 572 293 626 c 2,16,-1
 293 831 l 2,17,18
 293 885 293 885 299.5 942.5 c 128,-1,19
 306 1000 306 1000 321 1055 c 256,20,21
 336 1110 336 1110 360.5 1159 c 128,-1,22
 385 1208 385 1208 422 1245 c 0,23,24
 458 1282 458 1282 508.5 1303.5 c 128,-1,25
 559 1325 559 1325 625 1325 c 0,26,27
 698 1325 698 1325 751.5 1300.5 c 128,-1,28
 805 1276 805 1276 842 1233 c 256,29,30
 879 1190 879 1190 901 1133 c 128,-1,31
 923 1076 923 1076 932 1010 c 1,32,-1
 1117 1010 l 1,33,34
 1105 1114 1105 1114 1067.5 1200 c 128,-1,35
 1030 1286 1030 1286 968 1348 c 0,36,37
 906 1409 906 1409 820 1442.5 c 128,-1,38
 734 1476 734 1476 625 1476 c 0,39,40
 534 1476 534 1476 461 1450.5 c 128,-1,41
 388 1425 388 1425 331 1380 c 0,42,43
 273 1335 273 1335 231.5 1273.5 c 128,-1,44
 190 1212 190 1212 163 1140 c 0,45,46
 135 1068 135 1068 121.5 989 c 128,-1,47
 108 910 108 910 107 829 c 2,48,-1
 107 626 l 2,49,50
 108 545 108 545 121.5 466 c 128,-1,51
 135 387 135 387 163 315 c 0,52,53
 190 243 190 243 231.5 182 c 128,-1,54
 273 121 273 121 331 76 c 0,55,56
 388 31 388 31 461.5 5.5 c 128,-1,57
 535 -20 535 -20 625 -20 c 0,58,59
 730 -20 730 -20 815.5 13.5 c 128,-1,60
 901 47 901 47 964 108 c 0,61,62
 1026 168 1026 168 1065 252.5 c 128,-1,63
 1104 337 1104 337 1117 438 c 1,0,-1
EndSplineSet
Substitution2: "'smcp' Lowercase to Small Capitals lookup 0 subtable" C.smcp
EndChar

StartChar: D
Encoding: 68 68 39
Width: 1229
GlyphClass: 1
Flags: W
LayerCount: 2
Fore
SplineSet
155 0 m 1,0,-1
 492 0 l 2,1,2
 597 1 597 1 687.5 25 c 128,-1,3
 778 49 778 49 850 94 c 0,4,5
 918 137 918 137 973 198 c 128,-1,6
 1028 259 1028 259 1064 334 c 0,7,8
 1099 406 1099 406 1117.5 492 c 128,-1,9
 1136 578 1136 578 1136 674 c 2,10,-1
 1136 781 l 2,11,12
 1135 881 1135 881 1115.5 969 c 128,-1,13
 1096 1057 1096 1057 1059 1131 c 0,14,15
 1018 1218 1018 1218 949.5 1284.5 c 128,-1,16
 881 1351 881 1351 792 1392 c 0,17,18
 728 1422 728 1422 652.5 1438.5 c 128,-1,19
 577 1455 577 1455 492 1456 c 2,20,-1
 155 1456 l 1,21,-1
 155 0 l 1,0,-1
343 1304 m 1,22,-1
 492 1304 l 2,23,24
 561 1303 561 1303 619 1288.5 c 128,-1,25
 677 1274 677 1274 724 1248 c 0,26,27
 790 1213 790 1213 835.5 1156.5 c 128,-1,28
 881 1100 881 1100 908 1030 c 0,29,30
 929 976 929 976 939.5 913.5 c 128,-1,31
 950 851 950 851 951 783 c 2,32,-1
 951 674 l 2,33,34
 950 607 950 607 940 545.5 c 128,-1,35
 930 484 930 484 910 431 c 0,36,37
 887 366 887 366 847.5 313.5 c 128,-1,38
 808 261 808 261 754 225 c 0,39,40
 703 190 703 190 637.5 171 c 128,-1,41
 572 152 572 152 492 151 c 2,42,-1
 343 151 l 1,43,-1
 343 1304 l 1,22,-1
EndSplineSet
Substitution2: "'smcp' Lowercase to Small Capitals lookup 0 subtable" D.smcp
EndChar

StartChar: E
Encoding: 69 69 40
Width: 1229
GlyphClass: 1
Flags: W
LayerCount: 2
Fore
SplineSet
975 673 m 1,0,-1
 975 830 l 1,1,-1
 367 830 l 1,2,-1
 367 1298 l 1,3,-1
 1067 1298 l 1,4,-1
 1067 1456 l 1,5,-1
 182 1456 l 1,6,-1
 182 0 l 1,7,-1
 1076 0 l 1,8,-1
 1076 157 l 1,9,-1
 367 157 l 1,10,-1
 367 673 l 1,11,-1
 975 673 l 1,0,-1
EndSplineSet
Substitution2: "'smcp' Lowercase to Small Capitals lookup 0 subtable" E.smcp
EndChar

StartChar: F
Encoding: 70 70 41
Width: 1229
GlyphClass: 1
Flags: W
LayerCount: 2
Fore
SplineSet
984 643 m 1,0,-1
 984 800 l 1,1,-1
 378 800 l 1,2,-1
 378 1298 l 1,3,-1
 1085 1298 l 1,4,-1
 1085 1456 l 1,5,-1
 191 1456 l 1,6,-1
 191 0 l 1,7,-1
 378 0 l 1,8,-1
 378 643 l 1,9,-1
 984 643 l 1,0,-1
EndSplineSet
Substitution2: "'smcp' Lowercase to Small Capitals lookup 0 subtable" F.smcp
EndChar

StartChar: G
Encoding: 71 71 42
Width: 1229
GlyphClass: 1
Flags: W
LayerCount: 2
Fore
SplineSet
1116 191 m 1,0,-1
 1113 725 l 1,1,-1
 641 725 l 1,2,-1
 641 569 l 1,3,-1
 937 569 l 1,4,-1
 935 242 l 1,5,6
 912 209 912 209 878 188.5 c 128,-1,7
 844 168 844 168 805 156 c 256,8,9
 766 144 766 144 724.5 140 c 128,-1,10
 683 136 683 136 645 137 c 0,11,12
 579 138 579 138 527 160.5 c 128,-1,13
 475 183 475 183 436 221 c 0,14,15
 396 259 396 259 368 309 c 128,-1,16
 340 359 340 359 322 415 c 256,17,18
 304 471 304 471 295.5 529.5 c 128,-1,19
 287 588 287 588 286 643 c 2,20,-1
 286 814 l 2,21,22
 286 868 286 868 293 926 c 128,-1,23
 300 984 300 984 316 1040 c 256,24,25
 332 1096 332 1096 357 1146.5 c 128,-1,26
 382 1197 382 1197 420 1235 c 256,27,28
 458 1273 458 1273 509 1295.5 c 128,-1,29
 560 1318 560 1318 626 1318 c 0,30,31
 695 1318 695 1318 747 1296.5 c 128,-1,32
 799 1275 799 1275 837 1237 c 0,33,34
 874 1199 874 1199 897 1145.5 c 128,-1,35
 920 1092 920 1092 931 1029 c 1,36,-1
 1114 1029 l 1,37,38
 1105 1131 1105 1131 1066 1213.5 c 128,-1,39
 1027 1296 1027 1296 963 1355 c 0,40,41
 899 1413 899 1413 813 1444.5 c 128,-1,42
 727 1476 727 1476 625 1476 c 0,43,44
 533 1476 533 1476 459 1449 c 128,-1,45
 385 1422 385 1422 327 1376 c 0,46,47
 268 1329 268 1329 226 1265.5 c 128,-1,48
 184 1202 184 1202 156 1128 c 256,49,50
 128 1054 128 1054 114.5 973.5 c 128,-1,51
 101 893 101 893 100 812 c 2,52,-1
 100 643 l 2,53,54
 101 561 101 561 116.5 480.5 c 128,-1,55
 132 400 132 400 163 327 c 0,56,57
 193 253 193 253 238 190 c 128,-1,58
 283 127 283 127 343 81 c 0,59,60
 403 34 403 34 478.5 7.5 c 128,-1,61
 554 -19 554 -19 644 -20 c 0,62,63
 733 -21 733 -21 814 -0.5 c 128,-1,64
 895 20 895 20 965 62 c 0,65,66
 1006 86 1006 86 1044 118.5 c 128,-1,67
 1082 151 1082 151 1116 191 c 1,0,-1
EndSplineSet
Substitution2: "'smcp' Lowercase to Small Capitals lookup 0 subtable" G.smcp
EndChar

StartChar: H
Encoding: 72 72 43
Width: 1229
GlyphClass: 1
Flags: W
LayerCount: 2
Fore
SplineSet
1087 0 m 1,0,-1
 1087 1456 l 1,1,-1
 912 1456 l 1,2,-1
 912 830 l 1,3,-1
 315 830 l 1,4,-1
 315 1456 l 1,5,-1
 141 1456 l 1,6,-1
 141 0 l 1,7,-1
 315 0 l 1,8,-1
 315 673 l 1,9,-1
 912 673 l 1,10,-1
 912 0 l 1,11,-1
 1087 0 l 1,0,-1
EndSplineSet
Substitution2: "'smcp' Lowercase to Small Capitals lookup 0 subtable" H.smcp
EndChar

StartChar: I
Encoding: 73 73 44
Width: 1229
GlyphClass: 1
Flags: W
LayerCount: 2
Fore
SplineSet
174 1456 m 1,0,-1
 174 1295 l 1,1,-1
 515 1295 l 1,2,-1
 515 160 l 1,3,-1
 174 160 l 1,4,-1
 174 0 l 1,5,-1
 1054 0 l 1,6,-1
 1054 160 l 1,7,-1
 705 160 l 1,8,-1
 705 1295 l 1,9,-1
 1054 1295 l 1,10,-1
 1054 1456 l 1,11,-1
 174 1456 l 1,0,-1
EndSplineSet
Substitution2: "'smcp' Lowercase to Small Capitals lookup 0 subtable" I.smcp
EndChar

StartChar: J
Encoding: 74 74 45
Width: 1229
GlyphClass: 1
Flags: W
LayerCount: 2
Fore
SplineSet
857 1456 m 1,0,-1
 857 443 l 2,1,2
 855 381 855 381 835.5 325.5 c 128,-1,3
 816 270 816 270 780 228 c 0,4,5
 743 186 743 186 691 161.5 c 128,-1,6
 639 137 639 137 573 137 c 0,7,8
 509 137 509 137 457.5 158 c 128,-1,9
 406 179 406 179 369 218 c 0,10,11
 332 256 332 256 310.5 308 c 128,-1,12
 289 360 289 360 286 421 c 1,13,-1
 98 421 l 1,14,15
 107 320 107 320 144 238.5 c 128,-1,16
 181 157 181 157 243 100 c 0,17,18
 304 42 304 42 387.5 11 c 128,-1,19
 471 -20 471 -20 573 -20 c 0,20,21
 674 -20 674 -20 759.5 14.5 c 128,-1,22
 845 49 845 49 908 111 c 0,23,24
 971 172 971 172 1007.5 257 c 128,-1,25
 1044 342 1044 342 1046 443 c 2,26,-1
 1046 1456 l 1,27,-1
 857 1456 l 1,0,-1
EndSplineSet
Substitution2: "'smcp' Lowercase to Small Capitals lookup 0 subtable" J.smcp
EndChar

StartChar: K
Encoding: 75 75 46
Width: 1229
GlyphClass: 1
Flags: W
LayerCount: 2
Fore
SplineSet
523 676 m 1,0,-1
 963 0 l 1,1,-1
 1188 0 l 1,2,-1
 645 819 l 1,3,-1
 1154 1456 l 1,4,-1
 929 1456 l 1,5,-1
 502 921 l 1,6,-1
 361 745 l 1,7,-1
 361 1456 l 1,8,-1
 172 1456 l 1,9,-1
 172 0 l 1,10,-1
 361 0 l 1,11,-1
 361 492 l 1,12,-1
 523 676 l 1,0,-1
EndSplineSet
Substitution2: "'smcp' Lowercase to Small Capitals lookup 0 subtable" K.smcp
EndChar

StartChar: L
Encoding: 76 76 47
Width: 1229
GlyphClass: 1
Flags: W
LayerCount: 2
Fore
SplineSet
383 157 m 1,0,-1
 383 1456 l 1,1,-1
 198 1456 l 1,2,-1
 198 0 l 1,3,-1
 1095 0 l 1,4,-1
 1095 157 l 1,5,-1
 383 157 l 1,0,-1
EndSplineSet
Substitution2: "'smcp' Lowercase to Small Capitals lookup 0 subtable" L.smcp
EndChar

StartChar: M
Encoding: 77 77 48
Width: 1229
GlyphClass: 1
Flags: W
LayerCount: 2
Fore
SplineSet
377 1456 m 1,0,-1
 148 1456 l 1,1,-1
 148 0 l 1,2,-1
 328 0 l 1,3,-1
 328 581 l 1,4,-1
 313 1168 l 1,5,-1
 560 405 l 1,6,-1
 666 405 l 1,7,-1
 935 1189 l 1,8,-1
 920 581 l 1,9,-1
 920 0 l 1,10,-1
 1100 0 l 1,11,-1
 1100 1456 l 1,12,-1
 870 1456 l 1,13,-1
 614 728 l 1,14,-1
 377 1456 l 1,0,-1
EndSplineSet
Substitution2: "'smcp' Lowercase to Small Capitals lookup 0 subtable" M.smcp
EndChar

StartChar: N
Encoding: 78 78 49
Width: 1229
GlyphClass: 1
Flags: W
LayerCount: 2
Fore
SplineSet
1086 0 m 1,0,-1
 1086 1456 l 1,1,-1
 899 1456 l 1,2,-1
 896 370 l 1,3,-1
 331 1456 l 1,4,-1
 143 1456 l 1,5,-1
 143 0 l 1,6,-1
 330 0 l 1,7,-1
 333 1088 l 1,8,-1
 898 0 l 1,9,-1
 1086 0 l 1,0,-1
EndSplineSet
Substitution2: "'smcp' Lowercase to Small Capitals lookup 0 subtable" N.smcp
EndChar

StartChar: O
Encoding: 79 79 50
Width: 1229
GlyphClass: 1
Flags: W
LayerCount: 2
Fore
SplineSet
1121 644 m 2,0,-1
 1121 810 l 2,1,2
 1120 888 1120 888 1107.5 968 c 128,-1,3
 1095 1048 1095 1048 1069 1122 c 0,4,5
 1042 1196 1042 1196 1001.5 1260.5 c 128,-1,6
 961 1325 961 1325 905 1373 c 256,7,8
 849 1421 849 1421 776 1448.5 c 128,-1,9
 703 1476 703 1476 613 1476 c 256,10,11
 523 1476 523 1476 450.5 1448.5 c 128,-1,12
 378 1421 378 1421 322 1373 c 0,13,14
 266 1324 266 1324 225.5 1259.5 c 128,-1,15
 185 1195 185 1195 159 1121 c 0,16,17
 132 1047 132 1047 119.5 967.5 c 128,-1,18
 107 888 107 888 106 810 c 2,19,-1
 106 644 l 2,20,21
 107 566 107 566 120 487 c 128,-1,22
 133 408 133 408 160 334 c 0,23,24
 186 260 186 260 227 195.5 c 128,-1,25
 268 131 268 131 324 83 c 256,26,27
 380 35 380 35 452.5 7.5 c 128,-1,28
 525 -20 525 -20 615 -20 c 256,29,30
 705 -20 705 -20 777.5 7.5 c 128,-1,31
 850 35 850 35 906 83 c 256,32,33
 962 131 962 131 1002.5 195 c 128,-1,34
 1043 259 1043 259 1069 333 c 256,35,36
 1095 407 1095 407 1107.5 486.5 c 128,-1,37
 1120 566 1120 566 1121 644 c 2,0,-1
938 812 m 2,38,-1
 938 644 l 2,39,40
 937 592 937 592 931.5 535 c 128,-1,41
 926 478 926 478 912 423 c 0,42,43
 897 367 897 367 873.5 316.5 c 128,-1,44
 850 266 850 266 815 228 c 0,45,46
 779 189 779 189 729.5 166 c 128,-1,47
 680 143 680 143 615 143 c 256,48,49
 550 143 550 143 501 166 c 128,-1,50
 452 189 452 189 416 228 c 0,51,52
 380 266 380 266 356 317 c 128,-1,53
 332 368 332 368 317 424 c 0,54,55
 302 479 302 479 295.5 536 c 128,-1,56
 289 593 289 593 288 644 c 2,57,-1
 288 812 l 2,58,59
 289 863 289 863 295.5 919.5 c 128,-1,60
 302 976 302 976 317 1032 c 0,61,62
 331 1087 331 1087 355 1137.5 c 128,-1,63
 379 1188 379 1188 415 1227 c 0,64,65
 451 1265 451 1265 500 1288 c 128,-1,66
 549 1311 549 1311 613 1311 c 0,67,68
 678 1311 678 1311 727 1288.5 c 128,-1,69
 776 1266 776 1266 812 1228 c 0,70,71
 848 1189 848 1189 872 1138.5 c 128,-1,72
 896 1088 896 1088 911 1033 c 0,73,74
 925 977 925 977 931 920.5 c 128,-1,75
 937 864 937 864 938 812 c 2,38,-1
EndSplineSet
Substitution2: "'smcp' Lowercase to Small Capitals lookup 0 subtable" O.smcp
EndChar

StartChar: P
Encoding: 80 80 51
Width: 1229
GlyphClass: 1
Flags: W
LayerCount: 2
Fore
SplineSet
376 584 m 1,0,-1
 663 584 l 2,1,2
 761 585 761 585 848.5 614 c 128,-1,3
 936 643 936 643 1002 698 c 256,4,5
 1068 753 1068 753 1106.5 833.5 c 128,-1,6
 1145 914 1145 914 1145 1019 c 256,7,8
 1145 1124 1145 1124 1106.5 1205 c 128,-1,9
 1068 1286 1068 1286 1002 1341 c 256,10,11
 936 1396 936 1396 848.5 1425 c 128,-1,12
 761 1454 761 1454 663 1456 c 2,13,-1
 191 1456 l 1,14,-1
 191 0 l 1,15,-1
 376 0 l 1,16,-1
 376 584 l 1,0,-1
376 736 m 1,17,-1
 376 1304 l 1,18,-1
 663 1304 l 2,19,20
 727 1303 727 1303 781.5 1283 c 128,-1,21
 836 1263 836 1263 876 1226 c 0,22,23
 915 1189 915 1189 937.5 1136 c 128,-1,24
 960 1083 960 1083 960 1017 c 256,25,26
 960 951 960 951 937.5 899.5 c 128,-1,27
 915 848 915 848 875 812 c 256,28,29
 835 776 835 776 781 756.5 c 128,-1,30
 727 737 727 737 663 736 c 2,31,-1
 376 736 l 1,17,-1
EndSplineSet
Substitution2: "'smcp' Lowercase to Small Capitals lookup 0 subtable" P.smcp
EndChar

StartChar: Q
Encoding: 81 81 52
Width: 1229
GlyphClass: 1
Flags: W
LayerCount: 2
Fore
SplineSet
1134 663 m 2,0,-1
 1134 791 l 2,1,2
 1133 871 1133 871 1120 953.5 c 128,-1,3
 1107 1036 1107 1036 1081 1112 c 0,4,5
 1054 1188 1054 1188 1012.5 1254.5 c 128,-1,6
 971 1321 971 1321 914 1370 c 0,7,8
 856 1419 856 1419 781.5 1447.5 c 128,-1,9
 707 1476 707 1476 614 1476 c 256,10,11
 521 1476 521 1476 446.5 1447.5 c 128,-1,12
 372 1419 372 1419 315 1370 c 0,13,14
 257 1320 257 1320 216 1253.5 c 128,-1,15
 175 1187 175 1187 148 1111 c 256,16,17
 121 1035 121 1035 108 953 c 128,-1,18
 95 871 95 871 94 791 c 2,19,-1
 94 663 l 2,20,21
 95 583 95 583 108 501.5 c 128,-1,22
 121 420 121 420 148 344 c 256,23,24
 175 268 175 268 217 201.5 c 128,-1,25
 259 135 259 135 317 86 c 0,26,27
 374 37 374 37 448 8.5 c 128,-1,28
 522 -20 522 -20 615 -20 c 0,29,30
 651 -20 651 -20 684.5 -15.5 c 128,-1,31
 718 -11 718 -11 749 -2 c 1,32,-1
 1037 -246 l 1,33,-1
 1164 -125 l 1,34,-1
 913 84 l 1,35,36
 971 133 971 133 1012.5 199.5 c 128,-1,37
 1054 266 1054 266 1081 342 c 0,38,39
 1107 418 1107 418 1120 500 c 128,-1,40
 1133 582 1133 582 1134 663 c 2,0,-1
950 793 m 2,41,-1
 950 663 l 2,42,43
 949 608 949 608 943.5 548.5 c 128,-1,44
 938 489 938 489 924 431 c 0,45,46
 909 373 909 373 885 321 c 128,-1,47
 861 269 861 269 824 230 c 0,48,49
 787 190 787 190 735.5 166.5 c 128,-1,50
 684 143 684 143 615 143 c 0,51,52
 547 143 547 143 495.5 166.5 c 128,-1,53
 444 190 444 190 407 230 c 256,54,55
 370 270 370 270 345.5 322 c 128,-1,56
 321 374 321 374 306 432 c 256,57,58
 291 490 291 490 284.5 549.5 c 128,-1,59
 278 609 278 609 278 663 c 2,60,-1
 278 793 l 2,61,62
 278 847 278 847 284.5 906.5 c 128,-1,63
 291 966 291 966 306 1024 c 0,64,65
 321 1081 321 1081 345.5 1133 c 128,-1,66
 370 1185 370 1185 407 1225 c 0,67,68
 444 1264 444 1264 495 1287.5 c 128,-1,69
 546 1311 546 1311 614 1311 c 0,70,71
 683 1311 683 1311 734.5 1288 c 128,-1,72
 786 1265 786 1265 823 1226 c 0,73,74
 860 1186 860 1186 884.5 1134 c 128,-1,75
 909 1082 909 1082 924 1025 c 0,76,77
 938 967 938 967 943.5 907.5 c 128,-1,78
 949 848 949 848 950 793 c 2,41,-1
EndSplineSet
Substitution2: "'smcp' Lowercase to Small Capitals lookup 0 subtable" Q.smcp
EndChar

StartChar: R
Encoding: 82 82 53
Width: 1229
GlyphClass: 1
Flags: W
LayerCount: 2
Fore
SplineSet
656 594 m 1,0,-1
 942 0 l 1,1,-1
 1137 0 l 1,2,-1
 1138 12 l 1,3,-1
 829 634 l 1,4,5
 889 660 889 660 939 697 c 128,-1,6
 989 734 989 734 1025 782 c 256,7,8
 1061 830 1061 830 1081.5 889 c 128,-1,9
 1102 948 1102 948 1102 1019 c 0,10,11
 1102 1129 1102 1129 1063.5 1210.5 c 128,-1,12
 1025 1292 1025 1292 958 1346 c 0,13,14
 890 1400 890 1400 800 1427 c 128,-1,15
 710 1454 710 1454 608 1456 c 2,16,-1
 181 1456 l 1,17,-1
 181 0 l 1,18,-1
 365 0 l 1,19,-1
 365 594 l 1,20,-1
 656 594 l 1,0,-1
365 746 m 1,21,-1
 365 1304 l 1,22,-1
 608 1304 l 2,23,24
 675 1303 675 1303 731.5 1285 c 128,-1,25
 788 1267 788 1267 829 1232 c 0,26,27
 870 1196 870 1196 893 1143.5 c 128,-1,28
 916 1091 916 1091 916 1021 c 0,29,30
 916 955 916 955 892 904.5 c 128,-1,31
 868 854 868 854 827 819 c 0,32,33
 785 784 785 784 730 765.5 c 128,-1,34
 675 747 675 747 613 746 c 2,35,-1
 365 746 l 1,21,-1
EndSplineSet
Substitution2: "'smcp' Lowercase to Small Capitals lookup 0 subtable" R.smcp
EndChar

StartChar: S
Encoding: 83 83 54
Width: 1229
GlyphClass: 1
Flags: W
LayerCount: 2
Fore
SplineSet
936 368 m 0,0,1
 936 308 936 308 910 264.5 c 128,-1,2
 884 221 884 221 843 193 c 0,3,4
 802 164 802 164 749.5 150.5 c 128,-1,5
 697 137 697 137 643 137 c 0,6,7
 575 137 575 137 517.5 155.5 c 128,-1,8
 460 174 460 174 416 211 c 0,9,10
 372 247 372 247 344 299.5 c 128,-1,11
 316 352 316 352 307 420 c 1,12,-1
 118 420 l 1,13,14
 121 326 121 326 159.5 249.5 c 128,-1,15
 198 173 198 173 264 116 c 0,16,17
 338 50 338 50 438.5 15 c 128,-1,18
 539 -20 539 -20 643 -20 c 0,19,20
 730 -20 730 -20 817 4.5 c 128,-1,21
 904 29 904 29 973 78 c 0,22,23
 1042 126 1042 126 1085.5 199 c 128,-1,24
 1129 272 1129 272 1129 370 c 0,25,26
 1129 467 1129 467 1088.5 541 c 128,-1,27
 1048 615 1048 615 982 666 c 0,28,29
 915 721 915 721 834 756.5 c 128,-1,30
 753 792 753 792 672 817 c 0,31,32
 623 832 623 832 567.5 852 c 128,-1,33
 512 872 512 872 465 902 c 0,34,35
 417 932 417 932 386 975.5 c 128,-1,36
 355 1019 355 1019 354 1082 c 0,37,38
 354 1140 354 1140 377.5 1184 c 128,-1,39
 401 1228 401 1228 441 1258 c 0,40,41
 480 1288 480 1288 530.5 1303 c 128,-1,42
 581 1318 581 1318 634 1318 c 0,43,44
 700 1318 700 1318 752.5 1297.5 c 128,-1,45
 805 1277 805 1277 843 1240 c 256,46,47
 881 1203 881 1203 904 1151.5 c 128,-1,48
 927 1100 927 1100 935 1037 c 1,49,-1
 1125 1037 l 1,50,51
 1123 1137 1123 1137 1082 1218 c 128,-1,52
 1041 1299 1041 1299 973 1356 c 256,53,54
 905 1413 905 1413 817 1444.5 c 128,-1,55
 729 1476 729 1476 634 1476 c 0,56,57
 548 1476 548 1476 463 1449.5 c 128,-1,58
 378 1423 378 1423 311 1372 c 256,59,60
 244 1321 244 1321 202.5 1247 c 128,-1,61
 161 1173 161 1173 161 1079 c 256,62,63
 161 985 161 985 202.5 915.5 c 128,-1,64
 244 846 244 846 310 795 c 0,65,66
 375 745 375 745 454.5 709.5 c 128,-1,67
 534 674 534 674 611 649 c 0,68,69
 664 632 664 632 721.5 611 c 128,-1,70
 779 590 779 590 827 559 c 0,71,72
 875 527 875 527 905.5 481 c 128,-1,73
 936 435 936 435 936 368 c 0,0,1
EndSplineSet
Substitution2: "'smcp' Lowercase to Small Capitals lookup 0 subtable" S.smcp
EndChar

StartChar: T
Encoding: 84 84 55
Width: 1229
GlyphClass: 1
Flags: W
LayerCount: 2
Fore
SplineSet
1156 1298 m 1,0,-1
 1156 1456 l 1,1,-1
 76 1456 l 1,2,-1
 76 1298 l 1,3,-1
 526 1298 l 1,4,-1
 526 0 l 1,5,-1
 706 0 l 1,6,-1
 706 1298 l 1,7,-1
 1156 1298 l 1,0,-1
EndSplineSet
Substitution2: "'smcp' Lowercase to Small Capitals lookup 0 subtable" T.smcp
EndChar

StartChar: U
Encoding: 85 85 56
Width: 1229
GlyphClass: 1
Flags: W
LayerCount: 2
Fore
SplineSet
1088 1456 m 1,0,-1
 909 1456 l 1,1,-1
 906 470 l 2,2,3
 904 405 904 405 885 345 c 128,-1,4
 866 285 866 285 830 239 c 0,5,6
 793 192 793 192 739 164.5 c 128,-1,7
 685 137 685 137 614 137 c 256,8,9
 543 137 543 137 488.5 165 c 128,-1,10
 434 193 434 193 398 239 c 0,11,12
 361 285 361 285 341.5 345 c 128,-1,13
 322 405 322 405 321 470 c 2,14,-1
 317 1456 l 1,15,-1
 141 1456 l 1,16,-1
 139 470 l 2,17,18
 140 368 140 368 175 278.5 c 128,-1,19
 210 189 210 189 272 123 c 0,20,21
 334 56 334 56 421 18 c 128,-1,22
 508 -20 508 -20 614 -20 c 0,23,24
 718 -20 718 -20 805 18.5 c 128,-1,25
 892 57 892 57 955 124 c 0,26,27
 1018 190 1018 190 1054 279 c 128,-1,28
 1090 368 1090 368 1090 470 c 2,29,-1
 1088 1456 l 1,0,-1
EndSplineSet
Substitution2: "'smcp' Lowercase to Small Capitals lookup 0 subtable" U.smcp
EndChar

StartChar: V
Encoding: 86 86 57
Width: 1229
GlyphClass: 1
Flags: W
LayerCount: 2
Fore
SplineSet
531 0 m 1,0,-1
 692 0 l 1,1,-1
 1151 1456 l 1,2,-1
 954 1456 l 1,3,-1
 632 371 l 1,4,-1
 610 298 l 1,5,-1
 589 369 l 1,6,-1
 269 1456 l 1,7,-1
 71 1456 l 1,8,-1
 531 0 l 1,0,-1
EndSplineSet
Substitution2: "'smcp' Lowercase to Small Capitals lookup 0 subtable" V.smcp
EndChar

StartChar: W
Encoding: 87 87 58
Width: 1229
GlyphClass: 1
Flags: W
LayerCount: 2
Fore
SplineSet
250 0 m 1,0,-1
 440 0 l 1,1,-1
 618 1035 l 1,2,-1
 629 1097 l 1,3,-1
 639 1036 l 1,4,-1
 816 0 l 1,5,-1
 1005 0 l 1,6,-1
 1182 1456 l 1,7,-1
 1007 1456 l 1,8,-1
 902 454 l 1,9,-1
 896 394 l 1,10,-1
 885 453 l 1,11,-1
 708 1456 l 1,12,-1
 547 1456 l 1,13,-1
 371 454 l 1,14,-1
 360 394 l 1,15,-1
 354 452 l 1,16,-1
 249 1456 l 1,17,-1
 73 1456 l 1,18,-1
 250 0 l 1,0,-1
EndSplineSet
Substitution2: "'smcp' Lowercase to Small Capitals lookup 0 subtable" W.smcp
EndChar

StartChar: X
Encoding: 88 88 59
Width: 1229
GlyphClass: 1
Flags: W
LayerCount: 2
Fore
SplineSet
625 885 m 1,0,-1
 315 1456 l 1,1,-1
 98 1456 l 1,2,-1
 521 734 l 1,3,-1
 87 0 l 1,4,-1
 306 0 l 1,5,-1
 629 582 l 1,6,-1
 951 0 l 1,7,-1
 1167 0 l 1,8,-1
 734 734 l 1,9,-1
 1157 1456 l 1,10,-1
 939 1456 l 1,11,-1
 625 885 l 1,0,-1
EndSplineSet
Substitution2: "'smcp' Lowercase to Small Capitals lookup 0 subtable" X.smcp
EndChar

StartChar: Y
Encoding: 89 89 60
Width: 1229
GlyphClass: 1
Flags: W
LayerCount: 2
Fore
SplineSet
603 725 m 1,0,-1
 272 1456 l 1,1,-1
 61 1456 l 1,2,-1
 514 543 l 1,3,-1
 517 0 l 1,4,-1
 689 0 l 1,5,-1
 692 543 l 1,6,-1
 1145 1456 l 1,7,-1
 935 1456 l 1,8,-1
 603 725 l 1,0,-1
EndSplineSet
Substitution2: "'smcp' Lowercase to Small Capitals lookup 0 subtable" Y.smcp
EndChar

StartChar: Z
Encoding: 90 90 61
Width: 1229
GlyphClass: 1
Flags: W
LayerCount: 2
Fore
SplineSet
325 157 m 1,0,-1
 1052 1315 l 1,1,-1
 1050 1456 l 1,2,-1
 127 1456 l 1,3,-1
 127 1298 l 1,4,-1
 839 1298 l 1,5,-1
 114 144 l 1,6,-1
 116 0 l 1,7,-1
 1079 0 l 1,8,-1
 1079 157 l 1,9,-1
 325 157 l 1,0,-1
EndSplineSet
Substitution2: "'smcp' Lowercase to Small Capitals lookup 0 subtable" Z.smcp
EndChar

StartChar: bracketleft
Encoding: 91 91 62
Width: 1229
GlyphClass: 1
Flags: W
LayerCount: 2
Fore
SplineSet
822 1512 m 1,0,-1
 822 1664 l 1,1,-1
 426 1664 l 1,2,-1
 426 -312 l 1,3,-1
 822 -312 l 1,4,-1
 822 -160 l 1,5,-1
 601 -160 l 1,6,-1
 601 1512 l 1,7,-1
 822 1512 l 1,0,-1
EndSplineSet
EndChar

StartChar: backslash
Encoding: 92 92 63
Width: 1229
GlyphClass: 1
Flags: W
LayerCount: 2
Fore
SplineSet
231 1456 m 1,0,-1
 839 -125 l 1,1,-1
 1006 -125 l 1,2,-1
 398 1456 l 1,3,-1
 231 1456 l 1,0,-1
EndSplineSet
EndChar

StartChar: bracketright
Encoding: 93 93 64
Width: 1229
GlyphClass: 1
Flags: W
LayerCount: 2
Fore
SplineSet
405 1664 m 1,0,-1
 405 1512 l 1,1,-1
 627 1512 l 1,2,-1
 627 -160 l 1,3,-1
 405 -160 l 1,4,-1
 405 -312 l 1,5,-1
 802 -312 l 1,6,-1
 802 1664 l 1,7,-1
 405 1664 l 1,0,-1
EndSplineSet
EndChar

StartChar: asciicircum
Encoding: 94 94 65
Width: 1229
GlyphClass: 1
Flags: W
LayerCount: 2
Fore
SplineSet
231 677 m 1,0,-1
 403 677 l 1,1,-1
 598 1163 l 1,2,-1
 613 1231 l 1,3,-1
 628 1163 l 1,4,-1
 826 677 l 1,5,-1
 997 677 l 1,6,-1
 678 1456 l 1,7,-1
 551 1456 l 1,8,-1
 231 677 l 1,0,-1
EndSplineSet
EndChar

StartChar: underscore
Encoding: 95 95 66
Width: 1229
GlyphClass: 1
Flags: W
LayerCount: 2
Fore
SplineSet
1072 -151 m 1,0,-1
 1072 0 l 1,1,-1
 155 0 l 1,2,-1
 155 -151 l 1,3,-1
 1072 -151 l 1,0,-1
EndSplineSet
EndChar

StartChar: grave
Encoding: 96 96 67
Width: 1229
GlyphClass: 1
Flags: W
LayerCount: 2
Fore
SplineSet
813 1215 m 1,0,-1
 638 1481 l 1,1,-1
 415 1481 l 1,2,-1
 663 1215 l 1,3,-1
 813 1215 l 1,0,-1
EndSplineSet
EndChar

StartChar: a
Encoding: 97 97 68
Width: 1229
GlyphClass: 1
Flags: W
LayerCount: 2
Fore
SplineSet
885 0 m 1,0,-1
 1078 0 l 1,1,-1
 1078 16 l 1,2,3
 1060 61 1060 61 1050 121.5 c 128,-1,4
 1040 182 1040 182 1040 236 c 2,5,-1
 1040 739 l 2,6,7
 1040 830 1040 830 1007 898 c 128,-1,8
 974 966 974 966 917 1012 c 0,9,10
 859 1057 859 1057 780 1079.5 c 128,-1,11
 701 1102 701 1102 609 1102 c 0,12,13
 508 1102 508 1102 428.5 1074 c 128,-1,14
 349 1046 349 1046 294 1001 c 0,15,16
 238 955 238 955 208.5 898 c 128,-1,17
 179 841 179 841 178 782 c 1,18,-1
 364 782 l 1,19,20
 364 816 364 816 380.5 847.5 c 128,-1,21
 397 879 397 879 427 902 c 256,22,23
 457 925 457 925 500.5 939 c 128,-1,24
 544 953 544 953 599 953 c 0,25,26
 658 953 658 953 705.5 938 c 128,-1,27
 753 923 753 923 786 896 c 0,28,29
 819 868 819 868 837 829 c 128,-1,30
 855 790 855 790 855 741 c 2,31,-1
 855 656 l 1,32,-1
 653 656 l 2,33,34
 540 656 540 656 448.5 634 c 128,-1,35
 357 612 357 612 292 568 c 0,36,37
 227 523 227 523 191.5 456 c 128,-1,38
 156 389 156 389 156 300 c 0,39,40
 156 232 156 232 182.5 173.5 c 128,-1,41
 209 115 209 115 258 73 c 0,42,43
 306 30 306 30 375.5 5 c 128,-1,44
 445 -20 445 -20 531 -20 c 0,45,46
 584 -20 584 -20 631 -9 c 128,-1,47
 678 2 678 2 720 21 c 0,48,49
 761 40 761 40 795.5 65 c 128,-1,50
 830 90 830 90 858 118 c 1,51,52
 861 84 861 84 867.5 52.5 c 128,-1,53
 874 21 874 21 885 0 c 1,0,-1
558 141 m 256,54,55
 504 141 504 141 463 155 c 128,-1,56
 422 169 422 169 395 194 c 0,57,58
 368 218 368 218 354.5 252 c 128,-1,59
 341 286 341 286 341 326 c 0,60,61
 341 368 341 368 356.5 401 c 128,-1,62
 372 434 372 434 402 458 c 0,63,64
 444 492 444 492 515.5 508.5 c 128,-1,65
 587 525 587 525 683 525 c 2,66,-1
 855 525 l 1,67,-1
 855 306 l 1,68,69
 839 274 839 274 811 244.5 c 128,-1,70
 783 215 783 215 745 192 c 0,71,72
 706 169 706 169 659 155 c 128,-1,73
 612 141 612 141 558 141 c 256,54,55
EndSplineSet
Substitution2: "'smcp' Lowercase to Small Capitals lookup 0 subtable" A.smcp
EndChar

StartChar: b
Encoding: 98 98 69
Width: 1229
GlyphClass: 1
Flags: W
LayerCount: 2
Fore
SplineSet
1091 529 m 2,0,-1
 1091 550 l 2,1,2
 1091 635 1091 635 1077 711.5 c 128,-1,3
 1063 788 1063 788 1036 851 c 0,4,5
 1010 907 1010 907 976 952.5 c 128,-1,6
 942 998 942 998 899 1030 c 0,7,8
 851 1064 851 1064 792 1083 c 128,-1,9
 733 1102 733 1102 663 1102 c 0,10,11
 607 1102 607 1102 559 1091 c 128,-1,12
 511 1080 511 1080 471 1059 c 0,13,14
 439 1042 439 1042 411 1018.5 c 128,-1,15
 383 995 383 995 360 966 c 1,16,-1
 360 1536 l 1,17,-1
 175 1536 l 1,18,-1
 175 0 l 1,19,-1
 345 0 l 1,20,-1
 354 123 l 1,21,22
 372 100 372 100 392 81 c 128,-1,23
 412 62 412 62 434 46 c 0,24,25
 480 14 480 14 537.5 -3 c 128,-1,26
 595 -20 595 -20 665 -20 c 0,27,28
 726 -20 726 -20 778.5 -5 c 128,-1,29
 831 10 831 10 875 37 c 0,30,31
 936 76 936 76 979.5 135.5 c 128,-1,32
 1023 195 1023 195 1050 270 c 0,33,34
 1070 327 1070 327 1080.5 392.5 c 128,-1,35
 1091 458 1091 458 1091 529 c 2,0,-1
906 550 m 2,36,-1
 906 529 l 2,37,38
 906 481 906 481 900 435 c 128,-1,39
 894 389 894 389 881 349 c 0,40,41
 865 296 865 296 838 253 c 128,-1,42
 811 210 811 210 771 182 c 0,43,44
 741 160 741 160 703 148.5 c 128,-1,45
 665 137 665 137 619 137 c 0,46,47
 571 137 571 137 531 149.5 c 128,-1,48
 491 162 491 162 459 185 c 256,49,50
 427 208 427 208 402.5 238.5 c 128,-1,51
 378 269 378 269 360 305 c 1,52,-1
 360 778 l 1,53,54
 377 814 377 814 401.5 844.5 c 128,-1,55
 426 875 426 875 458 898 c 0,56,57
 489 920 489 920 529 932.5 c 128,-1,58
 569 945 569 945 617 945 c 0,59,60
 661 945 661 945 697 935 c 128,-1,61
 733 925 733 925 762 907 c 0,62,63
 804 882 804 882 833 838 c 128,-1,64
 862 794 862 794 880 741 c 0,65,66
 893 698 893 698 899.5 649.5 c 128,-1,67
 906 601 906 601 906 550 c 2,36,-1
EndSplineSet
Substitution2: "'smcp' Lowercase to Small Capitals lookup 0 subtable" B.smcp
EndChar

StartChar: c
Encoding: 99 99 70
Width: 1229
GlyphClass: 1
Flags: W
LayerCount: 2
Fore
SplineSet
635 130 m 0,0,1
 548 130 548 130 489.5 164.5 c 128,-1,2
 431 199 431 199 396 255 c 0,3,4
 360 310 360 310 344.5 379.5 c 128,-1,5
 329 449 329 449 329 520 c 2,6,-1
 329 562 l 2,7,8
 329 632 329 632 344.5 701 c 128,-1,9
 360 770 360 770 396 826 c 0,10,11
 432 881 432 881 490.5 915.5 c 128,-1,12
 549 950 549 950 635 950 c 0,13,14
 691 950 691 950 739.5 931 c 128,-1,15
 788 912 788 912 823 879 c 256,16,17
 858 846 858 846 878.5 802.5 c 128,-1,18
 899 759 899 759 900 710 c 1,19,-1
 1075 710 l 1,20,21
 1075 792 1075 792 1042 864 c 128,-1,22
 1009 936 1009 936 951 989 c 0,23,24
 892 1041 892 1041 811.5 1071.5 c 128,-1,25
 731 1102 731 1102 635 1102 c 0,26,27
 512 1102 512 1102 420 1058 c 128,-1,28
 328 1014 328 1014 267 940 c 0,29,30
 205 865 205 865 174 767 c 128,-1,31
 143 669 143 669 143 562 c 2,32,-1
 143 520 l 2,33,34
 143 412 143 412 174 314.5 c 128,-1,35
 205 217 205 217 267 143 c 0,36,37
 328 68 328 68 420 24 c 128,-1,38
 512 -20 512 -20 635 -20 c 0,39,40
 721 -20 721 -20 800 9.5 c 128,-1,41
 879 39 879 39 940 89 c 0,42,43
 1001 138 1001 138 1037.5 203.5 c 128,-1,44
 1074 269 1074 269 1075 341 c 1,45,-1
 900 341 l 1,46,47
 899 296 899 296 876.5 257.5 c 128,-1,48
 854 219 854 219 817 191 c 0,49,50
 780 162 780 162 732.5 146 c 128,-1,51
 685 130 685 130 635 130 c 0,0,1
EndSplineSet
Substitution2: "'smcp' Lowercase to Small Capitals lookup 0 subtable" C.smcp
EndChar

StartChar: d
Encoding: 100 100 71
Width: 1229
GlyphClass: 1
Flags: W
LayerCount: 2
Fore
SplineSet
139 550 m 2,0,-1
 139 529 l 2,1,2
 139 413 139 413 170 312.5 c 128,-1,3
 201 212 201 212 257 138 c 256,4,5
 313 64 313 64 392.5 22 c 128,-1,6
 472 -20 472 -20 570 -20 c 0,7,8
 670 -20 670 -20 745 14 c 128,-1,9
 820 48 820 48 874 114 c 1,10,-1
 882 0 l 1,11,-1
 1052 0 l 1,12,-1
 1052 1536 l 1,13,-1
 867 1536 l 1,14,-1
 867 975 l 1,15,16
 814 1037 814 1037 741.5 1069.5 c 128,-1,17
 669 1102 669 1102 572 1102 c 0,18,19
 473 1102 473 1102 393 1061 c 128,-1,20
 313 1020 313 1020 257 947 c 0,21,22
 200 874 200 874 169.5 772.5 c 128,-1,23
 139 671 139 671 139 550 c 2,0,-1
324 529 m 2,24,-1
 324 550 l 2,25,26
 324 629 324 629 341 700.5 c 128,-1,27
 358 772 358 772 394 827 c 0,28,29
 429 881 429 881 484.5 913 c 128,-1,30
 540 945 540 945 618 945 c 0,31,32
 709 945 709 945 770 902.5 c 128,-1,33
 831 860 831 860 867 794 c 1,34,-1
 867 292 l 1,35,36
 831 221 831 221 770 179 c 128,-1,37
 709 137 709 137 616 137 c 0,38,39
 539 137 539 137 484 168.5 c 128,-1,40
 429 200 429 200 394 254 c 0,41,42
 358 308 358 308 341 379 c 128,-1,43
 324 450 324 450 324 529 c 2,24,-1
EndSplineSet
Substitution2: "'smcp' Lowercase to Small Capitals lookup 0 subtable" D.smcp
EndChar

StartChar: e
Encoding: 101 101 72
Width: 1229
GlyphClass: 1
Flags: W
LayerCount: 2
Fore
SplineSet
652 -20 m 0,0,1
 810 -20 810 -20 917.5 43.5 c 128,-1,2
 1025 107 1025 107 1079 189 c 1,3,-1
 966 277 l 1,4,5
 915 211 915 211 838 171 c 128,-1,6
 761 131 761 131 662 131 c 0,7,8
 587 131 587 131 525 159 c 128,-1,9
 463 187 463 187 419 236 c 0,10,11
 376 282 376 282 351.5 342 c 128,-1,12
 327 402 327 402 320 481 c 1,13,-1
 320 488 l 1,14,-1
 1093 488 l 1,15,-1
 1093 571 l 2,16,17
 1093 684 1093 684 1064.5 781 c 128,-1,18
 1036 878 1036 878 978 950 c 0,19,20
 920 1021 920 1021 832.5 1061.5 c 128,-1,21
 745 1102 745 1102 628 1102 c 0,22,23
 535 1102 535 1102 446.5 1064 c 128,-1,24
 358 1026 358 1026 289 955 c 0,25,26
 219 883 219 883 177 779.5 c 128,-1,27
 135 676 135 676 135 545 c 2,28,-1
 135 503 l 2,29,30
 135 390 135 390 173 294 c 128,-1,31
 211 198 211 198 279 128 c 256,32,33
 347 58 347 58 442.5 19 c 128,-1,34
 538 -20 538 -20 652 -20 c 0,0,1
628 950 m 0,35,36
 699 950 699 950 750.5 924 c 128,-1,37
 802 898 802 898 836 856 c 256,38,39
 870 814 870 814 889 756.5 c 128,-1,40
 908 699 908 699 908 649 c 2,41,-1
 908 640 l 1,42,-1
 326 640 l 1,43,44
 337 715 337 715 364.5 772.5 c 128,-1,45
 392 830 392 830 432 870 c 0,46,47
 472 909 472 909 522 929.5 c 128,-1,48
 572 950 572 950 628 950 c 0,35,36
EndSplineSet
Substitution2: "'smcp' Lowercase to Small Capitals lookup 0 subtable" E.smcp
EndChar

StartChar: f
Encoding: 102 102 73
Width: 1229
GlyphClass: 1
Flags: W
LayerCount: 2
Fore
SplineSet
450 0 m 1,0,-1
 636 0 l 1,1,-1
 636 939 l 1,2,-1
 1053 939 l 1,3,-1
 1053 1082 l 1,4,-1
 636 1082 l 1,5,-1
 636 1158 l 2,6,7
 636 1226 636 1226 653.5 1277 c 128,-1,8
 671 1328 671 1328 705 1360 c 0,9,10
 737 1391 737 1391 785.5 1406.5 c 128,-1,11
 834 1422 834 1422 897 1422 c 0,12,13
 959 1422 959 1422 1013.5 1411.5 c 128,-1,14
 1068 1401 1068 1401 1109 1387 c 1,15,-1
 1131 1540 l 1,16,17
 1105 1547 1105 1547 1080 1552.5 c 128,-1,18
 1055 1558 1055 1558 1030 1563 c 0,19,20
 992 1570 992 1570 953 1574.5 c 128,-1,21
 914 1579 914 1579 874 1579 c 0,22,23
 778 1579 778 1579 700 1552 c 128,-1,24
 622 1525 622 1525 567 1472 c 0,25,26
 511 1419 511 1419 480.5 1340.5 c 128,-1,27
 450 1262 450 1262 450 1158 c 2,28,-1
 450 1082 l 1,29,-1
 152 1082 l 1,30,-1
 152 939 l 1,31,-1
 450 939 l 1,32,-1
 450 0 l 1,0,-1
EndSplineSet
Substitution2: "'smcp' Lowercase to Small Capitals lookup 0 subtable" F.smcp
EndChar

StartChar: g
Encoding: 103 103 74
Width: 1229
GlyphClass: 1
Flags: W
LayerCount: 2
Fore
SplineSet
140 550 m 2,0,-1
 140 529 l 2,1,2
 140 413 140 413 170 312.5 c 128,-1,3
 200 212 200 212 256 138 c 0,4,5
 311 64 311 64 391 22 c 128,-1,6
 471 -20 471 -20 570 -20 c 0,7,8
 629 -20 629 -20 680 -7.5 c 128,-1,9
 731 5 731 5 773 28 c 0,10,11
 800 43 800 43 823.5 63 c 128,-1,12
 847 83 847 83 868 107 c 1,13,-1
 868 14 l 2,14,15
 868 -56 868 -56 848 -110 c 128,-1,16
 828 -164 828 -164 791 -200 c 0,17,18
 753 -237 753 -237 700 -256 c 128,-1,19
 647 -275 647 -275 581 -275 c 0,20,21
 544 -275 544 -275 507 -267.5 c 128,-1,22
 470 -260 470 -260 433 -243 c 256,23,24
 396 -226 396 -226 360 -197.5 c 128,-1,25
 324 -169 324 -169 290 -128 c 1,26,-1
 194 -239 l 1,27,28
 231 -292 231 -292 282.5 -328 c 128,-1,29
 334 -364 334 -364 390 -385 c 0,30,31
 445 -407 445 -407 499 -416.5 c 128,-1,32
 553 -426 553 -426 595 -426 c 0,33,34
 697 -426 697 -426 781 -396 c 128,-1,35
 865 -366 865 -366 926 -308 c 0,36,37
 986 -250 986 -250 1019.5 -167 c 128,-1,38
 1053 -84 1053 -84 1053 23 c 2,39,-1
 1053 1082 l 1,40,-1
 885 1082 l 1,41,-1
 876 964 l 1,42,43
 857 988 857 988 835.5 1008 c 128,-1,44
 814 1028 814 1028 790 1043 c 0,45,46
 746 1072 746 1072 691.5 1087 c 128,-1,47
 637 1102 637 1102 572 1102 c 0,48,49
 471 1102 471 1102 391 1061 c 128,-1,50
 311 1020 311 1020 255 947 c 256,51,52
 199 874 199 874 169.5 772.5 c 128,-1,53
 140 671 140 671 140 550 c 2,0,-1
325 529 m 2,54,-1
 325 550 l 2,55,56
 325 629 325 629 341.5 700.5 c 128,-1,57
 358 772 358 772 394 827 c 0,58,59
 429 881 429 881 484.5 913 c 128,-1,60
 540 945 540 945 618 945 c 0,61,62
 664 945 664 945 702 933.5 c 128,-1,63
 740 922 740 922 771 902 c 0,64,65
 802 881 802 881 826 853 c 128,-1,66
 850 825 850 825 868 791 c 1,67,-1
 868 295 l 1,68,69
 850 260 850 260 826 231 c 128,-1,70
 802 202 802 202 772 181 c 0,71,72
 741 160 741 160 702.5 148.5 c 128,-1,73
 664 137 664 137 616 137 c 0,74,75
 539 137 539 137 484 168.5 c 128,-1,76
 429 200 429 200 394 254 c 0,77,78
 358 308 358 308 341.5 379 c 128,-1,79
 325 450 325 450 325 529 c 2,54,-1
EndSplineSet
Substitution2: "'smcp' Lowercase to Small Capitals lookup 0 subtable" G.smcp
EndChar

StartChar: h
Encoding: 104 104 75
Width: 1229
GlyphClass: 1
Flags: W
LayerCount: 2
Fore
SplineSet
359 921 m 1,0,-1
 359 1536 l 1,1,-1
 174 1536 l 1,2,-1
 174 0 l 1,3,-1
 359 0 l 1,4,-1
 359 786 l 1,5,6
 379 818 379 818 404.5 844.5 c 128,-1,7
 430 871 430 871 460 891 c 0,8,9
 498 917 498 917 543 931 c 128,-1,10
 588 945 588 945 638 945 c 0,11,12
 699 946 699 946 746 928.5 c 128,-1,13
 793 911 793 911 824 876 c 0,14,15
 853 844 853 844 868 795.5 c 128,-1,16
 883 747 883 747 883 683 c 2,17,-1
 883 0 l 1,18,-1
 1068 0 l 1,19,-1
 1068 681 l 2,20,21
 1068 790 1068 790 1041.5 869.5 c 128,-1,22
 1015 949 1015 949 966 1001 c 256,23,24
 917 1053 917 1053 847.5 1077.5 c 128,-1,25
 778 1102 778 1102 693 1102 c 0,26,27
 628 1101 628 1101 570.5 1083 c 128,-1,28
 513 1065 513 1065 465 1030 c 0,29,30
 435 1009 435 1009 408 981.5 c 128,-1,31
 381 954 381 954 359 921 c 1,0,-1
EndSplineSet
Substitution2: "'smcp' Lowercase to Small Capitals lookup 0 subtable" H.smcp
EndChar

StartChar: i
Encoding: 105 105 76
Width: 1229
GlyphClass: 1
Flags: W
LayerCount: 2
Fore
SplineSet
203 1082 m 1,0,-1
 203 921 l 1,1,-1
 571 921 l 1,2,-1
 571 160 l 1,3,-1
 203 160 l 1,4,-1
 203 0 l 1,5,-1
 1109 0 l 1,6,-1
 1109 160 l 1,7,-1
 756 160 l 1,8,-1
 756 1082 l 1,9,-1
 203 1082 l 1,0,-1
547 1366 m 0,10,11
 547 1321 547 1321 574.5 1291 c 128,-1,12
 602 1261 602 1261 658 1261 c 0,13,14
 713 1261 713 1261 741 1291 c 128,-1,15
 769 1321 769 1321 769 1366 c 0,16,17
 769 1391 769 1391 761 1412 c 128,-1,18
 753 1433 753 1433 737 1447 c 0,19,20
 724 1460 724 1460 704 1467.5 c 128,-1,21
 684 1475 684 1475 658 1475 c 256,22,23
 632 1475 632 1475 611.5 1467.5 c 128,-1,24
 591 1460 591 1460 578 1447 c 0,25,26
 562 1432 562 1432 554.5 1411 c 128,-1,27
 547 1390 547 1390 547 1366 c 0,10,11
EndSplineSet
Substitution2: "'smcp' Lowercase to Small Capitals lookup 0 subtable" I.smcp
EndChar

StartChar: j
Encoding: 106 106 77
Width: 1229
GlyphClass: 1
Flags: W
LayerCount: 2
Fore
SplineSet
299 1082 m 1,0,-1
 299 921 l 1,1,-1
 660 921 l 1,2,-1
 660 -7 l 2,3,4
 660 -84 660 -84 640.5 -136.5 c 128,-1,5
 621 -189 621 -189 587 -221 c 256,6,7
 553 -253 553 -253 507 -266.5 c 128,-1,8
 461 -280 461 -280 409 -280 c 0,9,10
 395 -280 395 -280 370.5 -279.5 c 128,-1,11
 346 -279 346 -279 320 -277 c 0,12,13
 293 -276 293 -276 267 -273.5 c 128,-1,14
 241 -271 241 -271 224 -268 c 1,15,-1
 211 -420 l 1,16,17
 236 -424 236 -424 259 -427.5 c 128,-1,18
 282 -431 282 -431 305 -433 c 0,19,20
 333 -435 333 -435 362 -436 c 128,-1,21
 391 -437 391 -437 422 -437 c 0,22,23
 522 -437 522 -437 600.5 -408.5 c 128,-1,24
 679 -380 679 -380 734 -325 c 0,25,26
 788 -271 788 -271 816.5 -191 c 128,-1,27
 845 -111 845 -111 845 -7 c 2,28,-1
 845 1082 l 1,29,-1
 299 1082 l 1,0,-1
634 1367 m 256,30,31
 634 1322 634 1322 661 1291.5 c 128,-1,32
 688 1261 688 1261 744 1261 c 256,33,34
 800 1261 800 1261 828 1291.5 c 128,-1,35
 856 1322 856 1322 856 1367 c 256,36,37
 856 1412 856 1412 828 1443.5 c 128,-1,38
 800 1475 800 1475 744 1475 c 256,39,40
 688 1475 688 1475 661 1443.5 c 128,-1,41
 634 1412 634 1412 634 1367 c 256,30,31
EndSplineSet
Substitution2: "'smcp' Lowercase to Small Capitals lookup 0 subtable" J.smcp
EndChar

StartChar: k
Encoding: 107 107 78
Width: 1229
GlyphClass: 1
Flags: W
LayerCount: 2
Fore
SplineSet
498 505 m 1,0,-1
 895 0 l 1,1,-1
 1130 0 l 1,2,-1
 625 631 l 1,3,-1
 1063 1082 l 1,4,-1
 838 1082 l 1,5,-1
 483 726 l 1,6,-1
 362 596 l 1,7,-1
 362 1536 l 1,8,-1
 176 1536 l 1,9,-1
 176 0 l 1,10,-1
 362 0 l 1,11,-1
 362 374 l 1,12,-1
 498 505 l 1,0,-1
EndSplineSet
Substitution2: "'smcp' Lowercase to Small Capitals lookup 0 subtable" K.smcp
EndChar

StartChar: l
Encoding: 108 108 79
Width: 1229
GlyphClass: 1
Flags: W
LayerCount: 2
Fore
SplineSet
203 1536 m 1,0,-1
 203 1375 l 1,1,-1
 571 1375 l 1,2,-1
 571 160 l 1,3,-1
 203 160 l 1,4,-1
 203 0 l 1,5,-1
 1109 0 l 1,6,-1
 1109 160 l 1,7,-1
 756 160 l 1,8,-1
 756 1536 l 1,9,-1
 203 1536 l 1,0,-1
EndSplineSet
Substitution2: "'smcp' Lowercase to Small Capitals lookup 0 subtable" L.smcp
EndChar

StartChar: m
Encoding: 109 109 80
Width: 1229
GlyphClass: 1
Flags: W
LayerCount: 2
Fore
SplineSet
259 1082 m 1,0,-1
 93 1082 l 1,1,-1
 93 0 l 1,2,-1
 269 0 l 1,3,-1
 269 861 l 1,4,5
 275 877 275 877 284.5 891 c 128,-1,6
 294 905 294 905 307 916 c 0,7,8
 324 930 324 930 348.5 937.5 c 128,-1,9
 373 945 373 945 406 945 c 0,10,11
 436 945 436 945 458.5 937.5 c 128,-1,12
 481 930 481 930 496 914 c 0,13,14
 512 897 512 897 519.5 871 c 128,-1,15
 527 845 527 845 527 811 c 2,16,-1
 527 0 l 1,17,-1
 703 0 l 1,18,-1
 703 810 l 2,19,20
 703 816 703 816 703 820.5 c 128,-1,21
 703 825 703 825 703 830 c 0,22,23
 706 855 706 855 715 875.5 c 128,-1,24
 724 896 724 896 740 912 c 0,25,26
 756 927 756 927 780 936 c 128,-1,27
 804 945 804 945 837 945 c 0,28,29
 868 945 868 945 891.5 937 c 128,-1,30
 915 929 915 929 931 913 c 0,31,32
 946 896 946 896 954 870 c 128,-1,33
 962 844 962 844 962 810 c 2,34,-1
 962 0 l 1,35,-1
 1138 0 l 1,36,-1
 1138 808 l 2,37,38
 1138 886 1138 886 1120 943.5 c 128,-1,39
 1102 1001 1102 1001 1068 1037 c 0,40,41
 1037 1069 1037 1069 992 1085.5 c 128,-1,42
 947 1102 947 1102 891 1102 c 0,43,44
 850 1101 850 1101 815.5 1091 c 128,-1,45
 781 1081 781 1081 753 1064 c 0,46,47
 731 1049 731 1049 712 1029 c 128,-1,48
 693 1009 693 1009 679 986 c 1,49,50
 668 1011 668 1011 652.5 1031 c 128,-1,51
 637 1051 637 1051 618 1065 c 0,52,53
 592 1083 592 1083 557.5 1092.5 c 128,-1,54
 523 1102 523 1102 480 1102 c 0,55,56
 404 1101 404 1101 350.5 1069 c 128,-1,57
 297 1037 297 1037 264 980 c 1,58,-1
 259 1082 l 1,0,-1
EndSplineSet
Substitution2: "'smcp' Lowercase to Small Capitals lookup 0 subtable" M.smcp
EndChar

StartChar: n
Encoding: 110 110 81
Width: 1229
GlyphClass: 1
Flags: W
LayerCount: 2
Fore
SplineSet
174 0 m 1,0,-1
 359 0 l 1,1,-1
 359 776 l 1,2,3
 378 811 378 811 403.5 840 c 128,-1,4
 429 869 429 869 459 891 c 0,5,6
 496 916 496 916 540 930.5 c 128,-1,7
 584 945 584 945 635 945 c 0,8,9
 694 945 694 945 739.5 931 c 128,-1,10
 785 917 785 917 817 886 c 0,11,12
 848 855 848 855 864 805 c 128,-1,13
 880 755 880 755 880 683 c 2,14,-1
 880 0 l 1,15,-1
 1065 0 l 1,16,-1
 1065 687 l 2,17,18
 1065 795 1065 795 1038.5 873.5 c 128,-1,19
 1012 952 1012 952 963 1003 c 256,20,21
 914 1054 914 1054 844.5 1078 c 128,-1,22
 775 1102 775 1102 690 1102 c 0,23,24
 627 1101 627 1101 570.5 1083.5 c 128,-1,25
 514 1066 514 1066 466 1034 c 0,26,27
 434 1013 434 1013 405.5 984.5 c 128,-1,28
 377 956 377 956 353 922 c 1,29,-1
 340 1082 l 1,30,-1
 174 1082 l 1,31,-1
 174 0 l 1,0,-1
EndSplineSet
Substitution2: "'smcp' Lowercase to Small Capitals lookup 0 subtable" N.smcp
EndChar

StartChar: o
Encoding: 111 111 82
Width: 1229
GlyphClass: 1
Flags: W
LayerCount: 2
Fore
SplineSet
122 551 m 2,0,-1
 122 529 l 2,1,2
 122 412 122 412 156 312 c 128,-1,3
 190 212 190 212 254 138 c 0,4,5
 317 64 317 64 408.5 22 c 128,-1,6
 500 -20 500 -20 615 -20 c 0,7,8
 729 -20 729 -20 820 22 c 128,-1,9
 911 64 911 64 975 138 c 0,10,11
 1038 212 1038 212 1072 312 c 128,-1,12
 1106 412 1106 412 1106 529 c 2,13,-1
 1106 551 l 2,14,15
 1106 668 1106 668 1072 768.5 c 128,-1,16
 1038 869 1038 869 975 943 c 0,17,18
 911 1017 911 1017 819.5 1059.5 c 128,-1,19
 728 1102 728 1102 613 1102 c 0,20,21
 499 1102 499 1102 408 1059.5 c 128,-1,22
 317 1017 317 1017 254 943 c 0,23,24
 190 869 190 869 156 768.5 c 128,-1,25
 122 668 122 668 122 551 c 2,0,-1
307 529 m 2,26,-1
 307 551 l 2,27,28
 307 630 307 630 326 702.5 c 128,-1,29
 345 775 345 775 384 830 c 0,30,31
 422 885 422 885 479 917.5 c 128,-1,32
 536 950 536 950 613 950 c 256,33,34
 690 950 690 950 747.5 917.5 c 128,-1,35
 805 885 805 885 844 830 c 0,36,37
 882 775 882 775 901.5 702.5 c 128,-1,38
 921 630 921 630 921 551 c 2,39,-1
 921 529 l 2,40,41
 921 449 921 449 902 376.5 c 128,-1,42
 883 304 883 304 845 249 c 0,43,44
 806 194 806 194 748.5 162 c 128,-1,45
 691 130 691 130 615 130 c 0,46,47
 538 130 538 130 480 162 c 128,-1,48
 422 194 422 194 384 249 c 0,49,50
 345 304 345 304 326 376.5 c 128,-1,51
 307 449 307 449 307 529 c 2,26,-1
EndSplineSet
Substitution2: "'smcp' Lowercase to Small Capitals lookup 0 subtable" O.smcp
EndChar

StartChar: p
Encoding: 112 112 83
Width: 1229
GlyphClass: 1
Flags: W
LayerCount: 2
Fore
SplineSet
173 -416 m 1,0,-1
 358 -416 l 1,1,-1
 358 104 l 1,2,3
 378 82 378 82 401 63.5 c 128,-1,4
 424 45 424 45 450 30 c 0,5,6
 493 6 493 6 546.5 -7 c 128,-1,7
 600 -20 600 -20 662 -20 c 0,8,9
 764 -20 764 -20 843.5 22 c 128,-1,10
 923 64 923 64 977 138 c 256,11,12
 1031 212 1031 212 1059 312.5 c 128,-1,13
 1087 413 1087 413 1087 529 c 2,14,-1
 1087 550 l 2,15,16
 1087 671 1087 671 1059 772.5 c 128,-1,17
 1031 874 1031 874 977 947 c 256,18,19
 923 1020 923 1020 843 1061 c 128,-1,20
 763 1102 763 1102 659 1102 c 0,21,22
 600 1102 600 1102 548.5 1089.5 c 128,-1,23
 497 1077 497 1077 455 1053 c 0,24,25
 425 1037 425 1037 399 1014.5 c 128,-1,26
 373 992 373 992 351 964 c 1,27,-1
 342 1082 l 1,28,-1
 173 1082 l 1,29,-1
 173 -416 l 1,0,-1
902 550 m 2,30,-1
 902 529 l 2,31,32
 902 450 902 450 884.5 378 c 128,-1,33
 867 306 867 306 831 251 c 256,34,35
 795 196 795 196 739 163.5 c 128,-1,36
 683 131 683 131 606 131 c 0,37,38
 558 131 558 131 518.5 143 c 128,-1,39
 479 155 479 155 447 176 c 0,40,41
 419 194 419 194 397 220 c 128,-1,42
 375 246 375 246 358 276 c 1,43,-1
 358 797 l 1,44,45
 377 831 377 831 402 859 c 128,-1,46
 427 887 427 887 459 906 c 0,47,48
 488 925 488 925 524.5 935 c 128,-1,49
 561 945 561 945 604 945 c 0,50,51
 682 945 682 945 738 913 c 128,-1,52
 794 881 794 881 831 827 c 0,53,54
 867 772 867 772 884.5 700.5 c 128,-1,55
 902 629 902 629 902 550 c 2,30,-1
EndSplineSet
Substitution2: "'smcp' Lowercase to Small Capitals lookup 0 subtable" P.smcp
EndChar

StartChar: q
Encoding: 113 113 84
Width: 1229
GlyphClass: 1
Flags: W
LayerCount: 2
Fore
SplineSet
140 550 m 2,0,-1
 140 529 l 2,1,2
 140 413 140 413 169.5 312.5 c 128,-1,3
 199 212 199 212 255 138 c 256,4,5
 311 64 311 64 391.5 22 c 128,-1,6
 472 -20 472 -20 575 -20 c 0,7,8
 628 -20 628 -20 674 -10 c 128,-1,9
 720 0 720 0 759 19 c 0,10,11
 790 33 790 33 816.5 53 c 128,-1,12
 843 73 843 73 867 98 c 1,13,-1
 867 -416 l 1,14,-1
 1052 -416 l 1,15,-1
 1052 1082 l 1,16,-1
 882 1082 l 1,17,-1
 874 975 l 1,18,19
 853 999 853 999 829 1019 c 128,-1,20
 805 1039 805 1039 778 1054 c 0,21,22
 736 1078 736 1078 685.5 1090 c 128,-1,23
 635 1102 635 1102 577 1102 c 0,24,25
 473 1102 473 1102 391.5 1061 c 128,-1,26
 310 1020 310 1020 254 947 c 256,27,28
 198 874 198 874 169 772.5 c 128,-1,29
 140 671 140 671 140 550 c 2,0,-1
325 529 m 2,30,-1
 325 550 l 2,31,32
 325 629 325 629 342.5 701 c 128,-1,33
 360 773 360 773 397 829 c 0,34,35
 433 884 433 884 489 917 c 128,-1,36
 545 950 545 950 622 950 c 0,37,38
 665 950 665 950 701.5 939.5 c 128,-1,39
 738 929 738 929 769 910 c 0,40,41
 799 891 799 891 823.5 865.5 c 128,-1,42
 848 840 848 840 867 809 c 1,43,-1
 867 275 l 1,44,45
 847 242 847 242 822 214.5 c 128,-1,46
 797 187 797 187 765 168 c 0,47,48
 735 151 735 151 699 141 c 128,-1,49
 663 131 663 131 620 131 c 0,50,51
 543 131 543 131 487.5 163.5 c 128,-1,52
 432 196 432 196 396 251 c 256,53,54
 360 306 360 306 342.5 378 c 128,-1,55
 325 450 325 450 325 529 c 2,30,-1
EndSplineSet
Substitution2: "'smcp' Lowercase to Small Capitals lookup 0 subtable" Q.smcp
EndChar

StartChar: r
Encoding: 114 114 85
Width: 1229
GlyphClass: 1
Flags: W
LayerCount: 2
Fore
SplineSet
883 1102 m 0,0,1
 765 1102 765 1102 672.5 1050.5 c 128,-1,2
 580 999 580 999 514 910 c 1,3,-1
 513 937 l 1,4,-1
 505 1082 l 1,5,-1
 329 1082 l 1,6,-1
 329 0 l 1,7,-1
 515 0 l 1,8,-1
 515 694 l 1,9,10
 533 744 533 744 560.5 784.5 c 128,-1,11
 588 825 588 825 625 853 c 0,12,13
 666 885 666 885 721 901.5 c 128,-1,14
 776 918 776 918 844 918 c 0,15,16
 897 918 897 918 945.5 912.5 c 128,-1,17
 994 907 994 907 1048 895 c 1,18,-1
 1073 1076 l 1,19,20
 1045 1088 1045 1088 989.5 1095 c 128,-1,21
 934 1102 934 1102 883 1102 c 0,0,1
EndSplineSet
Substitution2: "'smcp' Lowercase to Small Capitals lookup 0 subtable" R.smcp
EndChar

StartChar: s
Encoding: 115 115 86
Width: 1229
GlyphClass: 1
Flags: W
LayerCount: 2
Fore
SplineSet
893 287 m 0,0,1
 893 261 893 261 883 238 c 128,-1,2
 873 215 873 215 854 196 c 0,3,4
 823 165 823 165 768 147.5 c 128,-1,5
 713 130 713 130 639 130 c 0,6,7
 592 130 592 130 544 140 c 128,-1,8
 496 150 496 150 457 174 c 0,9,10
 417 198 417 198 390.5 237 c 128,-1,11
 364 276 364 276 360 333 c 1,12,-1
 175 333 l 1,13,14
 175 264 175 264 206.5 200 c 128,-1,15
 238 136 238 136 298 88 c 0,16,17
 357 39 357 39 443 9.5 c 128,-1,18
 529 -20 529 -20 639 -20 c 0,19,20
 735 -20 735 -20 816 3 c 128,-1,21
 897 26 897 26 955 68 c 256,22,23
 1013 110 1013 110 1045.5 169 c 128,-1,24
 1078 228 1078 228 1078 300 c 0,25,26
 1078 367 1078 367 1049.5 418 c 128,-1,27
 1021 469 1021 469 967 508 c 0,28,29
 913 546 913 546 834 573.5 c 128,-1,30
 755 601 755 601 655 622 c 0,31,32
 579 637 579 637 529.5 653 c 128,-1,33
 480 669 480 669 451 689 c 0,34,35
 421 709 421 709 409 734 c 128,-1,36
 397 759 397 759 397 791 c 0,37,38
 397 822 397 822 412 851 c 128,-1,39
 427 880 427 880 457 902 c 0,40,41
 486 924 486 924 530.5 937 c 128,-1,42
 575 950 575 950 634 950 c 0,43,44
 691 950 691 950 736.5 934 c 128,-1,45
 782 918 782 918 814 892 c 256,46,47
 846 866 846 866 864 832.5 c 128,-1,48
 882 799 882 799 882 764 c 1,49,-1
 1067 764 l 1,50,51
 1067 835 1067 835 1036.5 896.5 c 128,-1,52
 1006 958 1006 958 950 1004 c 256,53,54
 894 1050 894 1050 814 1076 c 128,-1,55
 734 1102 734 1102 634 1102 c 0,56,57
 541 1102 541 1102 463.5 1077 c 128,-1,58
 386 1052 386 1052 330 1009 c 256,59,60
 274 966 274 966 243 908.5 c 128,-1,61
 212 851 212 851 212 785 c 0,62,63
 212 718 212 718 242 667.5 c 128,-1,64
 272 617 272 617 327 580 c 0,65,66
 381 542 381 542 457.5 515 c 128,-1,67
 534 488 534 488 627 469 c 0,68,69
 703 454 703 454 754 435.5 c 128,-1,70
 805 417 805 417 836 395 c 256,71,72
 867 373 867 373 880 346.5 c 128,-1,73
 893 320 893 320 893 287 c 0,0,1
EndSplineSet
Substitution2: "'smcp' Lowercase to Small Capitals lookup 0 subtable" S.smcp
EndChar

StartChar: t
Encoding: 116 116 87
Width: 1229
GlyphClass: 1
Flags: W
LayerCount: 2
Fore
SplineSet
612 1344 m 1,0,-1
 426 1344 l 1,1,-1
 426 1082 l 1,2,-1
 142 1082 l 1,3,-1
 142 939 l 1,4,-1
 426 939 l 1,5,-1
 426 351 l 2,6,7
 426 251 426 251 452.5 180.5 c 128,-1,8
 479 110 479 110 525 66 c 0,9,10
 571 21 571 21 633.5 0.5 c 128,-1,11
 696 -20 696 -20 768 -20 c 0,12,13
 811 -20 811 -20 854.5 -16 c 128,-1,14
 898 -12 898 -12 937 -4 c 0,15,16
 976 3 976 3 1009 13.5 c 128,-1,17
 1042 24 1042 24 1065 38 c 1,18,-1
 1039 169 l 1,19,20
 1022 165 1022 165 995.5 159.5 c 128,-1,21
 969 154 969 154 939 149 c 0,22,23
 908 144 908 144 876 140.5 c 128,-1,24
 844 137 844 137 814 137 c 0,25,26
 773 137 773 137 736.5 147 c 128,-1,27
 700 157 700 157 672 182 c 0,28,29
 644 206 644 206 628 247 c 128,-1,30
 612 288 612 288 612 351 c 2,31,-1
 612 939 l 1,32,-1
 1024 939 l 1,33,-1
 1024 1082 l 1,34,-1
 612 1082 l 1,35,-1
 612 1344 l 1,0,-1
EndSplineSet
Substitution2: "'smcp' Lowercase to Small Capitals lookup 0 subtable" T.smcp
EndChar

StartChar: u
Encoding: 117 117 88
Width: 1229
GlyphClass: 1
Flags: W
LayerCount: 2
Fore
SplineSet
887 0 m 1,0,-1
 1055 0 l 1,1,-1
 1055 1082 l 1,2,-1
 869 1082 l 1,3,-1
 869 306 l 1,4,5
 854 271 854 271 831.5 241.5 c 128,-1,6
 809 212 809 212 779 191 c 0,7,8
 743 165 743 165 694 150.5 c 128,-1,9
 645 136 645 136 583 136 c 0,10,11
 530 136 530 136 489.5 150 c 128,-1,12
 449 164 449 164 421 199 c 0,13,14
 393 233 393 233 379 291 c 128,-1,15
 365 349 365 349 365 437 c 2,16,-1
 365 1082 l 1,17,-1
 180 1082 l 1,18,-1
 180 439 l 2,19,20
 180 318 180 318 206.5 231.5 c 128,-1,21
 233 145 233 145 282 89 c 256,22,23
 331 33 331 33 400 6.5 c 128,-1,24
 469 -20 469 -20 554 -20 c 0,25,26
 660 -20 660 -20 741 24.5 c 128,-1,27
 822 69 822 69 876 149 c 1,28,-1
 887 0 l 1,0,-1
EndSplineSet
Substitution2: "'smcp' Lowercase to Small Capitals lookup 0 subtable" U.smcp
EndChar

StartChar: v
Encoding: 118 118 89
Width: 1229
GlyphClass: 1
Flags: W
LayerCount: 2
Fore
SplineSet
543 0 m 1,0,-1
 684 0 l 1,1,-1
 1125 1082 l 1,2,-1
 936 1082 l 1,3,-1
 633 266 l 1,4,-1
 615 199 l 1,5,-1
 598 266 l 1,6,-1
 288 1082 l 1,7,-1
 98 1082 l 1,8,-1
 543 0 l 1,0,-1
EndSplineSet
Substitution2: "'smcp' Lowercase to Small Capitals lookup 0 subtable" V.smcp
EndChar

StartChar: w
Encoding: 119 119 90
Width: 1229
GlyphClass: 1
Flags: W
LayerCount: 2
Fore
SplineSet
278 0 m 1,0,-1
 424 0 l 1,1,-1
 591 663 l 1,2,-1
 618 831 l 1,3,-1
 646 663 l 1,4,-1
 815 0 l 1,5,-1
 961 0 l 1,6,-1
 1191 1082 l 1,7,-1
 1027 1082 l 1,8,-1
 907 392 l 1,9,-1
 880 222 l 1,10,-1
 851 392 l 1,11,-1
 679 1082 l 1,12,-1
 560 1082 l 1,13,-1
 387 392 l 1,14,-1
 360 237 l 1,15,-1
 338 392 l 1,16,-1
 212 1082 l 1,17,-1
 48 1082 l 1,18,-1
 278 0 l 1,0,-1
EndSplineSet
Substitution2: "'smcp' Lowercase to Small Capitals lookup 0 subtable" W.smcp
EndChar

StartChar: x
Encoding: 120 120 91
Width: 1229
GlyphClass: 1
Flags: W
LayerCount: 2
Fore
SplineSet
621 681 m 1,0,-1
 335 1082 l 1,1,-1
 121 1082 l 1,2,-1
 524 547 l 1,3,-1
 110 0 l 1,4,-1
 326 0 l 1,5,-1
 625 412 l 1,6,-1
 924 0 l 1,7,-1
 1138 0 l 1,8,-1
 724 547 l 1,9,-1
 1127 1082 l 1,10,-1
 910 1082 l 1,11,-1
 621 681 l 1,0,-1
EndSplineSet
Substitution2: "'smcp' Lowercase to Small Capitals lookup 0 subtable" X.smcp
EndChar

StartChar: y
Encoding: 121 121 92
Width: 1229
GlyphClass: 1
Flags: W
LayerCount: 2
Fore
SplineSet
261 -437 m 0,0,1
 334 -437 334 -437 390 -410 c 128,-1,2
 446 -383 446 -383 488 -343 c 256,3,4
 530 -303 530 -303 559.5 -256 c 128,-1,5
 589 -209 589 -209 608 -167 c 2,6,-1
 1157 1082 l 1,7,-1
 950 1082 l 1,8,-1
 671 380 l 1,9,-1
 620 253 l 1,10,-1
 572 384 l 1,11,-1
 275 1082 l 1,12,-1
 68 1082 l 1,13,-1
 534 51 l 1,14,-1
 460 -93 l 2,15,16
 450 -113 450 -113 432.5 -144 c 128,-1,17
 415 -175 415 -175 391 -204 c 0,18,19
 366 -233 366 -233 334.5 -254 c 128,-1,20
 303 -275 303 -275 265 -275 c 0,21,22
 251 -275 251 -275 226.5 -273.5 c 128,-1,23
 202 -272 202 -272 177 -270 c 1,24,-1
 147 -421 l 1,25,26
 165 -425 165 -425 200 -431 c 128,-1,27
 235 -437 235 -437 261 -437 c 0,0,1
EndSplineSet
Substitution2: "'smcp' Lowercase to Small Capitals lookup 0 subtable" Y.smcp
EndChar

StartChar: z
Encoding: 122 122 93
Width: 1229
GlyphClass: 1
Flags: W
LayerCount: 2
Fore
SplineSet
396 151 m 1,0,-1
 1049 951 l 1,1,-1
 1049 1082 l 1,2,-1
 169 1082 l 1,3,-1
 169 929 l 1,4,-1
 806 929 l 1,5,-1
 160 136 l 1,6,-1
 160 0 l 1,7,-1
 1085 0 l 1,8,-1
 1085 151 l 1,9,-1
 396 151 l 1,0,-1
EndSplineSet
Substitution2: "'smcp' Lowercase to Small Capitals lookup 0 subtable" Z.smcp
EndChar

StartChar: braceleft
Encoding: 123 123 94
Width: 1229
GlyphClass: 1
Flags: W
LayerCount: 2
Fore
SplineSet
978 -366 m 1,0,-1
 999 -251 l 1,1,2
 937 -249 937 -249 896.5 -217 c 128,-1,3
 856 -185 856 -185 832 -135 c 0,4,5
 807 -86 807 -86 797 -24.5 c 128,-1,6
 787 37 787 37 787 99 c 2,7,-1
 787 268 l 2,8,9
 786 387 786 387 731 477.5 c 128,-1,10
 676 568 676 568 560 614 c 1,11,12
 676 661 676 661 731.5 751.5 c 128,-1,13
 787 842 787 842 787 962 c 2,14,-1
 787 1132 l 2,15,16
 787 1193 787 1193 793 1255 c 128,-1,17
 799 1317 799 1317 821 1367 c 0,18,19
 842 1416 842 1416 884.5 1448 c 128,-1,20
 927 1480 927 1480 999 1482 c 1,21,-1
 978 1597 l 1,22,23
 877 1594 877 1594 806 1553.5 c 128,-1,24
 735 1513 735 1513 691 1449 c 0,25,26
 644 1382 644 1382 622.5 1297.5 c 128,-1,27
 601 1213 601 1213 601 1132 c 2,28,-1
 601 962 l 2,29,30
 601 817 601 817 532.5 752.5 c 128,-1,31
 464 688 464 688 323 688 c 1,32,-1
 323 543 l 1,33,34
 464 542 464 542 532.5 477 c 128,-1,35
 601 412 601 412 601 268 c 2,36,-1
 601 99 l 2,37,38
 601 19 601 19 624 -62.5 c 128,-1,39
 647 -144 647 -144 692 -210 c 0,40,41
 739 -279 739 -279 810 -321 c 128,-1,42
 881 -363 881 -363 978 -366 c 1,0,-1
EndSplineSet
EndChar

StartChar: bar
Encoding: 124 124 95
Width: 1229
GlyphClass: 1
Flags: W
LayerCount: 2
Fore
SplineSet
689 -398 m 1,0,-1
 689 1456 l 1,1,-1
 540 1456 l 1,2,-1
 540 -398 l 1,3,-1
 689 -398 l 1,0,-1
EndSplineSet
EndChar

StartChar: braceright
Encoding: 125 125 96
Width: 1229
GlyphClass: 1
Flags: W
LayerCount: 2
Fore
SplineSet
323 -251 m 1,0,-1
 344 -366 l 1,1,2
 442 -364 442 -364 513 -321 c 128,-1,3
 584 -278 584 -278 631 -211 c 0,4,5
 677 -144 677 -144 699 -62.5 c 128,-1,6
 721 19 721 19 721 99 c 2,7,-1
 721 268 l 2,8,9
 721 338 721 338 737 389 c 128,-1,10
 753 440 753 440 786 474 c 0,11,12
 820 509 820 509 873.5 525.5 c 128,-1,13
 927 542 927 542 999 543 c 1,14,-1
 999 688 l 1,15,16
 917 688 917 688 858.5 709.5 c 128,-1,17
 800 731 800 731 767 778 c 0,18,19
 744 811 744 811 732.5 856.5 c 128,-1,20
 721 902 721 902 721 962 c 2,21,-1
 721 1132 l 2,22,23
 721 1216 721 1216 698.5 1302 c 128,-1,24
 676 1388 676 1388 625 1457 c 0,25,26
 580 1518 580 1518 510.5 1556 c 128,-1,27
 441 1594 441 1594 344 1597 c 1,28,-1
 324 1482 l 1,29,30
 396 1480 396 1480 438 1448 c 128,-1,31
 480 1416 480 1416 502 1367 c 0,32,33
 523 1317 523 1317 529.5 1255 c 128,-1,34
 536 1193 536 1193 536 1132 c 2,35,-1
 536 962 l 2,36,37
 536 884 536 884 559 817.5 c 128,-1,38
 582 751 582 751 630 701 c 0,39,40
 655 674 655 674 688.5 652 c 128,-1,41
 722 630 722 630 762 614 c 1,42,43
 723 598 723 598 690.5 577 c 128,-1,44
 658 556 658 556 632 530 c 0,45,46
 583 481 583 481 559.5 414 c 128,-1,47
 536 347 536 347 536 268 c 2,48,-1
 536 99 l 2,49,50
 536 37 536 37 525.5 -24.5 c 128,-1,51
 515 -86 515 -86 491 -135 c 0,52,53
 466 -185 466 -185 425 -217 c 128,-1,54
 384 -249 384 -249 323 -251 c 1,0,-1
EndSplineSet
EndChar

StartChar: asciitilde
Encoding: 126 126 97
Width: 1229
GlyphClass: 1
Flags: W
LayerCount: 2
Fore
SplineSet
1180 740 m 1,0,-1
 1046 758 l 1,1,2
 1046 720 1046 720 1033 685 c 128,-1,3
 1020 650 1020 650 998 624 c 0,4,5
 975 597 975 597 944.5 581 c 128,-1,6
 914 565 914 565 879 565 c 0,7,8
 849 564 849 564 821 571.5 c 128,-1,9
 793 579 793 579 766 594 c 0,10,11
 743 606 743 606 719 623.5 c 128,-1,12
 695 641 695 641 669 663 c 0,13,14
 630 695 630 695 592.5 721 c 128,-1,15
 555 747 555 747 516 765 c 256,16,17
 477 783 477 783 435.5 792.5 c 128,-1,18
 394 802 394 802 348 802 c 0,19,20
 281 802 281 802 226 775.5 c 128,-1,21
 171 749 171 749 132 704 c 0,22,23
 92 659 92 659 70 599 c 128,-1,24
 48 539 48 539 48 473 c 1,25,-1
 182 456 l 1,26,27
 182 494 182 494 195 527.5 c 128,-1,28
 208 561 208 561 230 586 c 0,29,30
 252 610 252 610 282.5 624.5 c 128,-1,31
 313 639 313 639 348 639 c 0,32,33
 371 639 371 639 392.5 635 c 128,-1,34
 414 631 414 631 435 622 c 0,35,36
 465 610 465 610 495.5 589.5 c 128,-1,37
 526 569 526 569 559 542 c 0,38,39
 599 508 599 508 636.5 482 c 128,-1,40
 674 456 674 456 713 438 c 0,41,42
 751 420 751 420 791.5 411 c 128,-1,43
 832 402 832 402 879 402 c 0,44,45
 946 402 946 402 1001 430 c 128,-1,46
 1056 458 1056 458 1096 505 c 256,47,48
 1136 552 1136 552 1158 613 c 128,-1,49
 1180 674 1180 674 1180 740 c 1,0,-1
EndSplineSet
EndChar

StartChar: exclamdown
Encoding: 161 161 99
Width: 1229
GlyphClass: 1
Flags: W
LayerCount: 2
Fore
SplineSet
522 611 m 1,0,-1
 522 -372 l 1,1,-1
 707 -372 l 1,2,-1
 707 611 l 1,3,-1
 522 611 l 1,0,-1
728 990 m 0,4,5
 728 1038 728 1038 698.5 1070.5 c 128,-1,6
 669 1103 669 1103 613 1103 c 0,7,8
 556 1103 556 1103 527 1070.5 c 128,-1,9
 498 1038 498 1038 498 990 c 0,10,11
 498 944 498 944 527 912.5 c 128,-1,12
 556 881 556 881 613 881 c 0,13,14
 669 881 669 881 698.5 912.5 c 128,-1,15
 728 944 728 944 728 990 c 0,4,5
EndSplineSet
EndChar

StartChar: cent
Encoding: 162 162 100
Width: 1229
GlyphClass: 1
Flags: W
LayerCount: 2
Fore
SplineSet
639 130 m 0,0,1
 552 130 552 130 493.5 164.5 c 128,-1,2
 435 199 435 199 400 255 c 0,3,4
 364 310 364 310 348.5 379.5 c 128,-1,5
 333 449 333 449 333 520 c 2,6,-1
 333 562 l 2,7,8
 333 632 333 632 348.5 701 c 128,-1,9
 364 770 364 770 400 826 c 0,10,11
 436 881 436 881 494.5 915.5 c 128,-1,12
 553 950 553 950 639 950 c 0,13,14
 695 950 695 950 743.5 931 c 128,-1,15
 792 912 792 912 827 879 c 256,16,17
 862 846 862 846 882.5 802.5 c 128,-1,18
 903 759 903 759 904 710 c 1,19,-1
 1079 710 l 1,20,21
 1079 783 1079 783 1052.5 848 c 128,-1,22
 1026 913 1026 913 978 964 c 256,23,24
 930 1015 930 1015 864 1049.5 c 128,-1,25
 798 1084 798 1084 718 1096 c 1,26,-1
 718 1318 l 1,27,-1
 533 1318 l 1,28,-1
 533 1092 l 1,29,30
 437 1074 437 1074 364.5 1024.5 c 128,-1,31
 292 975 292 975 244 904 c 0,32,33
 196 832 196 832 171.5 744.5 c 128,-1,34
 147 657 147 657 147 562 c 2,35,-1
 147 520 l 2,36,37
 147 425 147 425 171.5 337 c 128,-1,38
 196 249 196 249 244 178 c 256,39,40
 292 107 292 107 364.5 57.5 c 128,-1,41
 437 8 437 8 533 -10 c 1,42,-1
 533 -245 l 1,43,-1
 718 -245 l 1,44,-1
 718 -13 l 1,45,46
 791 -1 791 -1 856.5 32 c 128,-1,47
 922 65 922 65 971 113 c 0,48,49
 1020 160 1020 160 1049 218.5 c 128,-1,50
 1078 277 1078 277 1079 341 c 1,51,-1
 904 341 l 1,52,53
 903 296 903 296 880.5 257.5 c 128,-1,54
 858 219 858 219 821 191 c 0,55,56
 784 162 784 162 736.5 146 c 128,-1,57
 689 130 689 130 639 130 c 0,0,1
EndSplineSet
EndChar

StartChar: sterling
Encoding: 163 163 101
Width: 1229
GlyphClass: 1
Flags: W
LayerCount: 2
Fore
SplineSet
463 626 m 1,0,-1
 778 626 l 1,1,-1
 778 778 l 1,2,-1
 458 778 l 1,3,-1
 450 1039 l 2,4,5
 450 1106 450 1106 468.5 1159.5 c 128,-1,6
 487 1213 487 1213 519 1250 c 0,7,8
 551 1286 551 1286 595.5 1305.5 c 128,-1,9
 640 1325 640 1325 691 1325 c 0,10,11
 739 1325 739 1325 782.5 1311.5 c 128,-1,12
 826 1298 826 1298 860 1270 c 0,13,14
 893 1241 893 1241 912.5 1196.5 c 128,-1,15
 932 1152 932 1152 932 1089 c 1,16,-1
 1118 1089 l 1,17,18
 1118 1176 1118 1176 1090 1247 c 128,-1,19
 1062 1318 1062 1318 1010 1369 c 0,20,21
 957 1420 957 1420 881 1448 c 128,-1,22
 805 1476 805 1476 709 1476 c 256,23,24
 613 1476 613 1476 531 1446 c 128,-1,25
 449 1416 449 1416 390 1360 c 0,26,27
 331 1303 331 1303 297.5 1222 c 128,-1,28
 264 1141 264 1141 264 1039 c 2,29,-1
 273 778 l 1,30,-1
 113 778 l 1,31,-1
 113 626 l 1,32,-1
 278 626 l 1,33,-1
 286 400 l 2,34,35
 286 368 286 368 282 327.5 c 128,-1,36
 278 287 278 287 267 251 c 0,37,38
 256 214 256 214 237.5 186 c 128,-1,39
 219 158 219 158 192 151 c 1,40,-1
 117 151 l 1,41,-1
 117 0 l 1,42,-1
 1147 0 l 1,43,-1
 1148 151 l 1,44,-1
 410 151 l 1,45,46
 423 170 423 170 432.5 192 c 128,-1,47
 442 214 442 214 449 238 c 0,48,49
 460 275 460 275 465.5 316.5 c 128,-1,50
 471 358 471 358 471 400 c 2,51,-1
 463 626 l 1,0,-1
EndSplineSet
EndChar

StartChar: currency
Encoding: 164 164 102
Width: 1229
GlyphClass: 1
Flags: W
LayerCount: 2
Fore
SplineSet
931 84 m 1,0,-1
 1038 -27 l 1,1,-1
 1170 109 l 1,2,-1
 1054 228 l 1,3,4
 1090 290 1090 290 1110 362.5 c 128,-1,5
 1130 435 1130 435 1130 515 c 0,6,7
 1130 600 1130 600 1108 676 c 128,-1,8
 1086 752 1086 752 1046 816 c 1,9,-1
 1170 944 l 1,10,-1
 1038 1080 l 1,11,-1
 918 955 l 1,12,13
 858 1000 858 1000 786 1024.5 c 128,-1,14
 714 1049 714 1049 634 1049 c 256,15,16
 554 1049 554 1049 482.5 1025 c 128,-1,17
 411 1001 411 1001 351 957 c 1,18,-1
 234 1079 l 1,19,-1
 103 944 l 1,20,-1
 223 820 l 1,21,22
 181 755 181 755 159 678 c 128,-1,23
 137 601 137 601 137 515 c 0,24,25
 137 434 137 434 157 360.5 c 128,-1,26
 177 287 177 287 215 224 c 1,27,-1
 103 109 l 1,28,-1
 234 -26 l 1,29,-1
 338 82 l 1,30,31
 400 34 400 34 474.5 7 c 128,-1,32
 549 -20 549 -20 634 -20 c 256,33,34
 719 -20 719 -20 794 7 c 128,-1,35
 869 34 869 34 931 84 c 1,0,-1
309 515 m 256,36,37
 309 589 309 589 334 655 c 128,-1,38
 359 721 359 721 403 771 c 0,39,40
 446 820 446 820 505.5 849 c 128,-1,41
 565 878 565 878 634 878 c 256,42,43
 703 878 703 878 762 849 c 128,-1,44
 821 820 821 820 865 771 c 0,45,46
 908 721 908 721 932.5 655 c 128,-1,47
 957 589 957 589 957 515 c 256,48,49
 957 441 957 441 932.5 375 c 128,-1,50
 908 309 908 309 865 260 c 0,51,52
 821 210 821 210 762 180.5 c 128,-1,53
 703 151 703 151 634 151 c 256,54,55
 565 151 565 151 505.5 180.5 c 128,-1,56
 446 210 446 210 403 260 c 0,57,58
 359 309 359 309 334 375 c 128,-1,59
 309 441 309 441 309 515 c 256,36,37
EndSplineSet
EndChar

StartChar: yen
Encoding: 165 165 103
Width: 1229
GlyphClass: 1
Flags: W
LayerCount: 2
Fore
SplineSet
518 0 m 1,0,-1
 703 0 l 1,1,-1
 703 326 l 1,2,-1
 1092 326 l 1,3,-1
 1092 446 l 1,4,-1
 703 446 l 1,5,-1
 703 615 l 1,6,-1
 1092 615 l 1,7,-1
 1092 736 l 1,8,-1
 774 736 l 1,9,-1
 1195 1456 l 1,10,-1
 983 1456 l 1,11,-1
 661 865 l 1,12,-1
 615 780 l 1,13,-1
 613 780 l 1,14,-1
 567 866 l 1,15,-1
 245 1456 l 1,16,-1
 33 1456 l 1,17,-1
 454 736 l 1,18,-1
 138 736 l 1,19,-1
 138 615 l 1,20,-1
 518 615 l 1,21,-1
 518 446 l 1,22,-1
 138 446 l 1,23,-1
 138 326 l 1,24,-1
 518 326 l 1,25,-1
 518 0 l 1,0,-1
EndSplineSet
EndChar

StartChar: brokenbar
Encoding: 166 166 104
Width: 1229
GlyphClass: 1
Flags: W
LayerCount: 2
Fore
SplineSet
511 -270 m 1,0,-1
 696 -270 l 1,1,-1
 696 521 l 1,2,-1
 511 521 l 1,3,-1
 511 -270 l 1,0,-1
696 698 m 1,4,-1
 696 1456 l 1,5,-1
 511 1456 l 1,6,-1
 511 698 l 1,7,-1
 696 698 l 1,4,-1
EndSplineSet
EndChar

StartChar: section
Encoding: 167 167 105
Width: 1229
GlyphClass: 1
Flags: W
LayerCount: 2
Fore
SplineSet
1140 431 m 0,0,1
 1140 525 1140 525 1107.5 591.5 c 128,-1,2
 1075 658 1075 658 1014 706 c 0,3,4
 983 730 983 730 946 750.5 c 128,-1,5
 909 771 909 771 866 789 c 256,6,7
 823 807 823 807 774.5 823 c 128,-1,8
 726 839 726 839 672 854 c 0,9,10
 625 867 625 867 585.5 879 c 128,-1,11
 546 891 546 891 513 903 c 0,12,13
 477 917 477 917 448 931 c 128,-1,14
 419 945 419 945 398 960 c 0,15,16
 357 988 357 988 340 1024 c 128,-1,17
 323 1060 323 1060 323 1112 c 0,18,19
 323 1157 323 1157 342 1196 c 128,-1,20
 361 1235 361 1235 400 1264 c 0,21,22
 438 1292 438 1292 494.5 1308.5 c 128,-1,23
 551 1325 551 1325 626 1325 c 0,24,25
 699 1325 699 1325 756.5 1303 c 128,-1,26
 814 1281 814 1281 853 1244 c 0,27,28
 892 1206 892 1206 912.5 1154.5 c 128,-1,29
 933 1103 933 1103 933 1045 c 1,30,-1
 1118 1045 l 1,31,32
 1118 1149 1118 1149 1083.5 1229.5 c 128,-1,33
 1049 1310 1049 1310 986 1365 c 0,34,35
 922 1419 922 1419 831 1447.5 c 128,-1,36
 740 1476 740 1476 626 1476 c 0,37,38
 517 1476 517 1476 427 1450.5 c 128,-1,39
 337 1425 337 1425 273 1377 c 256,40,41
 209 1329 209 1329 173.5 1261.5 c 128,-1,42
 138 1194 138 1194 138 1110 c 0,43,44
 138 1045 138 1045 153 994 c 128,-1,45
 168 943 168 943 197 902 c 0,46,47
 213 881 213 881 232.5 861.5 c 128,-1,48
 252 842 252 842 275 825 c 1,49,50
 245 810 245 810 218.5 792 c 128,-1,51
 192 774 192 774 172 753 c 0,52,53
 134 713 134 713 113.5 662.5 c 128,-1,54
 93 612 93 612 93 551 c 0,55,56
 93 456 93 456 126 389 c 128,-1,57
 159 322 159 322 220 273 c 0,58,59
 253 246 253 246 294.5 224 c 128,-1,60
 336 202 336 202 383 183 c 0,61,62
 442 159 442 159 512 139.5 c 128,-1,63
 582 120 582 120 642 100 c 0,64,65
 705 79 705 79 752 59 c 128,-1,66
 799 39 799 39 831 17 c 0,67,68
 873 -12 873 -12 892 -47 c 128,-1,69
 911 -82 911 -82 911 -130 c 0,70,71
 911 -177 911 -177 890 -216 c 128,-1,72
 869 -255 869 -255 830 -283 c 0,73,74
 790 -311 790 -311 734 -327 c 128,-1,75
 678 -343 678 -343 608 -343 c 0,76,77
 548 -343 548 -343 488 -328.5 c 128,-1,78
 428 -314 428 -314 380 -280 c 0,79,80
 332 -247 332 -247 302 -193.5 c 128,-1,81
 272 -140 272 -140 272 -62 c 1,82,-1
 87 -64 l 1,83,84
 87 -184 87 -184 132 -266.5 c 128,-1,85
 177 -349 177 -349 250 -399 c 0,86,87
 323 -450 323 -450 416.5 -472.5 c 128,-1,88
 510 -495 510 -495 608 -495 c 0,89,90
 717 -495 717 -495 806.5 -470.5 c 128,-1,91
 896 -446 896 -446 961 -399 c 0,92,93
 1025 -352 1025 -352 1060.5 -284 c 128,-1,94
 1096 -216 1096 -216 1096 -128 c 0,95,96
 1096 -70 1096 -70 1083.5 -23 c 128,-1,97
 1071 24 1071 24 1047 61 c 0,98,99
 1030 89 1030 89 1006.5 112.5 c 128,-1,100
 983 136 983 136 954 156 c 1,101,102
 983 169 983 169 1008.5 186 c 128,-1,103
 1034 203 1034 203 1055 222 c 0,104,105
 1096 262 1096 262 1118 314 c 128,-1,106
 1140 366 1140 366 1140 431 c 0,0,1
598 691 m 0,107,108
 650 675 650 675 693.5 660.5 c 128,-1,109
 737 646 737 646 773 631 c 0,110,111
 803 619 803 619 828 606 c 128,-1,112
 853 593 853 593 873 579 c 0,113,114
 916 549 916 549 936 512.5 c 128,-1,115
 956 476 956 476 956 428 c 0,116,117
 955 388 955 388 941 354.5 c 128,-1,118
 927 321 927 321 901 296 c 0,119,120
 881 276 881 276 853.5 261.5 c 128,-1,121
 826 247 826 247 793 238 c 1,122,123
 756 252 756 252 716 264 c 128,-1,124
 676 276 676 276 632 289 c 0,125,126
 570 306 570 306 520 322 c 128,-1,127
 470 338 470 338 432 355 c 0,128,129
 347 392 347 392 312.5 436 c 128,-1,130
 278 480 278 480 278 553 c 0,131,132
 278 594 278 594 291 628 c 128,-1,133
 304 662 304 662 330 688 c 0,134,135
 349 707 349 707 375.5 720.5 c 128,-1,136
 402 734 402 734 435 742 c 1,137,138
 472 728 472 728 512.5 715.5 c 128,-1,139
 553 703 553 703 598 691 c 0,107,108
EndSplineSet
EndChar

StartChar: dieresis
Encoding: 168 168 106
Width: 1229
GlyphClass: 1
Flags: W
LayerCount: 2
Fore
SplineSet
287 1371 m 256,0,1
 287 1326 287 1326 314.5 1296 c 128,-1,2
 342 1266 342 1266 396 1266 c 256,3,4
 450 1266 450 1266 478 1296 c 128,-1,5
 506 1326 506 1326 506 1371 c 256,6,7
 506 1416 506 1416 478 1446.5 c 128,-1,8
 450 1477 450 1477 396 1477 c 256,9,10
 342 1477 342 1477 314.5 1446.5 c 128,-1,11
 287 1416 287 1416 287 1371 c 256,0,1
717 1369 m 0,12,13
 717 1325 717 1325 744.5 1294.5 c 128,-1,14
 772 1264 772 1264 826 1264 c 256,15,16
 880 1264 880 1264 908 1294.5 c 128,-1,17
 936 1325 936 1325 936 1369 c 0,18,19
 936 1414 936 1414 908 1445 c 128,-1,20
 880 1476 880 1476 826 1476 c 256,21,22
 772 1476 772 1476 744.5 1445 c 128,-1,23
 717 1414 717 1414 717 1369 c 0,12,13
EndSplineSet
EndChar

StartChar: copyright
Encoding: 169 169 107
Width: 1229
GlyphClass: 1
Flags: W
LayerCount: 2
Fore
SplineSet
862 443 m 1,0,-1
 752 443 l 1,1,2
 752 408 752 408 744 382.5 c 128,-1,3
 736 357 736 357 720 340 c 0,4,5
 704 322 704 322 677 313.5 c 128,-1,6
 650 305 650 305 613 305 c 0,7,8
 575 305 575 305 546.5 320 c 128,-1,9
 518 335 518 335 499 361 c 256,10,11
 480 387 480 387 471 422 c 128,-1,12
 462 457 462 457 462 498 c 2,13,-1
 462 586 l 2,14,15
 462 626 462 626 471 661.5 c 128,-1,16
 480 697 480 697 499 723 c 0,17,18
 518 748 518 748 546.5 763 c 128,-1,19
 575 778 575 778 613 778 c 0,20,21
 650 778 650 778 677 769.5 c 128,-1,22
 704 761 704 761 721 743 c 0,23,24
 737 726 737 726 745 700.5 c 128,-1,25
 753 675 753 675 753 641 c 1,26,-1
 863 641 l 1,27,28
 863 695 863 695 848 737 c 128,-1,29
 833 779 833 779 805 809 c 0,30,31
 773 842 773 842 724.5 859 c 128,-1,32
 676 876 676 876 613 876 c 0,33,34
 551 876 551 876 503 854 c 128,-1,35
 455 832 455 832 422 793 c 256,36,37
 389 754 389 754 371 700.5 c 128,-1,38
 353 647 353 647 353 585 c 2,39,-1
 353 498 l 2,40,41
 353 435 353 435 371 382 c 128,-1,42
 389 329 389 329 422 291 c 0,43,44
 455 252 455 252 503 230 c 128,-1,45
 551 208 551 208 613 208 c 256,46,47
 675 208 675 208 723 224.5 c 128,-1,48
 771 241 771 241 803 273 c 0,49,50
 832 302 832 302 847 345 c 128,-1,51
 862 388 862 388 862 443 c 1,0,-1
177 542 m 0,52,53
 177 639 177 639 211 724.5 c 128,-1,54
 245 810 245 810 305 874 c 256,55,56
 365 938 365 938 446.5 974.5 c 128,-1,57
 528 1011 528 1011 623 1011 c 0,58,59
 717 1011 717 1011 798.5 974.5 c 128,-1,60
 880 938 880 938 940 874 c 256,61,62
 1000 810 1000 810 1034 724.5 c 128,-1,63
 1068 639 1068 639 1068 542 c 0,64,65
 1068 444 1068 444 1034 358 c 128,-1,66
 1000 272 1000 272 940 208 c 0,67,68
 880 143 880 143 798.5 105.5 c 128,-1,69
 717 68 717 68 623 68 c 0,70,71
 528 68 528 68 446.5 105 c 128,-1,72
 365 142 365 142 305 207 c 0,73,74
 245 271 245 271 211 357.5 c 128,-1,75
 177 444 177 444 177 542 c 0,52,53
90 542 m 0,76,77
 90 425 90 425 131 322.5 c 128,-1,78
 172 220 172 220 244 144 c 0,79,80
 315 67 315 67 412.5 23 c 128,-1,81
 510 -21 510 -21 623 -21 c 256,82,83
 736 -21 736 -21 833 23 c 128,-1,84
 930 67 930 67 1002 144 c 0,85,86
 1073 220 1073 220 1114 322.5 c 128,-1,87
 1155 425 1155 425 1155 542 c 256,88,89
 1155 659 1155 659 1114 761 c 128,-1,90
 1073 863 1073 863 1002 939 c 0,91,92
 930 1014 930 1014 833 1058 c 128,-1,93
 736 1102 736 1102 623 1102 c 0,94,95
 516 1102 516 1102 419 1060.5 c 128,-1,96
 322 1019 322 1019 250 945 c 0,97,98
 177 871 177 871 134 767.5 c 128,-1,99
 91 664 91 664 90 542 c 0,76,77
EndSplineSet
EndChar

StartChar: ordfeminine
Encoding: 170 170 108
Width: 1229
GlyphClass: 1
Flags: W
LayerCount: 2
Fore
SplineSet
780 705 m 1,0,-1
 945 705 l 1,1,2
 931 750 931 750 925 794 c 128,-1,3
 919 838 919 838 919 886 c 2,4,-1
 919 1200 l 2,5,6
 919 1268 919 1268 898 1320 c 128,-1,7
 877 1372 877 1372 840 1407 c 0,8,9
 802 1441 802 1441 748.5 1458.5 c 128,-1,10
 695 1476 695 1476 630 1476 c 0,11,12
 561 1476 561 1476 504 1459 c 128,-1,13
 447 1442 447 1442 407 1411 c 0,14,15
 366 1380 366 1380 343.5 1337 c 128,-1,16
 321 1294 321 1294 320 1243 c 1,17,-1
 481 1231 l 1,18,19
 481 1254 481 1254 490 1272.5 c 128,-1,20
 499 1291 499 1291 515 1304 c 0,21,22
 534 1320 534 1320 563.5 1328 c 128,-1,23
 593 1336 593 1336 630 1336 c 0,24,25
 661 1336 661 1336 684 1327.5 c 128,-1,26
 707 1319 707 1319 723 1303 c 0,27,28
 739 1286 739 1286 747 1260 c 128,-1,29
 755 1234 755 1234 756 1201 c 2,30,-1
 756 1149 l 1,31,-1
 615 1149 l 2,32,33
 538 1149 538 1149 476.5 1134.5 c 128,-1,34
 415 1120 415 1120 373 1092 c 0,35,36
 330 1063 330 1063 307 1019 c 128,-1,37
 284 975 284 975 284 918 c 0,38,39
 284 866 284 866 300 824.5 c 128,-1,40
 316 783 316 783 347 754 c 0,41,42
 379 724 379 724 426 707.5 c 128,-1,43
 473 691 473 691 533 691 c 0,44,45
 581 692 581 692 620 704 c 128,-1,46
 659 716 659 716 689 735 c 0,47,48
 711 749 711 749 728.5 766.5 c 128,-1,49
 746 784 746 784 759 802 c 1,50,51
 762 776 762 776 767.5 751.5 c 128,-1,52
 773 727 773 727 780 705 c 1,0,-1
572 828 m 0,53,54
 537 828 537 828 511.5 836 c 128,-1,55
 486 844 486 844 470 859 c 0,56,57
 458 870 458 870 452 886 c 128,-1,58
 446 902 446 902 446 922 c 0,59,60
 446 944 446 944 455 963 c 128,-1,61
 464 982 464 982 482 997 c 0,62,63
 503 1015 503 1015 537.5 1026 c 128,-1,64
 572 1037 572 1037 616 1037 c 2,65,-1
 756 1037 l 1,66,-1
 756 928 l 1,67,68
 748 910 748 910 728.5 892 c 128,-1,69
 709 874 709 874 684 860 c 0,70,71
 658 845 658 845 628.5 836.5 c 128,-1,72
 599 828 599 828 572 828 c 0,53,54
EndSplineSet
EndChar

StartChar: logicalnot
Encoding: 172 172 110
Width: 1229
GlyphClass: 1
Flags: W
LayerCount: 2
Fore
SplineSet
1019 375 m 1,0,-1
 1019 800 l 1,1,-1
 189 800 l 1,2,-1
 189 639 l 1,3,-1
 834 639 l 1,4,-1
 834 375 l 1,5,-1
 1019 375 l 1,0,-1
EndSplineSet
EndChar

StartChar: registered
Encoding: 174 174 112
Width: 1229
GlyphClass: 1
Flags: W
LayerCount: 2
Fore
SplineSet
87 540 m 256,0,1
 87 423 87 423 128 320.5 c 128,-1,2
 169 218 169 218 241 143 c 0,3,4
 312 67 312 67 409.5 23 c 128,-1,5
 507 -21 507 -21 620 -21 c 256,6,7
 733 -21 733 -21 830 23 c 128,-1,8
 927 67 927 67 999 143 c 0,9,10
 1070 218 1070 218 1111 320.5 c 128,-1,11
 1152 423 1152 423 1152 540 c 256,12,13
 1152 657 1152 657 1111 759.5 c 128,-1,14
 1070 862 1070 862 999 938 c 0,15,16
 927 1014 927 1014 830 1057.5 c 128,-1,17
 733 1101 733 1101 620 1101 c 256,18,19
 507 1101 507 1101 409.5 1057.5 c 128,-1,20
 312 1014 312 1014 241 938 c 0,21,22
 169 862 169 862 128 759.5 c 128,-1,23
 87 657 87 657 87 540 c 256,0,1
174 540 m 256,24,25
 174 638 174 638 208 724 c 128,-1,26
 242 810 242 810 302 874 c 0,27,28
 362 937 362 937 443.5 973.5 c 128,-1,29
 525 1010 525 1010 620 1010 c 0,30,31
 714 1010 714 1010 795.5 973.5 c 128,-1,32
 877 937 877 937 937 874 c 0,33,34
 997 810 997 810 1031 724 c 128,-1,35
 1065 638 1065 638 1065 540 c 256,36,37
 1065 442 1065 442 1031 356.5 c 128,-1,38
 997 271 997 271 937 207 c 256,39,40
 877 143 877 143 795.5 106 c 128,-1,41
 714 69 714 69 620 69 c 0,42,43
 525 69 525 69 443.5 106 c 128,-1,44
 362 143 362 143 302 207 c 256,45,46
 242 271 242 271 208 356.5 c 128,-1,47
 174 442 174 442 174 540 c 256,24,25
508 485 m 1,48,-1
 633 485 l 1,49,-1
 753 232 l 1,50,-1
 863 232 l 1,51,-1
 716 519 l 1,52,53
 782 541 782 541 817 580 c 128,-1,54
 852 619 852 619 852 675 c 0,55,56
 852 772 852 772 786.5 819.5 c 128,-1,57
 721 867 721 867 612 867 c 2,58,-1
 401 867 l 1,59,-1
 401 232 l 1,60,-1
 508 232 l 1,61,-1
 508 485 l 1,48,-1
508 582 m 1,62,-1
 508 770 l 1,63,-1
 612 770 l 2,64,65
 685 770 685 770 715 748 c 128,-1,66
 745 726 745 726 745 671 c 0,67,68
 745 650 745 650 735.5 634 c 128,-1,69
 726 618 726 618 711 606 c 0,70,71
 695 595 695 595 673 589 c 128,-1,72
 651 583 651 583 627 582 c 2,73,-1
 508 582 l 1,62,-1
EndSplineSet
EndChar

StartChar: macron
Encoding: 175 175 113
AltUni2: 0002c9.ffffffff.0 0002c9.ffffffff.0
Width: 1229
GlyphClass: 1
Flags: W
LayerCount: 2
Fore
SplineSet
971 1313 m 1,0,-1
 971 1456 l 1,1,-1
 257 1456 l 1,2,-1
 257 1313 l 1,3,-1
 971 1313 l 1,0,-1
EndSplineSet
EndChar

StartChar: degree
Encoding: 176 176 114
Width: 1229
GlyphClass: 1
Flags: W
LayerCount: 2
Fore
SplineSet
361 1216 m 0,0,1
 361 1162 361 1162 381.5 1115.5 c 128,-1,2
 402 1069 402 1069 437 1035 c 0,3,4
 471 1000 471 1000 517.5 980 c 128,-1,5
 564 960 564 960 616 960 c 0,6,7
 667 960 667 960 712.5 980 c 128,-1,8
 758 1000 758 1000 792 1035 c 0,9,10
 826 1069 826 1069 846 1116 c 128,-1,11
 866 1163 866 1163 866 1216 c 256,12,13
 866 1269 866 1269 846 1316.5 c 128,-1,14
 826 1364 826 1364 792 1400 c 0,15,16
 758 1435 758 1435 712.5 1455.5 c 128,-1,17
 667 1476 667 1476 616 1476 c 0,18,19
 564 1476 564 1476 517.5 1455.5 c 128,-1,20
 471 1435 471 1435 437 1400 c 0,21,22
 402 1364 402 1364 381.5 1316.5 c 128,-1,23
 361 1269 361 1269 361 1216 c 0,0,1
485 1216 m 0,24,25
 485 1244 485 1244 495.5 1268.5 c 128,-1,26
 506 1293 506 1293 524 1311 c 0,27,28
 541 1329 541 1329 565 1339 c 128,-1,29
 589 1349 589 1349 616 1349 c 256,30,31
 643 1349 643 1349 666 1339 c 128,-1,32
 689 1329 689 1329 707 1311 c 0,33,34
 724 1293 724 1293 733.5 1268.5 c 128,-1,35
 743 1244 743 1244 743 1216 c 0,36,37
 743 1189 743 1189 733.5 1165.5 c 128,-1,38
 724 1142 724 1142 707 1125 c 0,39,40
 689 1107 689 1107 666 1097.5 c 128,-1,41
 643 1088 643 1088 616 1088 c 256,42,43
 589 1088 589 1088 565 1097.5 c 128,-1,44
 541 1107 541 1107 524 1125 c 0,45,46
 506 1142 506 1142 495.5 1165.5 c 128,-1,47
 485 1189 485 1189 485 1216 c 0,24,25
EndSplineSet
EndChar

StartChar: plusminus
Encoding: 177 177 115
Width: 1229
GlyphClass: 1
Flags: W
LayerCount: 2
Fore
SplineSet
709 855 m 1,0,-1
 709 1267 l 1,1,-1
 541 1267 l 1,2,-1
 541 855 l 1,3,-1
 156 855 l 1,4,-1
 156 703 l 1,5,-1
 541 703 l 1,6,-1
 541 289 l 1,7,-1
 709 289 l 1,8,-1
 709 703 l 1,9,-1
 1072 703 l 1,10,-1
 1072 855 l 1,11,-1
 709 855 l 1,0,-1
1030 1 m 1,12,-1
 1030 152 l 1,13,-1
 195 152 l 1,14,-1
 195 1 l 1,15,-1
 1030 1 l 1,12,-1
EndSplineSet
EndChar

StartChar: twosuperior
Encoding: 178 178 116
Width: 1229
GlyphClass: 1
Flags: W
LayerCount: 2
Fore
SplineSet
934 667 m 1,0,-1
 934 795 l 1,1,-1
 535 795 l 1,2,-1
 710 940 l 2,3,4
 753 979 753 979 788.5 1014.5 c 128,-1,5
 824 1050 824 1050 850 1085 c 0,6,7
 875 1119 875 1119 888.5 1154.5 c 128,-1,8
 902 1190 902 1190 902 1230 c 0,9,10
 902 1285 902 1285 882 1328.5 c 128,-1,11
 862 1372 862 1372 825 1403 c 256,12,13
 788 1434 788 1434 735 1450.5 c 128,-1,14
 682 1467 682 1467 616 1467 c 0,15,16
 547 1467 547 1467 491.5 1446.5 c 128,-1,17
 436 1426 436 1426 397 1391 c 0,18,19
 358 1355 358 1355 337 1307 c 128,-1,20
 316 1259 316 1259 316 1205 c 1,21,-1
 474 1205 l 1,22,23
 474 1234 474 1234 483 1258.5 c 128,-1,24
 492 1283 492 1283 510 1300 c 0,25,26
 528 1318 528 1318 555.5 1328 c 128,-1,27
 583 1338 583 1338 620 1338 c 0,28,29
 649 1338 649 1338 672.5 1330 c 128,-1,30
 696 1322 696 1322 712 1307 c 256,31,32
 728 1292 728 1292 736 1272 c 128,-1,33
 744 1252 744 1252 744 1228 c 0,34,35
 744 1207 744 1207 734.5 1183.5 c 128,-1,36
 725 1160 725 1160 704 1132 c 0,37,38
 690 1113 690 1113 669.5 1091.5 c 128,-1,39
 649 1070 649 1070 623 1046 c 2,40,-1
 335 775 l 1,41,-1
 335 667 l 1,42,-1
 934 667 l 1,0,-1
EndSplineSet
EndChar

StartChar: threesuperior
Encoding: 179 179 117
Width: 1229
GlyphClass: 1
Flags: W
LayerCount: 2
Fore
SplineSet
526 1125 m 1,0,-1
 526 1009 l 1,1,-1
 610 1009 l 2,2,3
 655 1009 655 1009 689.5 999 c 128,-1,4
 724 989 724 989 744 967 c 0,5,6
 756 954 756 954 762.5 936 c 128,-1,7
 769 918 769 918 769 894 c 256,8,9
 769 870 769 870 761 850.5 c 128,-1,10
 753 831 753 831 737 817 c 0,11,12
 719 801 719 801 690.5 792 c 128,-1,13
 662 783 662 783 626 783 c 0,14,15
 591 783 591 783 562.5 792 c 128,-1,16
 534 801 534 801 515 817 c 0,17,18
 499 831 499 831 490 849 c 128,-1,19
 481 867 481 867 481 888 c 1,20,-1
 323 888 l 1,21,22
 323 827 323 827 348.5 783 c 128,-1,23
 374 739 374 739 416 711 c 0,24,25
 457 682 457 682 510.5 668.5 c 128,-1,26
 564 655 564 655 621 655 c 0,27,28
 685 655 685 655 741 670.5 c 128,-1,29
 797 686 797 686 839 715 c 0,30,31
 880 744 880 744 903.5 787 c 128,-1,32
 927 830 927 830 927 886 c 0,33,34
 927 923 927 923 917 953.5 c 128,-1,35
 907 984 907 984 886 1007 c 0,36,37
 868 1028 868 1028 840.5 1044 c 128,-1,38
 813 1060 813 1060 777 1070 c 1,39,40
 804 1080 804 1080 826 1094 c 128,-1,41
 848 1108 848 1108 864 1125 c 0,42,43
 888 1149 888 1149 900.5 1178.5 c 128,-1,44
 913 1208 913 1208 913 1241 c 0,45,46
 913 1296 913 1296 891.5 1338 c 128,-1,47
 870 1380 870 1380 831 1409 c 0,48,49
 792 1437 792 1437 738 1451.5 c 128,-1,50
 684 1466 684 1466 620 1466 c 0,51,52
 560 1466 560 1466 508 1450.5 c 128,-1,53
 456 1435 456 1435 418 1407 c 0,54,55
 379 1378 379 1378 356.5 1337 c 128,-1,56
 334 1296 334 1296 334 1245 c 1,57,-1
 491 1245 l 1,58,59
 491 1262 491 1262 497.5 1276.5 c 128,-1,60
 504 1291 504 1291 515 1301 c 0,61,62
 532 1319 532 1319 560 1328 c 128,-1,63
 588 1337 588 1337 623 1337 c 0,64,65
 655 1337 655 1337 679.5 1330 c 128,-1,66
 704 1323 704 1323 721 1310 c 0,67,68
 738 1296 738 1296 747 1276.5 c 128,-1,69
 756 1257 756 1257 756 1234 c 0,70,71
 756 1206 756 1206 744.5 1184 c 128,-1,72
 733 1162 733 1162 710 1148 c 0,73,74
 692 1137 692 1137 666.5 1131 c 128,-1,75
 641 1125 641 1125 610 1125 c 2,76,-1
 526 1125 l 1,0,-1
EndSplineSet
EndChar

StartChar: acute
Encoding: 180 180 118
Width: 1229
GlyphClass: 1
Flags: W
LayerCount: 2
Fore
SplineSet
594 1481 m 1,0,-1
 410 1215 l 1,1,-1
 550 1215 l 1,2,-1
 818 1481 l 1,3,-1
 594 1481 l 1,0,-1
EndSplineSet
EndChar

StartChar: mu
Encoding: 181 181 119
Width: 1229
GlyphClass: 1
Flags: W
LayerCount: 2
Fore
SplineSet
373 1082 m 1,0,-1
 188 1082 l 1,1,-1
 188 -416 l 1,2,-1
 373 -416 l 1,3,-1
 373 53 l 1,4,5
 414 17 414 17 471 -1.5 c 128,-1,6
 528 -20 528 -20 601 -20 c 0,7,8
 653 -20 653 -20 696.5 -8 c 128,-1,9
 740 4 740 4 776 27 c 0,10,11
 801 44 801 44 823 66.5 c 128,-1,12
 845 89 845 89 864 116 c 1,13,-1
 873 0 l 1,14,-1
 1040 0 l 1,15,-1
 1040 1082 l 1,16,-1
 854 1082 l 1,17,-1
 854 283 l 1,18,19
 843 255 843 255 827 232 c 128,-1,20
 811 209 811 209 789 190 c 0,21,22
 756 161 756 161 707 145.5 c 128,-1,23
 658 130 658 130 593 130 c 0,24,25
 545 130 545 130 504.5 144 c 128,-1,26
 464 158 464 158 435 195 c 0,27,28
 405 232 405 232 389 296 c 128,-1,29
 373 360 373 360 373 460 c 2,30,-1
 373 1082 l 1,0,-1
EndSplineSet
EndChar

StartChar: paragraph
Encoding: 182 182 120
Width: 1229
GlyphClass: 1
Flags: W
LayerCount: 2
Fore
SplineSet
790 0 m 1,0,-1
 976 0 l 1,1,-1
 976 1456 l 1,2,-1
 703 1456 l 2,3,4
 585 1456 585 1456 493.5 1420.5 c 128,-1,5
 402 1385 402 1385 339 1323 c 0,6,7
 276 1260 276 1260 243.5 1174.5 c 128,-1,8
 211 1089 211 1089 211 988 c 0,9,10
 211 886 211 886 243.5 800 c 128,-1,11
 276 714 276 714 339 652 c 256,12,13
 402 590 402 590 493.5 555 c 128,-1,14
 585 520 585 520 703 520 c 2,15,-1
 790 520 l 1,16,-1
 790 0 l 1,0,-1
EndSplineSet
EndChar

StartChar: periodcentered
Encoding: 183 183 121
Width: 1229
GlyphClass: 1
Flags: W
LayerCount: 2
Fore
SplineSet
504 729 m 0,0,1
 504 682 504 682 533 650.5 c 128,-1,2
 562 619 562 619 619 619 c 0,3,4
 675 619 675 619 704.5 650.5 c 128,-1,5
 734 682 734 682 734 729 c 0,6,7
 734 777 734 777 704.5 809 c 128,-1,8
 675 841 675 841 619 841 c 0,9,10
 562 841 562 841 533 809 c 128,-1,11
 504 777 504 777 504 729 c 0,0,1
EndSplineSet
EndChar

StartChar: cedilla
Encoding: 184 184 122
Width: 1229
GlyphClass: 1
Flags: W
LayerCount: 2
Fore
SplineSet
630 0 m 1,0,-1
 497 0 l 1,1,-1
 466 -134 l 1,2,3
 506 -137 506 -137 536 -143 c 128,-1,4
 566 -149 566 -149 587 -159 c 0,5,6
 607 -170 607 -170 617 -187 c 128,-1,7
 627 -204 627 -204 627 -229 c 0,8,9
 627 -256 627 -256 613.5 -274.5 c 128,-1,10
 600 -293 600 -293 578 -305 c 0,11,12
 555 -317 555 -317 525 -322.5 c 128,-1,13
 495 -328 495 -328 461 -328 c 1,14,-1
 468 -435 l 1,15,16
 529 -435 529 -435 579.5 -424 c 128,-1,17
 630 -413 630 -413 667 -394 c 0,18,19
 717 -367 717 -367 744 -324 c 128,-1,20
 771 -281 771 -281 771 -225 c 0,21,22
 771 -182 771 -182 758 -151.5 c 128,-1,23
 745 -121 745 -121 724 -101 c 0,24,25
 702 -81 702 -81 674.5 -69 c 128,-1,26
 647 -57 647 -57 618 -52 c 1,27,-1
 630 0 l 1,0,-1
EndSplineSet
EndChar

StartChar: onesuperior
Encoding: 185 185 123
Width: 1229
GlyphClass: 1
Flags: W
LayerCount: 2
Fore
SplineSet
758 665 m 1,0,-1
 758 1454 l 1,1,-1
 740 1454 l 1,2,-1
 386 1337 l 1,3,-1
 386 1209 l 1,4,-1
 601 1266 l 1,5,-1
 601 665 l 1,6,-1
 758 665 l 1,0,-1
EndSplineSet
EndChar

StartChar: ordmasculine
Encoding: 186 186 124
Width: 1229
GlyphClass: 1
Flags: W
LayerCount: 2
Fore
SplineSet
272 1141 m 2,0,-1
 272 1024 l 2,1,2
 272 952 272 952 296 890.5 c 128,-1,3
 320 829 320 829 365 785 c 0,4,5
 409 740 409 740 472.5 715 c 128,-1,6
 536 690 536 690 616 690 c 0,7,8
 695 690 695 690 758 715 c 128,-1,9
 821 740 821 740 865 785 c 0,10,11
 909 829 909 829 932.5 890.5 c 128,-1,12
 956 952 956 952 956 1024 c 2,13,-1
 956 1141 l 2,14,15
 956 1214 956 1214 932.5 1275.5 c 128,-1,16
 909 1337 909 1337 865 1382 c 0,17,18
 820 1426 820 1426 756.5 1451 c 128,-1,19
 693 1476 693 1476 614 1476 c 256,20,21
 535 1476 535 1476 472 1451 c 128,-1,22
 409 1426 409 1426 365 1382 c 0,23,24
 320 1337 320 1337 296 1275.5 c 128,-1,25
 272 1214 272 1214 272 1141 c 2,0,-1
435 1024 m 2,26,-1
 435 1141 l 2,27,28
 435 1182 435 1182 446 1217.5 c 128,-1,29
 457 1253 457 1253 480 1280 c 0,30,31
 502 1306 502 1306 535.5 1321 c 128,-1,32
 569 1336 569 1336 614 1336 c 256,33,34
 659 1336 659 1336 692.5 1321 c 128,-1,35
 726 1306 726 1306 749 1280 c 0,36,37
 771 1253 771 1253 782.5 1217.5 c 128,-1,38
 794 1182 794 1182 794 1141 c 2,39,-1
 794 1024 l 2,40,41
 794 982 794 982 782.5 946.5 c 128,-1,42
 771 911 771 911 749 885 c 256,43,44
 727 859 727 859 693.5 844 c 128,-1,45
 660 829 660 829 616 829 c 0,46,47
 570 829 570 829 536 844 c 128,-1,48
 502 859 502 859 480 885 c 0,49,50
 457 911 457 911 446 946.5 c 128,-1,51
 435 982 435 982 435 1024 c 2,26,-1
EndSplineSet
EndChar

StartChar: onequarter
Encoding: 188 188 126
Width: 1229
GlyphClass: 1
Flags: W
LayerCount: 2
Fore
SplineSet
383 751 m 1,0,-1
 383 1461 l 1,1,-1
 367 1461 l 1,2,-1
 48 1356 l 1,3,-1
 48 1241 l 1,4,-1
 242 1292 l 1,5,-1
 242 751 l 1,6,-1
 383 751 l 1,0,-1
1068 269 m 1,7,-1
 1068 710 l 1,8,-1
 923 710 l 1,9,-1
 584 244 l 1,10,-1
 589 152 l 1,11,-1
 927 152 l 1,12,-1
 927 0 l 1,13,-1
 1068 0 l 1,14,-1
 1068 152 l 1,15,-1
 1164 152 l 1,16,-1
 1164 269 l 1,17,-1
 1068 269 l 1,7,-1
726 269 m 1,18,-1
 912 504 l 1,19,-1
 927 529 l 1,20,-1
 927 269 l 1,21,-1
 726 269 l 1,18,-1
402 221 m 1,22,-1
 916 1175 l 1,23,-1
 802 1241 l 1,24,-1
 289 287 l 1,25,-1
 402 221 l 1,22,-1
EndSplineSet
EndChar

StartChar: onehalf
Encoding: 189 189 127
Width: 1229
GlyphClass: 1
Flags: W
LayerCount: 2
Fore
SplineSet
371 747 m 1,0,-1
 371 1457 l 1,1,-1
 355 1457 l 1,2,-1
 36 1352 l 1,3,-1
 36 1237 l 1,4,-1
 230 1288 l 1,5,-1
 230 747 l 1,6,-1
 371 747 l 1,0,-1
1174 0 m 1,7,-1
 1174 115 l 1,8,-1
 815 115 l 1,9,-1
 972 246 l 2,10,11
 1011 281 1011 281 1043 313 c 128,-1,12
 1075 345 1075 345 1098 376 c 256,13,14
 1121 407 1121 407 1133 439 c 128,-1,15
 1145 471 1145 471 1145 507 c 0,16,17
 1145 556 1145 556 1127 595.5 c 128,-1,18
 1109 635 1109 635 1076 662 c 0,19,20
 1042 690 1042 690 994.5 705 c 128,-1,21
 947 720 947 720 888 720 c 0,22,23
 826 720 826 720 776 701.5 c 128,-1,24
 726 683 726 683 691 652 c 0,25,26
 655 619 655 619 636.5 576 c 128,-1,27
 618 533 618 533 618 484 c 1,28,-1
 760 484 l 1,29,30
 761 511 761 511 769 533 c 128,-1,31
 777 555 777 555 794 572 c 0,32,33
 810 587 810 587 834.5 595.5 c 128,-1,34
 859 604 859 604 891 604 c 0,35,36
 917 604 917 604 937.5 597 c 128,-1,37
 958 590 958 590 972 578 c 0,38,39
 987 564 987 564 995 545.5 c 128,-1,40
 1003 527 1003 527 1003 505 c 0,41,42
 1003 488 1003 488 996 469.5 c 128,-1,43
 989 451 989 451 974 429 c 0,44,45
 961 410 961 410 941 388 c 128,-1,46
 921 366 921 366 894 341 c 2,47,-1
 635 97 l 1,48,-1
 635 0 l 1,49,-1
 1174 0 l 1,7,-1
342 221 m 1,50,-1
 856 1175 l 1,51,-1
 742 1241 l 1,52,-1
 229 287 l 1,53,-1
 342 221 l 1,50,-1
EndSplineSet
EndChar

StartChar: threequarters
Encoding: 190 190 128
Width: 1229
GlyphClass: 1
Flags: W
LayerCount: 2
Fore
SplineSet
1101 269 m 1,0,-1
 1101 710 l 1,1,-1
 956 710 l 1,2,-1
 617 244 l 1,3,-1
 622 152 l 1,4,-1
 960 152 l 1,5,-1
 960 0 l 1,6,-1
 1101 0 l 1,7,-1
 1101 152 l 1,8,-1
 1197 152 l 1,9,-1
 1197 269 l 1,10,-1
 1101 269 l 1,0,-1
759 269 m 1,11,-1
 945 504 l 1,12,-1
 960 529 l 1,13,-1
 960 269 l 1,14,-1
 759 269 l 1,11,-1
221 1157 m 1,15,-1
 221 1053 l 1,16,-1
 296 1053 l 2,17,18
 330 1053 330 1053 357.5 1046.5 c 128,-1,19
 385 1040 385 1040 404 1027 c 0,20,21
 421 1015 421 1015 430 995.5 c 128,-1,22
 439 976 439 976 439 949 c 0,23,24
 439 928 439 928 431.5 910 c 128,-1,25
 424 892 424 892 410 879 c 0,26,27
 392 865 392 865 367.5 857 c 128,-1,28
 343 849 343 849 311 849 c 0,29,30
 277 849 277 849 251 858 c 128,-1,31
 225 867 225 867 208 883 c 0,32,33
 194 894 194 894 187 910 c 128,-1,34
 180 926 180 926 180 944 c 1,35,-1
 38 944 l 1,36,37
 38 889 38 889 61 849.5 c 128,-1,38
 84 810 84 810 122 785 c 0,39,40
 158 758 158 758 206.5 746 c 128,-1,41
 255 734 255 734 306 734 c 0,42,43
 364 734 364 734 414 748 c 128,-1,44
 464 762 464 762 502 788 c 0,45,46
 539 814 539 814 560 853 c 128,-1,47
 581 892 581 892 581 942 c 0,48,49
 581 978 581 978 570.5 1007.5 c 128,-1,50
 560 1037 560 1037 538 1058 c 0,51,52
 522 1074 522 1074 499 1087 c 128,-1,53
 476 1100 476 1100 446 1108 c 1,54,55
 471 1117 471 1117 490.5 1129.5 c 128,-1,56
 510 1142 510 1142 526 1157 c 0,57,58
 546 1179 546 1179 557.5 1205.5 c 128,-1,59
 569 1232 569 1232 569 1262 c 0,60,61
 569 1311 569 1311 549.5 1349 c 128,-1,62
 530 1387 530 1387 495 1413 c 0,63,64
 460 1438 460 1438 411.5 1451 c 128,-1,65
 363 1464 363 1464 305 1464 c 0,66,67
 251 1464 251 1464 204.5 1450 c 128,-1,68
 158 1436 158 1436 123 1411 c 0,69,70
 88 1385 88 1385 68 1348 c 128,-1,71
 48 1311 48 1311 48 1265 c 1,72,-1
 189 1265 l 1,73,74
 189 1282 189 1282 196 1296 c 128,-1,75
 203 1310 203 1310 215 1321 c 0,76,77
 231 1334 231 1334 255 1341 c 128,-1,78
 279 1348 279 1348 308 1348 c 0,79,80
 339 1348 339 1348 362.5 1340.5 c 128,-1,81
 386 1333 386 1333 401 1319 c 0,82,83
 414 1307 414 1307 421 1290.5 c 128,-1,84
 428 1274 428 1274 428 1255 c 0,85,86
 428 1232 428 1232 418.5 1213 c 128,-1,87
 409 1194 409 1194 391 1181 c 0,88,89
 374 1170 374 1170 350.5 1163.5 c 128,-1,90
 327 1157 327 1157 296 1157 c 2,91,-1
 221 1157 l 1,15,-1
469 220 m 1,92,-1
 983 1174 l 1,93,-1
 869 1240 l 1,94,-1
 356 286 l 1,95,-1
 469 220 l 1,92,-1
EndSplineSet
EndChar

StartChar: questiondown
Encoding: 191 191 129
Width: 1229
GlyphClass: 1
Flags: W
LayerCount: 2
Fore
SplineSet
724 673 m 1,0,-1
 539 673 l 1,1,2
 539 634 539 634 537.5 604 c 128,-1,3
 536 574 536 574 529 548 c 0,4,5
 521 521 521 521 505 496 c 128,-1,6
 489 471 489 471 460 442 c 0,7,8
 415 399 415 399 369.5 349.5 c 128,-1,9
 324 300 324 300 288 244 c 0,10,11
 251 187 251 187 227.5 123 c 128,-1,12
 204 59 204 59 204 -13 c 0,13,14
 204 -103 204 -103 231.5 -173 c 128,-1,15
 259 -243 259 -243 312 -292 c 0,16,17
 364 -341 364 -341 440.5 -366.5 c 128,-1,18
 517 -392 517 -392 614 -392 c 0,19,20
 701 -392 701 -392 775.5 -367.5 c 128,-1,21
 850 -343 850 -343 905 -296 c 0,22,23
 960 -250 960 -250 991.5 -183 c 128,-1,24
 1023 -116 1023 -116 1024 -32 c 1,25,-1
 839 -32 l 1,26,27
 839 -84 839 -84 820 -121.5 c 128,-1,28
 801 -159 801 -159 770 -183 c 0,29,30
 738 -208 738 -208 697.5 -219.5 c 128,-1,31
 657 -231 657 -231 614 -231 c 0,32,33
 558 -231 558 -231 514.5 -215.5 c 128,-1,34
 471 -200 471 -200 443 -170 c 0,35,36
 416 -142 416 -142 402.5 -101 c 128,-1,37
 389 -60 389 -60 389 -7 c 0,38,39
 389 44 389 44 406.5 89 c 128,-1,40
 424 134 424 134 452 175 c 0,41,42
 479 216 479 216 512 253.5 c 128,-1,43
 545 291 545 291 576 326 c 1,44,45
 625 371 625 371 654.5 404.5 c 128,-1,46
 684 438 684 438 699 474 c 256,47,48
 714 510 714 510 718.5 556 c 128,-1,49
 723 602 723 602 724 673 c 1,0,-1
509 988 m 0,50,51
 509 942 509 942 538 910.5 c 128,-1,52
 567 879 567 879 624 879 c 256,53,54
 681 879 681 879 710 910.5 c 128,-1,55
 739 942 739 942 739 988 c 0,56,57
 739 1036 739 1036 710 1068.5 c 128,-1,58
 681 1101 681 1101 624 1101 c 256,59,60
 567 1101 567 1101 538 1068.5 c 128,-1,61
 509 1036 509 1036 509 988 c 0,50,51
EndSplineSet
EndChar

StartChar: AE
Encoding: 198 198 136
Width: 1229
GlyphClass: 1
Flags: W
LayerCount: 2
Fore
SplineSet
1195 0 m 1,0,-1
 1195 151 l 1,1,-1
 838 151 l 1,2,-1
 837 682 l 1,3,-1
 1139 682 l 1,4,-1
 1139 833 l 1,5,-1
 837 833 l 1,6,-1
 835 1304 l 1,7,-1
 1172 1304 l 1,8,-1
 1172 1456 l 1,9,-1
 592 1456 l 1,10,-1
 32 0 l 1,11,-1
 230 0 l 1,12,-1
 353 353 l 1,13,-1
 663 353 l 1,14,-1
 664 0 l 1,15,-1
 1195 0 l 1,0,-1
414 527 m 1,16,-1
 661 1233 l 1,17,-1
 663 527 l 1,18,-1
 414 527 l 1,16,-1
EndSplineSet
EndChar

StartChar: Eth
Encoding: 208 208 146
Width: 1229
GlyphClass: 1
Flags: W
LayerCount: 2
Fore
SplineSet
170 0 m 1,0,-1
 507 0 l 2,1,2
 659 1 659 1 778.5 50.5 c 128,-1,3
 898 100 898 100 981 189 c 0,4,5
 1063 277 1063 277 1106.5 400.5 c 128,-1,6
 1150 524 1150 524 1151 674 c 2,7,-1
 1151 781 l 2,8,9
 1150 931 1150 931 1106.5 1054.5 c 128,-1,10
 1063 1178 1063 1178 981 1267 c 0,11,12
 898 1355 898 1355 778.5 1404.5 c 128,-1,13
 659 1454 659 1454 507 1456 c 2,14,-1
 170 1456 l 1,15,-1
 170 817 l 1,16,-1
 -59 817 l 1,17,-1
 -59 666 l 1,18,-1
 170 666 l 1,19,-1
 170 0 l 1,0,-1
578 666 m 1,20,-1
 578 817 l 1,21,-1
 358 817 l 1,22,-1
 358 1304 l 1,23,-1
 507 1304 l 2,24,25
 625 1302 625 1302 711 1262 c 128,-1,26
 797 1222 797 1222 853 1153 c 0,27,28
 909 1083 909 1083 937 988.5 c 128,-1,29
 965 894 965 894 966 783 c 2,30,-1
 966 674 l 2,31,32
 965 563 965 563 937.5 468 c 128,-1,33
 910 373 910 373 854 303 c 0,34,35
 797 233 797 233 711 192.5 c 128,-1,36
 625 152 625 152 507 151 c 2,37,-1
 358 151 l 1,38,-1
 358 666 l 1,39,-1
 578 666 l 1,20,-1
EndSplineSet
Substitution2: "'smcp' Lowercase to Small Capitals lookup 0 subtable" Eth.smcp
EndChar

StartChar: multiply
Encoding: 215 215 153
Width: 1229
GlyphClass: 1
Flags: W
LayerCount: 2
Fore
SplineSet
181 329 m 1,0,-1
 300 206 l 1,1,-1
 631 543 l 1,2,-1
 963 206 l 1,3,-1
 1082 329 l 1,4,-1
 751 666 l 1,5,-1
 1079 1000 l 1,6,-1
 960 1123 l 1,7,-1
 631 788 l 1,8,-1
 303 1123 l 1,9,-1
 184 1000 l 1,10,-1
 511 666 l 1,11,-1
 181 329 l 1,0,-1
EndSplineSet
EndChar

StartChar: Oslash
Encoding: 216 216 154
Width: 1229
GlyphClass: 1
Flags: W
LayerCount: 2
Fore
SplineSet
1112 644 m 2,0,-1
 1113 810 l 2,1,2
 1114 921 1114 921 1086.5 1035 c 128,-1,3
 1059 1149 1059 1149 1003 1244 c 1,4,-1
 1164 1516 l 1,5,-1
 1022 1516 l 1,6,-1
 923 1348 l 1,7,8
 899 1372 899 1372 871.5 1392.5 c 128,-1,9
 844 1413 844 1413 813 1429 c 0,10,11
 769 1451 769 1451 717 1463.5 c 128,-1,12
 665 1476 665 1476 605 1476 c 0,13,14
 475 1476 475 1476 381 1419.5 c 128,-1,15
 287 1363 287 1363 228 1275 c 0,16,17
 161 1181 161 1181 130.5 1056.5 c 128,-1,18
 100 932 100 932 98 810 c 2,19,-1
 98 644 l 2,20,21
 98 583 98 583 106 520.5 c 128,-1,22
 114 458 114 458 131 398 c 0,23,24
 147 338 147 338 172 282 c 128,-1,25
 197 226 197 226 231 177 c 1,26,-1
 71 -93 l 1,27,-1
 213 -93 l 1,28,-1
 317 83 l 1,29,30
 374 35 374 35 445 7.5 c 128,-1,31
 516 -20 516 -20 607 -20 c 0,32,33
 731 -20 731 -20 823 33 c 128,-1,34
 915 86 915 86 976 171 c 0,35,36
 1046 267 1046 267 1079 393.5 c 128,-1,37
 1112 520 1112 520 1112 644 c 2,0,-1
280 644 m 2,38,-1
 280 812 l 2,39,40
 280 892 280 892 297.5 985.5 c 128,-1,41
 315 1079 315 1079 356 1156 c 0,42,43
 393 1220 393 1220 453.5 1265.5 c 128,-1,44
 514 1311 514 1311 605 1311 c 0,45,46
 647 1311 647 1311 682 1301.5 c 128,-1,47
 717 1292 717 1292 746 1274 c 0,48,49
 772 1259 772 1259 793 1238.5 c 128,-1,50
 814 1218 814 1218 831 1193 c 1,51,-1
 333 350 l 1,52,53
 322 376 322 376 313.5 404.5 c 128,-1,54
 305 433 305 433 299 461 c 0,55,56
 289 507 289 507 284.5 554 c 128,-1,57
 280 601 280 601 280 644 c 2,38,-1
930 812 m 2,58,-1
 930 644 l 2,59,60
 928 549 928 549 909.5 445.5 c 128,-1,61
 891 342 891 342 831 259 c 0,62,63
 793 207 793 207 738.5 175 c 128,-1,64
 684 143 684 143 607 143 c 0,65,66
 541 143 541 143 491 166.5 c 128,-1,67
 441 190 441 190 404 231 c 1,68,-1
 895 1061 l 1,69,70
 914 999 914 999 921.5 934.5 c 128,-1,71
 929 870 929 870 930 812 c 2,58,-1
EndSplineSet
EndChar

StartChar: Thorn
Encoding: 222 222 160
Width: 1229
GlyphClass: 1
Flags: W
LayerCount: 2
Fore
SplineSet
353 1456 m 1,0,-1
 168 1456 l 1,1,-1
 168 0 l 1,2,-1
 353 0 l 1,3,-1
 353 313 l 1,4,-1
 630 313 l 2,5,6
 747 313 747 313 837.5 344.5 c 128,-1,7
 928 376 928 376 991 433 c 0,8,9
 1053 489 1053 489 1085.5 567 c 128,-1,10
 1118 645 1118 645 1118 738 c 256,11,12
 1118 831 1118 831 1085.5 909 c 128,-1,13
 1053 987 1053 987 991 1044 c 0,14,15
 928 1100 928 1100 837.5 1131.5 c 128,-1,16
 747 1163 747 1163 630 1163 c 2,17,-1
 353 1163 l 1,18,-1
 353 1456 l 1,0,-1
353 1011 m 1,19,-1
 630 1011 l 2,20,21
 708 1011 708 1011 765.5 988.5 c 128,-1,22
 823 966 823 966 860 928 c 0,23,24
 897 889 897 889 915 839.5 c 128,-1,25
 933 790 933 790 933 736 c 0,26,27
 933 683 933 683 915 634 c 128,-1,28
 897 585 897 585 860 548 c 0,29,30
 822 510 822 510 765 487.5 c 128,-1,31
 708 465 708 465 630 465 c 2,32,-1
 353 465 l 1,33,-1
 353 1011 l 1,19,-1
EndSplineSet
EndChar

StartChar: germandbls
Encoding: 223 223 161
Width: 1229
GlyphClass: 1
Flags: W
LayerCount: 2
Fore
SplineSet
353 0 m 1,0,-1
 353 1087 l 2,1,2
 354 1242 354 1242 413.5 1324 c 128,-1,3
 473 1406 473 1406 572 1406 c 0,4,5
 604 1406 604 1406 635.5 1393 c 128,-1,6
 667 1380 667 1380 692 1355 c 0,7,8
 716 1329 716 1329 731 1291.5 c 128,-1,9
 746 1254 746 1254 746 1204 c 0,10,11
 746 1166 746 1166 736 1134.5 c 128,-1,12
 726 1103 726 1103 711 1074 c 0,13,14
 695 1044 695 1044 677 1016.5 c 128,-1,15
 659 989 659 989 644 960 c 0,16,17
 628 930 628 930 618 897 c 128,-1,18
 608 864 608 864 608 825 c 0,19,20
 608 757 608 757 631 705.5 c 128,-1,21
 654 654 654 654 688 613 c 0,22,23
 722 571 722 571 762 535.5 c 128,-1,24
 802 500 802 500 836 466 c 0,25,26
 870 431 870 431 892.5 392.5 c 128,-1,27
 915 354 915 354 915 307 c 0,28,29
 915 269 915 269 904.5 237 c 128,-1,30
 894 205 894 205 872 181 c 256,31,32
 850 157 850 157 816 143.5 c 128,-1,33
 782 130 782 130 735 130 c 0,34,35
 701 130 701 130 666.5 137.5 c 128,-1,36
 632 145 632 145 601 157 c 0,37,38
 569 168 569 168 542.5 181.5 c 128,-1,39
 516 195 516 195 498 206 c 1,40,-1
 456 51 l 1,41,42
 476 35 476 35 510 22 c 128,-1,43
 544 9 544 9 585 0 c 0,44,45
 625 -10 625 -10 669 -15.5 c 128,-1,46
 713 -21 713 -21 754 -21 c 0,47,48
 830 -21 830 -21 893.5 0 c 128,-1,49
 957 21 957 21 1003 63 c 256,50,51
 1049 105 1049 105 1074.5 168 c 128,-1,52
 1100 231 1100 231 1100 316 c 0,53,54
 1100 381 1100 381 1077.5 431 c 128,-1,55
 1055 481 1055 481 1021 522 c 256,56,57
 987 563 987 563 947 598 c 128,-1,58
 907 633 907 633 873 668 c 256,59,60
 839 703 839 703 816.5 740 c 128,-1,61
 794 777 794 777 794 823 c 0,62,63
 794 873 794 873 813.5 911.5 c 128,-1,64
 833 950 833 950 857 992 c 256,65,66
 881 1034 881 1034 901 1087.5 c 128,-1,67
 921 1141 921 1141 921 1220 c 0,68,69
 921 1306 921 1306 893 1369.5 c 128,-1,70
 865 1433 865 1433 816 1475 c 256,71,72
 767 1517 767 1517 702 1537.5 c 128,-1,73
 637 1558 637 1558 562 1558 c 0,74,75
 477 1558 477 1558 405 1526.5 c 128,-1,76
 333 1495 333 1495 281 1435 c 0,77,78
 228 1375 228 1375 198.5 1287 c 128,-1,79
 169 1199 169 1199 169 1087 c 2,80,-1
 169 0 l 1,81,-1
 353 0 l 1,0,-1
EndSplineSet
Substitution2: "'smcp' Lowercase to Small Capitals lookup 0 subtable" Germandbls.smcp
EndChar

StartChar: ae
Encoding: 230 230 168
Width: 1229
GlyphClass: 1
Flags: W
LayerCount: 2
Fore
SplineSet
896 -20 m 0,0,1
 955 -20 955 -20 1001.5 -10.5 c 128,-1,2
 1048 -1 1048 -1 1083 12 c 0,3,4
 1117 25 1117 25 1140 39.5 c 128,-1,5
 1163 54 1163 54 1176 64 c 1,6,-1
 1130 200 l 1,7,8
 1114 189 1114 189 1095 177 c 128,-1,9
 1076 165 1076 165 1053 155 c 0,10,11
 1029 144 1029 144 999.5 137 c 128,-1,12
 970 130 970 130 932 130 c 0,13,14
 872 129 872 129 828.5 145.5 c 128,-1,15
 785 162 785 162 757 189 c 0,16,17
 736 209 736 209 723 233 c 128,-1,18
 710 257 710 257 704 283 c 0,19,20
 697 311 697 311 692.5 343 c 128,-1,21
 688 375 688 375 688 411 c 2,22,-1
 688 497 l 1,23,-1
 1193 497 l 1,24,-1
 1193 731 l 2,25,26
 1193 815 1193 815 1171.5 883.5 c 128,-1,27
 1150 952 1150 952 1108 1001 c 0,28,29
 1066 1049 1066 1049 1004.5 1075.5 c 128,-1,30
 943 1102 943 1102 862 1102 c 0,31,32
 815 1102 815 1102 774 1091 c 128,-1,33
 733 1080 733 1080 699 1058 c 0,34,35
 679 1046 679 1046 660.5 1030 c 128,-1,36
 642 1014 642 1014 626 995 c 1,37,38
 610 1016 610 1016 590.5 1033.5 c 128,-1,39
 571 1051 571 1051 549 1063 c 0,40,41
 514 1083 514 1083 471.5 1092.5 c 128,-1,42
 429 1102 429 1102 379 1102 c 0,43,44
 307 1102 307 1102 248 1080.5 c 128,-1,45
 189 1059 189 1059 148 1020 c 0,46,47
 106 980 106 980 83.5 924.5 c 128,-1,48
 61 869 61 869 61 800 c 1,49,-1
 240 792 l 1,50,51
 240 829 240 829 249.5 858 c 128,-1,52
 259 887 259 887 277 907 c 0,53,54
 296 928 296 928 322.5 939 c 128,-1,55
 349 950 349 950 381 950 c 0,56,57
 412 950 412 950 435 940.5 c 128,-1,58
 458 931 458 931 474 913 c 0,59,60
 493 891 493 891 502 858 c 128,-1,61
 511 825 511 825 511 783 c 2,62,-1
 511 635 l 1,63,-1
 448 635 l 2,64,65
 347 635 347 635 270 610.5 c 128,-1,66
 193 586 193 586 142 540 c 0,67,68
 93 495 93 495 68 430.5 c 128,-1,69
 43 366 43 366 43 285 c 0,70,71
 43 216 43 216 62.5 159.5 c 128,-1,72
 82 103 82 103 119 64 c 0,73,74
 156 24 156 24 210 2 c 128,-1,75
 264 -20 264 -20 335 -20 c 0,76,77
 383 -20 383 -20 423 -8 c 128,-1,78
 463 4 463 4 496 24 c 256,79,80
 529 44 529 44 554.5 70.5 c 128,-1,81
 580 97 580 97 599 126 c 1,82,83
 616 99 616 99 637.5 77 c 128,-1,84
 659 55 659 55 684 37 c 0,85,86
 726 9 726 9 779 -5.5 c 128,-1,87
 832 -20 832 -20 896 -20 c 0,0,1
371 130 m 0,88,89
 335 130 335 130 307.5 142 c 128,-1,90
 280 154 280 154 262 175 c 0,91,92
 243 195 243 195 233.5 222.5 c 128,-1,93
 224 250 224 250 224 281 c 0,94,95
 224 324 224 324 239.5 362.5 c 128,-1,96
 255 401 255 401 284 431 c 0,97,98
 313 460 313 460 355 477.5 c 128,-1,99
 397 495 397 495 450 495 c 2,100,-1
 511 495 l 1,101,102
 511 430 511 430 511.5 397 c 128,-1,103
 512 364 512 364 512 301 c 0,104,105
 512 258 512 258 512 238.5 c 128,-1,106
 512 219 512 219 512 202 c 1,107,108
 499 189 499 189 484 177 c 128,-1,109
 469 165 469 165 453 155 c 0,110,111
 433 144 433 144 412 137 c 128,-1,112
 391 130 391 130 371 130 c 0,88,89
1017 640 m 1,113,-1
 688 640 l 1,114,-1
 688 709 l 2,115,116
 688 739 688 739 692.5 768 c 128,-1,117
 697 797 697 797 705 823 c 0,118,119
 715 853 715 853 729.5 875.5 c 128,-1,120
 744 898 744 898 767 919 c 0,121,122
 784 934 784 934 808.5 942 c 128,-1,123
 833 950 833 950 862 950 c 0,124,125
 899 950 899 950 928 934.5 c 128,-1,126
 957 919 957 919 977 894 c 0,127,128
 997 868 997 868 1007 835.5 c 128,-1,129
 1017 803 1017 803 1017 768 c 2,130,-1
 1017 640 l 1,113,-1
EndSplineSet
EndChar

StartChar: eth
Encoding: 240 240 178
Width: 1229
GlyphClass: 1
Flags: W
LayerCount: 2
Fore
SplineSet
845 1286 m 1,0,-1
 1056 1407 l 1,1,-1
 983 1507 l 1,2,-1
 753 1375 l 1,3,4
 690 1426 690 1426 618.5 1462.5 c 128,-1,5
 547 1499 547 1499 467 1521 c 1,6,-1
 410 1362 l 1,7,8
 456 1346 456 1346 499.5 1325.5 c 128,-1,9
 543 1305 543 1305 584 1278 c 1,10,-1
 345 1141 l 1,11,-1
 418 1042 l 1,12,-1
 684 1194 l 1,13,14
 746 1131 746 1131 791 1047 c 128,-1,15
 836 963 836 963 859 853 c 1,16,17
 802 909 802 909 725.5 943 c 128,-1,18
 649 977 649 977 561 977 c 0,19,20
 456 977 456 977 366.5 940.5 c 128,-1,21
 277 904 277 904 212 837 c 0,22,23
 146 770 146 770 109.5 676 c 128,-1,24
 73 582 73 582 73 467 c 0,25,26
 73 365 73 365 109 276 c 128,-1,27
 145 187 145 187 211 121 c 0,28,29
 276 55 276 55 366.5 17.5 c 128,-1,30
 457 -20 457 -20 565 -20 c 0,31,32
 636 -20 636 -20 700 -2.5 c 128,-1,33
 764 15 764 15 819 48 c 0,34,35
 882 87 882 87 931 147 c 128,-1,36
 980 207 980 207 1014 283 c 0,37,38
 1039 344 1039 344 1052.5 416.5 c 128,-1,39
 1066 489 1066 489 1066 571 c 2,40,-1
 1066 633 l 2,41,42
 1066 839 1066 839 1007.5 1003.5 c 128,-1,43
 949 1168 949 1168 845 1286 c 1,0,-1
569 130 m 0,44,45
 495 130 495 130 437.5 159.5 c 128,-1,46
 380 189 380 189 341 237 c 0,47,48
 301 284 301 284 280 344.5 c 128,-1,49
 259 405 259 405 259 467 c 0,50,51
 259 540 259 540 280 605 c 128,-1,52
 301 670 301 670 341 719 c 0,53,54
 380 768 380 768 436 796.5 c 128,-1,55
 492 825 492 825 561 825 c 0,56,57
 686 825 686 825 766 782 c 128,-1,58
 846 739 846 739 880 685 c 1,59,60
 880 672 880 672 880.5 660 c 128,-1,61
 881 648 881 648 881 635 c 2,62,-1
 881 571 l 2,63,64
 881 509 881 509 872 453 c 128,-1,65
 863 397 863 397 847 350 c 0,66,67
 826 292 826 292 795.5 249 c 128,-1,68
 765 206 765 206 726 179 c 0,69,70
 693 155 693 155 653.5 142.5 c 128,-1,71
 614 130 614 130 569 130 c 0,44,45
EndSplineSet
Substitution2: "'smcp' Lowercase to Small Capitals lookup 0 subtable" Eth.smcp
EndChar

StartChar: divide
Encoding: 247 247 185
Width: 1229
GlyphClass: 1
Flags: W
LayerCount: 2
Fore
SplineSet
1113 600 m 1,0,-1
 1113 784 l 1,1,-1
 115 784 l 1,2,-1
 115 600 l 1,3,-1
 1113 600 l 1,0,-1
507 1097 m 256,4,5
 507 1052 507 1052 534.5 1022 c 128,-1,6
 562 992 562 992 616 992 c 256,7,8
 670 992 670 992 698 1022 c 128,-1,9
 726 1052 726 1052 726 1097 c 256,10,11
 726 1142 726 1142 698 1173 c 128,-1,12
 670 1204 670 1204 616 1204 c 256,13,14
 562 1204 562 1204 534.5 1173 c 128,-1,15
 507 1142 507 1142 507 1097 c 256,4,5
505 282 m 0,16,17
 505 238 505 238 532.5 207.5 c 128,-1,18
 560 177 560 177 614 177 c 256,19,20
 668 177 668 177 696 207.5 c 128,-1,21
 724 238 724 238 724 282 c 0,22,23
 724 327 724 327 696 358 c 128,-1,24
 668 389 668 389 614 389 c 256,25,26
 560 389 560 389 532.5 358 c 128,-1,27
 505 327 505 327 505 282 c 0,16,17
EndSplineSet
EndChar

StartChar: oslash
Encoding: 248 248 186
Width: 1229
GlyphClass: 1
Flags: W
LayerCount: 2
Fore
SplineSet
122 551 m 2,0,-1
 122 529 l 2,1,2
 122 381 122 381 175 262 c 128,-1,3
 228 143 228 143 327 70 c 1,4,-1
 226 -135 l 1,5,-1
 349 -135 l 1,6,-1
 423 16 l 1,7,8
 466 -1 466 -1 513.5 -10.5 c 128,-1,9
 561 -20 561 -20 615 -20 c 0,10,11
 729 -20 729 -20 820 22 c 128,-1,12
 911 64 911 64 975 138 c 0,13,14
 1038 212 1038 212 1072 312 c 128,-1,15
 1106 412 1106 412 1106 529 c 2,16,-1
 1106 551 l 2,17,18
 1106 627 1106 627 1091.5 696.5 c 128,-1,19
 1077 766 1077 766 1050 825 c 0,20,21
 1026 878 1026 878 990.5 923.5 c 128,-1,22
 955 969 955 969 911 1004 c 1,23,-1
 1012 1209 l 1,24,-1
 889 1209 l 1,25,-1
 816 1061 l 1,26,27
 771 1081 771 1081 720.5 1091.5 c 128,-1,28
 670 1102 670 1102 613 1102 c 0,29,30
 499 1102 499 1102 408 1059.5 c 128,-1,31
 317 1017 317 1017 254 943 c 0,32,33
 190 869 190 869 156 768.5 c 128,-1,34
 122 668 122 668 122 551 c 2,0,-1
307 529 m 2,35,-1
 307 551 l 2,36,37
 307 630 307 630 326 702.5 c 128,-1,38
 345 775 345 775 384 830 c 0,39,40
 422 885 422 885 479 917.5 c 128,-1,41
 536 950 536 950 613 950 c 0,42,43
 651 950 651 950 683.5 941.5 c 128,-1,44
 716 933 716 933 745 918 c 1,45,-1
 403 224 l 1,46,47
 355 281 355 281 331 359.5 c 128,-1,48
 307 438 307 438 307 529 c 2,35,-1
921 551 m 2,49,-1
 921 529 l 2,50,51
 921 449 921 449 902 376.5 c 128,-1,52
 883 304 883 304 845 249 c 0,53,54
 806 194 806 194 748.5 162 c 128,-1,55
 691 130 691 130 615 130 c 0,56,57
 581 130 581 130 550.5 136.5 c 128,-1,58
 520 143 520 143 492 156 c 1,59,-1
 832 845 l 1,60,61
 850 823 850 823 864 797 c 128,-1,62
 878 771 878 771 889 743 c 0,63,64
 905 700 905 700 913 651.5 c 128,-1,65
 921 603 921 603 921 551 c 2,49,-1
EndSplineSet
EndChar

StartChar: thorn
Encoding: 254 254 192
Width: 1229
GlyphClass: 1
Flags: W
LayerCount: 2
Fore
SplineSet
1087 529 m 2,0,-1
 1087 550 l 2,1,2
 1087 671 1087 671 1060 772.5 c 128,-1,3
 1033 874 1033 874 980 947 c 256,4,5
 927 1020 927 1020 848 1061 c 128,-1,6
 769 1102 769 1102 665 1102 c 0,7,8
 607 1102 607 1102 556.5 1090.5 c 128,-1,9
 506 1079 506 1079 464 1056 c 0,10,11
 434 1040 434 1040 407.5 1018.5 c 128,-1,12
 381 997 381 997 358 970 c 1,13,-1
 358 1558 l 1,14,-1
 173 1558 l 1,15,-1
 173 -416 l 1,16,-1
 358 -416 l 1,17,-1
 358 107 l 1,18,19
 381 81 381 81 407.5 60.5 c 128,-1,20
 434 40 434 40 464 25 c 0,21,22
 507 3 507 3 558 -8.5 c 128,-1,23
 609 -20 609 -20 668 -20 c 0,24,25
 770 -20 770 -20 848 22 c 128,-1,26
 926 64 926 64 980 138 c 0,27,28
 1033 212 1033 212 1060 312.5 c 128,-1,29
 1087 413 1087 413 1087 529 c 2,0,-1
902 550 m 2,30,-1
 902 529 l 2,31,32
 902 450 902 450 885 378 c 128,-1,33
 868 306 868 306 833 251 c 256,34,35
 798 196 798 196 743 163.5 c 128,-1,36
 688 131 688 131 612 131 c 0,37,38
 562 131 562 131 521 143.5 c 128,-1,39
 480 156 480 156 448 178 c 0,40,41
 420 197 420 197 398 222.5 c 128,-1,42
 376 248 376 248 358 278 c 1,43,-1
 358 796 l 1,44,45
 376 828 376 828 399.5 855 c 128,-1,46
 423 882 423 882 453 901 c 0,47,48
 484 922 484 922 523.5 933.5 c 128,-1,49
 563 945 563 945 610 945 c 0,50,51
 687 945 687 945 742 913 c 128,-1,52
 797 881 797 881 833 827 c 0,53,54
 868 772 868 772 885 700.5 c 128,-1,55
 902 629 902 629 902 550 c 2,30,-1
EndSplineSet
EndChar

StartChar: Aogonek
Encoding: 260 260 198
Width: 1229
GlyphClass: 1
Flags: W
LayerCount: 2
Fore
SplineSet
706 1456 m 1,0,-1
 551 1456 l 1,1,-1
 81 0 l 1,2,-1
 266 0 l 1,3,-1
 383 377 l 1,4,-1
 869 377 l 1,5,-1
 976 25 l 1,6,7
 946 7 946 7 920 -12.5 c 128,-1,8
 894 -32 894 -32 874 -56 c 0,9,10
 835 -102 835 -102 811 -149 c 128,-1,11
 787 -196 787 -196 787 -243 c 256,12,13
 787 -290 787 -290 802 -325.5 c 128,-1,14
 817 -361 817 -361 843 -385 c 256,15,16
 869 -409 869 -409 904 -421 c 128,-1,17
 939 -433 939 -433 980 -433 c 0,18,19
 1045 -433 1045 -433 1087.5 -419 c 128,-1,20
 1130 -405 1130 -405 1158 -389 c 1,21,-1
 1127 -268 l 1,22,23
 1111 -276 1111 -276 1084.5 -285.5 c 128,-1,24
 1058 -295 1058 -295 1026 -294 c 0,25,26
 984 -294 984 -294 966 -273.5 c 128,-1,27
 948 -253 948 -253 948 -219 c 0,28,29
 948 -183 948 -183 962.5 -149.5 c 128,-1,30
 977 -116 977 -116 1004 -87 c 0,31,32
 1026 -63 1026 -63 1055.5 -41 c 128,-1,33
 1085 -19 1085 -19 1120 0 c 1,34,-1
 1168 0 l 1,35,-1
 706 1456 l 1,0,-1
433 538 m 1,36,-1
 628 1170 l 1,37,-1
 820 538 l 1,38,-1
 433 538 l 1,36,-1
EndSplineSet
Substitution2: "'smcp' Lowercase to Small Capitals lookup 0 subtable" Aogonek.smcp
EndChar

StartChar: aogonek
Encoding: 261 261 199
Width: 1229
GlyphClass: 1
Flags: W
LayerCount: 2
Fore
SplineSet
879 14 m 1,0,1
 846 -8 846 -8 818.5 -32.5 c 128,-1,2
 791 -57 791 -57 770 -84 c 0,3,4
 740 -121 740 -121 723.5 -162 c 128,-1,5
 707 -203 707 -203 707 -243 c 0,6,7
 707 -290 707 -290 722 -325.5 c 128,-1,8
 737 -361 737 -361 763 -385 c 256,9,10
 789 -409 789 -409 824 -421 c 128,-1,11
 859 -433 859 -433 900 -433 c 0,12,13
 965 -433 965 -433 1007.5 -419 c 128,-1,14
 1050 -405 1050 -405 1078 -389 c 1,15,-1
 1047 -268 l 1,16,17
 1031 -276 1031 -276 1004.5 -285.5 c 128,-1,18
 978 -295 978 -295 946 -294 c 0,19,20
 904 -294 904 -294 886 -273.5 c 128,-1,21
 868 -253 868 -253 868 -219 c 0,22,23
 868 -189 868 -189 878 -161 c 128,-1,24
 888 -133 888 -133 907 -108 c 0,25,26
 929 -77 929 -77 963 -50 c 128,-1,27
 997 -23 997 -23 1040 0 c 1,28,-1
 1078 0 l 1,29,-1
 1078 16 l 1,30,31
 1060 61 1060 61 1050 121.5 c 128,-1,32
 1040 182 1040 182 1040 236 c 2,33,-1
 1040 739 l 2,34,35
 1040 830 1040 830 1007 898 c 128,-1,36
 974 966 974 966 917 1012 c 0,37,38
 859 1057 859 1057 780 1079.5 c 128,-1,39
 701 1102 701 1102 609 1102 c 0,40,41
 508 1102 508 1102 428.5 1074 c 128,-1,42
 349 1046 349 1046 294 1001 c 0,43,44
 238 955 238 955 208.5 898 c 128,-1,45
 179 841 179 841 178 782 c 1,46,-1
 364 782 l 1,47,48
 364 816 364 816 380.5 847.5 c 128,-1,49
 397 879 397 879 427 902 c 256,50,51
 457 925 457 925 500.5 939 c 128,-1,52
 544 953 544 953 599 953 c 0,53,54
 658 953 658 953 705.5 938 c 128,-1,55
 753 923 753 923 786 896 c 0,56,57
 819 868 819 868 837 829 c 128,-1,58
 855 790 855 790 855 741 c 2,59,-1
 855 656 l 1,60,-1
 653 656 l 2,61,62
 540 656 540 656 448.5 634 c 128,-1,63
 357 612 357 612 292 568 c 0,64,65
 227 523 227 523 191.5 456 c 128,-1,66
 156 389 156 389 156 300 c 0,67,68
 156 232 156 232 182.5 173.5 c 128,-1,69
 209 115 209 115 258 73 c 0,70,71
 306 30 306 30 375.5 5 c 128,-1,72
 445 -20 445 -20 531 -20 c 0,73,74
 584 -20 584 -20 631 -9 c 128,-1,75
 678 2 678 2 720 21 c 0,76,77
 761 40 761 40 795.5 65 c 128,-1,78
 830 90 830 90 858 118 c 1,79,80
 861 89 861 89 866 62 c 128,-1,81
 871 35 871 35 879 14 c 1,0,1
558 141 m 256,82,83
 504 141 504 141 463 155 c 128,-1,84
 422 169 422 169 395 194 c 0,85,86
 368 218 368 218 354.5 252 c 128,-1,87
 341 286 341 286 341 326 c 0,88,89
 341 368 341 368 356 400.5 c 128,-1,90
 371 433 371 433 400 456 c 0,91,92
 442 491 442 491 514 508 c 128,-1,93
 586 525 586 525 683 525 c 2,94,-1
 855 525 l 1,95,-1
 855 306 l 1,96,97
 839 274 839 274 811 244.5 c 128,-1,98
 783 215 783 215 745 192 c 0,99,100
 706 169 706 169 659 155 c 128,-1,101
 612 141 612 141 558 141 c 256,82,83
EndSplineSet
Substitution2: "'smcp' Lowercase to Small Capitals lookup 0 subtable" Aogonek.smcp
EndChar

StartChar: Dcroat
Encoding: 272 272 210
Width: 1229
GlyphClass: 1
Flags: W
LayerCount: 2
Fore
SplineSet
170 0 m 1,0,-1
 507 0 l 2,1,2
 659 1 659 1 778.5 50.5 c 128,-1,3
 898 100 898 100 981 189 c 0,4,5
 1063 277 1063 277 1106.5 400.5 c 128,-1,6
 1150 524 1150 524 1151 674 c 2,7,-1
 1151 781 l 2,8,9
 1150 931 1150 931 1106.5 1054.5 c 128,-1,10
 1063 1178 1063 1178 981 1267 c 0,11,12
 898 1355 898 1355 778.5 1404.5 c 128,-1,13
 659 1454 659 1454 507 1456 c 2,14,-1
 170 1456 l 1,15,-1
 170 817 l 1,16,-1
 -59 817 l 1,17,-1
 -59 666 l 1,18,-1
 170 666 l 1,19,-1
 170 0 l 1,0,-1
578 666 m 1,20,-1
 578 817 l 1,21,-1
 358 817 l 1,22,-1
 358 1304 l 1,23,-1
 507 1304 l 2,24,25
 625 1302 625 1302 711 1262 c 128,-1,26
 797 1222 797 1222 853 1153 c 0,27,28
 909 1083 909 1083 937 988.5 c 128,-1,29
 965 894 965 894 966 783 c 2,30,-1
 966 674 l 2,31,32
 965 563 965 563 937.5 468 c 128,-1,33
 910 373 910 373 854 303 c 0,34,35
 797 233 797 233 711 192.5 c 128,-1,36
 625 152 625 152 507 151 c 2,37,-1
 358 151 l 1,38,-1
 358 666 l 1,39,-1
 578 666 l 1,20,-1
EndSplineSet
Substitution2: "'smcp' Lowercase to Small Capitals lookup 0 subtable" Dcroat.smcp
EndChar

StartChar: dcroat
Encoding: 273 273 211
Width: 1229
GlyphClass: 1
Flags: W
LayerCount: 2
Fore
SplineSet
1234 1234 m 1,0,-1
 1234 1385 l 1,1,-1
 1037 1385 l 1,2,-1
 1037 1536 l 1,3,-1
 852 1536 l 1,4,-1
 852 1385 l 1,5,-1
 597 1385 l 1,6,-1
 597 1234 l 1,7,-1
 852 1234 l 1,8,-1
 852 975 l 1,9,10
 832 998 832 998 809.5 1017.5 c 128,-1,11
 787 1037 787 1037 761 1052 c 0,12,13
 719 1077 719 1077 668 1089.5 c 128,-1,14
 617 1102 617 1102 557 1102 c 0,15,16
 458 1102 458 1102 378 1061 c 128,-1,17
 298 1020 298 1020 242 947 c 0,18,19
 185 874 185 874 154.5 772.5 c 128,-1,20
 124 671 124 671 124 550 c 2,21,-1
 124 529 l 2,22,23
 124 413 124 413 155 312.5 c 128,-1,24
 186 212 186 212 242 138 c 256,25,26
 298 64 298 64 377.5 22 c 128,-1,27
 457 -20 457 -20 555 -20 c 0,28,29
 610 -20 610 -20 657.5 -9.5 c 128,-1,30
 705 1 705 1 745 21 c 0,31,32
 778 38 778 38 806.5 61 c 128,-1,33
 835 84 835 84 859 114 c 1,34,-1
 867 0 l 1,35,-1
 1037 0 l 1,36,-1
 1037 1234 l 1,37,-1
 1234 1234 l 1,0,-1
309 529 m 2,38,-1
 309 550 l 2,39,40
 309 629 309 629 326 700.5 c 128,-1,41
 343 772 343 772 379 827 c 0,42,43
 414 881 414 881 469.5 913 c 128,-1,44
 525 945 525 945 603 945 c 0,45,46
 644 945 644 945 679.5 935.5 c 128,-1,47
 715 926 715 926 744 910 c 0,48,49
 778 890 778 890 805 860 c 128,-1,50
 832 830 832 830 852 794 c 1,51,-1
 852 292 l 1,52,53
 834 257 834 257 810 228.5 c 128,-1,54
 786 200 786 200 755 180 c 0,55,56
 724 159 724 159 686 148 c 128,-1,57
 648 137 648 137 601 137 c 0,58,59
 524 137 524 137 469 168.5 c 128,-1,60
 414 200 414 200 379 254 c 0,61,62
 343 308 343 308 326 379 c 128,-1,63
 309 450 309 450 309 529 c 2,38,-1
EndSplineSet
Substitution2: "'smcp' Lowercase to Small Capitals lookup 0 subtable" Dcroat.smcp
EndChar

StartChar: Eogonek
Encoding: 280 280 218
Width: 1229
GlyphClass: 1
Flags: W
LayerCount: 2
Fore
SplineSet
975 673 m 1,0,-1
 975 830 l 1,1,-1
 367 830 l 1,2,-1
 367 1298 l 1,3,-1
 1067 1298 l 1,4,-1
 1067 1456 l 1,5,-1
 182 1456 l 1,6,-1
 182 0 l 1,7,-1
 811 0 l 1,8,9
 784 -20 784 -20 760.5 -42 c 128,-1,10
 737 -64 737 -64 720 -87 c 0,11,12
 690 -124 690 -124 674.5 -164 c 128,-1,13
 659 -204 659 -204 659 -243 c 0,14,15
 659 -290 659 -290 674 -325.5 c 128,-1,16
 689 -361 689 -361 715 -385 c 256,17,18
 741 -409 741 -409 776 -421 c 128,-1,19
 811 -433 811 -433 852 -433 c 0,20,21
 917 -433 917 -433 959.5 -419 c 128,-1,22
 1002 -405 1002 -405 1030 -389 c 1,23,-1
 999 -268 l 1,24,25
 983 -276 983 -276 956.5 -285.5 c 128,-1,26
 930 -295 930 -295 898 -294 c 0,27,28
 856 -294 856 -294 838 -273.5 c 128,-1,29
 820 -253 820 -253 820 -219 c 0,30,31
 820 -183 820 -183 835 -149 c 128,-1,32
 850 -115 850 -115 877 -86 c 0,33,34
 899 -62 899 -62 928 -40.5 c 128,-1,35
 957 -19 957 -19 992 0 c 1,36,-1
 1076 0 l 1,37,-1
 1076 157 l 1,38,-1
 367 157 l 1,39,-1
 367 673 l 1,40,-1
 975 673 l 1,0,-1
EndSplineSet
Substitution2: "'smcp' Lowercase to Small Capitals lookup 0 subtable" Eogonek.smcp
EndChar

StartChar: eogonek
Encoding: 281 281 219
Width: 1229
GlyphClass: 1
Flags: W
LayerCount: 2
Fore
SplineSet
135 503 m 2,0,1
 135 392 135 392 171.5 297.5 c 128,-1,2
 208 203 208 203 275 134 c 0,3,4
 340 65 340 65 431 25 c 128,-1,5
 522 -15 522 -15 632 -19 c 0,6,7
 633 -19 633 -19 634.5 -19 c 128,-1,8
 636 -19 636 -19 637 -19 c 1,9,10
 586 -67 586 -67 558.5 -119.5 c 128,-1,11
 531 -172 531 -172 531 -225 c 0,12,13
 531 -272 531 -272 546 -307.5 c 128,-1,14
 561 -343 561 -343 587 -367 c 256,15,16
 613 -391 613 -391 648 -403 c 128,-1,17
 683 -415 683 -415 724 -415 c 0,18,19
 789 -415 789 -415 831.5 -401 c 128,-1,20
 874 -387 874 -387 902 -371 c 1,21,-1
 871 -250 l 1,22,23
 855 -258 855 -258 828.5 -267.5 c 128,-1,24
 802 -277 802 -277 770 -276 c 0,25,26
 728 -276 728 -276 710 -255.5 c 128,-1,27
 692 -235 692 -235 692 -201 c 0,28,29
 692 -163 692 -163 708 -128.5 c 128,-1,30
 724 -94 724 -94 752 -64 c 0,31,32
 774 -41 774 -41 802.5 -20.5 c 128,-1,33
 831 0 831 0 864 18 c 1,34,35
 933 43 933 43 989 90.5 c 128,-1,36
 1045 138 1045 138 1079 189 c 1,37,-1
 966 277 l 1,38,39
 915 211 915 211 838 171 c 128,-1,40
 761 131 761 131 662 131 c 0,41,42
 587 131 587 131 524.5 159.5 c 128,-1,43
 462 188 462 188 419 235 c 0,44,45
 370 288 370 288 345 357.5 c 128,-1,46
 320 427 320 427 320 487 c 2,47,-1
 320 488 l 1,48,-1
 1093 488 l 1,49,-1
 1093 571 l 2,50,51
 1093 684 1093 684 1064.5 781 c 128,-1,52
 1036 878 1036 878 978 950 c 0,53,54
 920 1021 920 1021 832.5 1061.5 c 128,-1,55
 745 1102 745 1102 628 1102 c 0,56,57
 535 1102 535 1102 446.5 1064 c 128,-1,58
 358 1026 358 1026 289 955 c 0,59,60
 219 883 219 883 177 779.5 c 128,-1,61
 135 676 135 676 135 545 c 2,62,-1
 135 503 l 2,0,1
628 950 m 0,63,64
 699 950 699 950 750 924 c 128,-1,65
 801 898 801 898 836 856 c 0,66,67
 867 818 867 818 887.5 760 c 128,-1,68
 908 702 908 702 908 647 c 2,69,-1
 908 640 l 1,70,-1
 326 640 l 1,71,72
 337 715 337 715 364.5 772.5 c 128,-1,73
 392 830 392 830 432 870 c 0,74,75
 472 909 472 909 522 929.5 c 128,-1,76
 572 950 572 950 628 950 c 0,63,64
EndSplineSet
Substitution2: "'smcp' Lowercase to Small Capitals lookup 0 subtable" Eogonek.smcp
EndChar

StartChar: Hbar
Encoding: 294 294 232
Width: 1229
GlyphClass: 1
Flags: W
LayerCount: 2
Fore
SplineSet
1084 1167 m 1,0,-1
 1084 1456 l 1,1,-1
 909 1456 l 1,2,-1
 909 1167 l 1,3,-1
 312 1167 l 1,4,-1
 312 1456 l 1,5,-1
 138 1456 l 1,6,-1
 138 1167 l 1,7,-1
 24 1167 l 1,8,-1
 24 1024 l 1,9,-1
 138 1024 l 1,10,-1
 138 0 l 1,11,-1
 312 0 l 1,12,-1
 312 673 l 1,13,-1
 909 673 l 1,14,-1
 909 0 l 1,15,-1
 1084 0 l 1,16,-1
 1084 1024 l 1,17,-1
 1212 1024 l 1,18,-1
 1212 1167 l 1,19,-1
 1084 1167 l 1,0,-1
312 830 m 1,20,-1
 312 1024 l 1,21,-1
 909 1024 l 1,22,-1
 909 830 l 1,23,-1
 312 830 l 1,20,-1
EndSplineSet
EndChar

StartChar: hbar
Encoding: 295 295 233
Width: 1229
GlyphClass: 1
Flags: W
LayerCount: 2
Fore
SplineSet
648 1234 m 1,0,-1
 648 1385 l 1,1,-1
 374 1385 l 1,2,-1
 374 1536 l 1,3,-1
 189 1536 l 1,4,-1
 189 1385 l 1,5,-1
 11 1385 l 1,6,-1
 11 1234 l 1,7,-1
 189 1234 l 1,8,-1
 189 0 l 1,9,-1
 374 0 l 1,10,-1
 374 786 l 1,11,12
 394 818 394 818 419 844.5 c 128,-1,13
 444 871 444 871 474 891 c 0,14,15
 512 917 512 917 557.5 931 c 128,-1,16
 603 945 603 945 653 945 c 0,17,18
 712 946 712 946 758.5 929.5 c 128,-1,19
 805 913 805 913 836 880 c 0,20,21
 866 848 866 848 882 798.5 c 128,-1,22
 898 749 898 749 898 683 c 2,23,-1
 898 0 l 1,24,-1
 1083 0 l 1,25,-1
 1083 681 l 2,26,27
 1083 790 1083 790 1056.5 869.5 c 128,-1,28
 1030 949 1030 949 981 1001 c 256,29,30
 932 1053 932 1053 862.5 1077.5 c 128,-1,31
 793 1102 793 1102 708 1102 c 0,32,33
 652 1101 652 1101 601.5 1087.5 c 128,-1,34
 551 1074 551 1074 507 1048 c 0,35,36
 468 1025 468 1025 434.5 993 c 128,-1,37
 401 961 401 961 374 921 c 1,38,-1
 374 1234 l 1,39,-1
 648 1234 l 1,0,-1
EndSplineSet
EndChar

StartChar: Iogonek
Encoding: 302 302 240
Width: 1229
GlyphClass: 1
Flags: W
LayerCount: 2
Fore
SplineSet
174 1456 m 1,0,-1
 174 1295 l 1,1,-1
 515 1295 l 1,2,-1
 515 160 l 1,3,-1
 174 160 l 1,4,-1
 174 0 l 1,5,-1
 581 0 l 1,6,7
 556 -18 556 -18 535 -37.5 c 128,-1,8
 514 -57 514 -57 497 -78 c 0,9,10
 464 -117 464 -117 446.5 -159.5 c 128,-1,11
 429 -202 429 -202 429 -243 c 0,12,13
 429 -290 429 -290 444 -325.5 c 128,-1,14
 459 -361 459 -361 485 -385 c 256,15,16
 511 -409 511 -409 546 -421 c 128,-1,17
 581 -433 581 -433 622 -433 c 0,18,19
 687 -433 687 -433 729.5 -419 c 128,-1,20
 772 -405 772 -405 800 -389 c 1,21,-1
 769 -268 l 1,22,23
 753 -276 753 -276 726.5 -285.5 c 128,-1,24
 700 -295 700 -295 668 -294 c 0,25,26
 626 -294 626 -294 608 -273.5 c 128,-1,27
 590 -253 590 -253 590 -219 c 0,28,29
 590 -182 590 -182 605.5 -147.5 c 128,-1,30
 621 -113 621 -113 650 -83 c 0,31,32
 671 -60 671 -60 699.5 -39 c 128,-1,33
 728 -18 728 -18 762 0 c 1,34,-1
 1054 0 l 1,35,-1
 1054 160 l 1,36,-1
 705 160 l 1,37,-1
 705 1295 l 1,38,-1
 1054 1295 l 1,39,-1
 1054 1456 l 1,40,-1
 174 1456 l 1,0,-1
EndSplineSet
Substitution2: "'smcp' Lowercase to Small Capitals lookup 0 subtable" Iogonek.smcp
EndChar

StartChar: iogonek
Encoding: 303 303 241
Width: 1229
GlyphClass: 1
Flags: W
LayerCount: 2
Fore
SplineSet
203 1082 m 1,0,-1
 203 921 l 1,1,-1
 571 921 l 1,2,-1
 571 160 l 1,3,-1
 203 160 l 1,4,-1
 203 0 l 1,5,-1
 575 0 l 1,6,7
 552 -17 552 -17 531.5 -35.5 c 128,-1,8
 511 -54 511 -54 495 -74 c 0,9,10
 460 -114 460 -114 441.5 -157 c 128,-1,11
 423 -200 423 -200 423 -243 c 0,12,13
 423 -290 423 -290 438 -325.5 c 128,-1,14
 453 -361 453 -361 479 -385 c 256,15,16
 505 -409 505 -409 540 -421 c 128,-1,17
 575 -433 575 -433 616 -433 c 0,18,19
 681 -433 681 -433 723.5 -419 c 128,-1,20
 766 -405 766 -405 794 -389 c 1,21,-1
 763 -268 l 1,22,23
 747 -276 747 -276 720.5 -285.5 c 128,-1,24
 694 -295 694 -295 662 -294 c 0,25,26
 620 -294 620 -294 602 -273.5 c 128,-1,27
 584 -253 584 -253 584 -219 c 0,28,29
 584 -184 584 -184 598 -151.5 c 128,-1,30
 612 -119 612 -119 637 -91 c 0,31,32
 659 -65 659 -65 689 -42.5 c 128,-1,33
 719 -20 719 -20 756 0 c 1,34,-1
 1109 0 l 1,35,-1
 1109 160 l 1,36,-1
 756 160 l 1,37,-1
 756 1082 l 1,38,-1
 203 1082 l 1,0,-1
547 1366 m 0,39,40
 547 1321 547 1321 574.5 1291 c 128,-1,41
 602 1261 602 1261 658 1261 c 0,42,43
 713 1261 713 1261 741 1291 c 128,-1,44
 769 1321 769 1321 769 1366 c 0,45,46
 769 1412 769 1412 741 1443.5 c 128,-1,47
 713 1475 713 1475 658 1475 c 0,48,49
 602 1475 602 1475 574.5 1443.5 c 128,-1,50
 547 1412 547 1412 547 1366 c 0,39,40
EndSplineSet
Substitution2: "'smcp' Lowercase to Small Capitals lookup 0 subtable" Iogonek.smcp
EndChar

StartChar: dotlessi
Encoding: 305 305 243
Width: 1229
GlyphClass: 1
Flags: W
LayerCount: 2
Fore
SplineSet
203 1082 m 1,0,-1
 203 921 l 1,1,-1
 571 921 l 1,2,-1
 571 160 l 1,3,-1
 203 160 l 1,4,-1
 203 0 l 1,5,-1
 1109 0 l 1,6,-1
 1109 160 l 1,7,-1
 756 160 l 1,8,-1
 756 1082 l 1,9,-1
 203 1082 l 1,0,-1
EndSplineSet
EndChar

StartChar: IJ
Encoding: 306 306 244
Width: 1229
GlyphClass: 1
Flags: W
LayerCount: 2
Fore
SplineSet
313 0 m 1,0,-1
 313 1456 l 1,1,-1
 128 1456 l 1,2,-1
 128 0 l 1,3,-1
 313 0 l 1,0,-1
915 1456 m 1,4,-1
 915 323 l 2,5,6
 915 279 915 279 907.5 243.5 c 128,-1,7
 900 208 900 208 882 184 c 0,8,9
 864 159 864 159 834 145.5 c 128,-1,10
 804 132 804 132 758 132 c 0,11,12
 690 132 690 132 650 177 c 128,-1,13
 610 222 610 222 610 321 c 1,14,-1
 424 321 l 1,15,16
 424 234 424 234 449 170 c 128,-1,17
 474 106 474 106 518 64 c 256,18,19
 562 22 562 22 623.5 1.5 c 128,-1,20
 685 -19 685 -19 758 -19 c 0,21,22
 845 -19 845 -19 909.5 4 c 128,-1,23
 974 27 974 27 1017 71 c 0,24,25
 1059 115 1059 115 1079.5 178.5 c 128,-1,26
 1100 242 1100 242 1100 323 c 2,27,-1
 1100 1456 l 1,28,-1
 915 1456 l 1,4,-1
EndSplineSet
EndChar

StartChar: ij
Encoding: 307 307 245
Width: 1229
GlyphClass: 1
Flags: W
LayerCount: 2
Fore
SplineSet
686 1082 m 1,0,-1
 686 921 l 1,1,-1
 908 921 l 1,2,-1
 908 -5 l 2,3,4
 908 -82 908 -82 888.5 -133.5 c 128,-1,5
 869 -185 869 -185 835 -215 c 0,6,7
 801 -246 801 -246 755 -258.5 c 128,-1,8
 709 -271 709 -271 657 -271 c 0,9,10
 643 -271 643 -271 619 -270.5 c 128,-1,11
 595 -270 595 -270 568 -268 c 0,12,13
 541 -267 541 -267 515 -264.5 c 128,-1,14
 489 -262 489 -262 472 -259 c 1,15,-1
 459 -417 l 1,16,17
 482 -421 482 -421 504 -424 c 128,-1,18
 526 -427 526 -427 547 -429 c 0,19,20
 577 -432 577 -432 607 -433 c 128,-1,21
 637 -434 637 -434 670 -434 c 0,22,23
 770 -434 770 -434 848.5 -406 c 128,-1,24
 927 -378 927 -378 982 -323 c 0,25,26
 1036 -268 1036 -268 1064.5 -188.5 c 128,-1,27
 1093 -109 1093 -109 1093 -5 c 2,28,-1
 1093 1082 l 1,29,-1
 686 1082 l 1,0,-1
85 1082 m 1,30,-1
 85 921 l 1,31,-1
 319 921 l 1,32,-1
 319 160 l 1,33,-1
 80 160 l 1,34,-1
 80 0 l 1,35,-1
 728 0 l 1,36,-1
 728 160 l 1,37,-1
 505 160 l 1,38,-1
 505 1082 l 1,39,-1
 85 1082 l 1,30,-1
303 1362 m 256,40,41
 303 1317 303 1317 330.5 1286.5 c 128,-1,42
 358 1256 358 1256 414 1256 c 0,43,44
 469 1256 469 1256 497 1286.5 c 128,-1,45
 525 1317 525 1317 525 1362 c 256,46,47
 525 1407 525 1407 497 1438.5 c 128,-1,48
 469 1470 469 1470 414 1470 c 0,49,50
 358 1470 358 1470 330.5 1438.5 c 128,-1,51
 303 1407 303 1407 303 1362 c 256,40,41
881 1363 m 256,52,53
 881 1318 881 1318 908 1287.5 c 128,-1,54
 935 1257 935 1257 991 1257 c 256,55,56
 1047 1257 1047 1257 1075 1287.5 c 128,-1,57
 1103 1318 1103 1318 1103 1363 c 256,58,59
 1103 1408 1103 1408 1075 1439.5 c 128,-1,60
 1047 1471 1047 1471 991 1471 c 256,61,62
 935 1471 935 1471 908 1439.5 c 128,-1,63
 881 1408 881 1408 881 1363 c 256,52,53
EndSplineSet
EndChar

StartChar: kgreenlandic
Encoding: 312 312 250
Width: 1229
GlyphClass: 1
Flags: W
LayerCount: 2
Fore
SplineSet
521 477 m 1,0,-1
 904 0 l 1,1,-1
 1138 0 l 1,2,-1
 646 603 l 1,3,-1
 1102 1082 l 1,4,-1
 879 1082 l 1,5,-1
 481 671 l 1,6,-1
 371 551 l 1,7,-1
 371 1082 l 1,8,-1
 186 1082 l 1,9,-1
 186 0 l 1,10,-1
 371 0 l 1,11,-1
 371 344 l 1,12,-1
 521 477 l 1,0,-1
EndSplineSet
EndChar

StartChar: Lslash
Encoding: 321 321 259
Width: 1229
GlyphClass: 1
Flags: W
LayerCount: 2
Fore
SplineSet
387 845 m 1,0,-1
 387 1456 l 1,1,-1
 202 1456 l 1,2,-1
 202 786 l 1,3,-1
 58 741 l 1,4,-1
 58 579 l 1,5,-1
 202 624 l 1,6,-1
 202 0 l 1,7,-1
 1099 0 l 1,8,-1
 1099 157 l 1,9,-1
 387 157 l 1,10,-1
 387 683 l 1,11,-1
 649 766 l 1,12,-1
 649 928 l 1,13,-1
 387 845 l 1,0,-1
EndSplineSet
EndChar

StartChar: lslash
Encoding: 322 322 260
Width: 1229
GlyphClass: 1
Flags: W
LayerCount: 2
Fore
SplineSet
756 973 m 1,0,-1
 756 1536 l 1,1,-1
 203 1536 l 1,2,-1
 203 1375 l 1,3,-1
 571 1375 l 1,4,-1
 571 888 l 1,5,-1
 232 734 l 1,6,-1
 232 572 l 1,7,-1
 571 726 l 1,8,-1
 571 160 l 1,9,-1
 203 160 l 1,10,-1
 203 0 l 1,11,-1
 1109 0 l 1,12,-1
 1109 160 l 1,13,-1
 756 160 l 1,14,-1
 756 811 l 1,15,-1
 1045 943 l 1,16,-1
 1046 1105 l 1,17,-1
 756 973 l 1,0,-1
EndSplineSet
EndChar

StartChar: Eng
Encoding: 330 330 268
Width: 1229
GlyphClass: 1
Flags: W
LayerCount: 2
Fore
SplineSet
1052 1456 m 1,0,-1
 867 1456 l 1,1,-1
 867 389 l 1,2,-1
 363 1450 l 1,3,-1
 360 1456 l 1,4,-1
 175 1456 l 1,5,-1
 175 0 l 1,6,-1
 360 0 l 1,7,-1
 360 1069 l 1,8,-1
 867 2 l 1,9,-1
 867 -89 l 2,10,11
 867 -142 867 -142 854.5 -183.5 c 128,-1,12
 842 -225 842 -225 818 -251 c 0,13,14
 802 -267 802 -267 781.5 -276 c 128,-1,15
 761 -285 761 -285 735 -285 c 0,16,17
 717 -285 717 -285 688 -281.5 c 128,-1,18
 659 -278 659 -278 639 -272 c 1,19,-1
 625 -419 l 1,20,21
 654 -429 654 -429 679.5 -433 c 128,-1,22
 705 -437 705 -437 735 -437 c 0,23,24
 811 -437 811 -437 870 -413.5 c 128,-1,25
 929 -390 929 -390 970 -345 c 0,26,27
 1010 -300 1010 -300 1031.5 -235.5 c 128,-1,28
 1053 -171 1053 -171 1053 -89 c 2,29,-1
 1052 1456 l 1,0,-1
EndSplineSet
EndChar

StartChar: eng
Encoding: 331 331 269
Width: 1229
GlyphClass: 1
Flags: W
LayerCount: 2
Fore
SplineSet
184 0 m 1,0,-1
 369 0 l 1,1,-1
 369 810 l 1,2,3
 385 836 385 836 405.5 858.5 c 128,-1,4
 426 881 426 881 451 898 c 0,5,6
 484 921 484 921 528 933 c 128,-1,7
 572 945 572 945 626 945 c 0,8,9
 688 945 688 945 733.5 929 c 128,-1,10
 779 913 779 913 808 878 c 0,11,12
 835 846 835 846 848.5 796 c 128,-1,13
 862 746 862 746 862 678 c 2,14,-1
 862 -89 l 2,15,16
 862 -142 862 -142 849.5 -181 c 128,-1,17
 837 -220 837 -220 812 -243 c 0,18,19
 796 -259 796 -259 773.5 -267 c 128,-1,20
 751 -275 751 -275 724 -275 c 0,21,22
 705 -275 705 -275 675 -271.5 c 128,-1,23
 645 -268 645 -268 624 -262 c 1,24,-1
 610 -419 l 1,25,26
 640 -429 640 -429 667 -433 c 128,-1,27
 694 -437 694 -437 724 -437 c 0,28,29
 797 -437 797 -437 855 -416 c 128,-1,30
 913 -395 913 -395 953 -356 c 0,31,32
 999 -312 999 -312 1023 -244.5 c 128,-1,33
 1047 -177 1047 -177 1047 -89 c 2,34,-1
 1047 682 l 2,35,36
 1047 790 1047 790 1022 869.5 c 128,-1,37
 997 949 997 949 950 1001 c 0,38,39
 903 1052 903 1052 835 1077 c 128,-1,40
 767 1102 767 1102 681 1102 c 0,41,42
 613 1102 613 1102 556 1082.5 c 128,-1,43
 499 1063 499 1063 453 1028 c 0,44,45
 427 1008 427 1008 404.5 982.5 c 128,-1,46
 382 957 382 957 362 928 c 1,47,-1
 361 938 l 1,48,-1
 350 1082 l 1,49,-1
 184 1082 l 1,50,-1
 184 0 l 1,0,-1
EndSplineSet
EndChar

StartChar: OE
Encoding: 338 338 276
Width: 1229
GlyphClass: 1
Flags: W
LayerCount: 2
Fore
SplineSet
1190 0 m 1,0,-1
 1190 151 l 1,1,-1
 783 151 l 1,2,-1
 783 676 l 1,3,-1
 1127 676 l 1,4,-1
 1127 828 l 1,5,-1
 783 828 l 1,6,-1
 783 1304 l 1,7,-1
 1180 1304 l 1,8,-1
 1180 1456 l 1,9,-1
 762 1456 l 1,10,11
 700 1464 700 1464 633 1470 c 128,-1,12
 566 1476 566 1476 497 1476 c 0,13,14
 400 1476 400 1476 322.5 1442 c 128,-1,15
 245 1408 245 1408 191 1342 c 256,16,17
 137 1276 137 1276 108 1178.5 c 128,-1,18
 79 1081 79 1081 79 953 c 2,19,-1
 79 502 l 2,20,21
 79 374 79 374 108.5 276.5 c 128,-1,22
 138 179 138 179 193 113 c 0,23,24
 247 47 247 47 324.5 13.5 c 128,-1,25
 402 -20 402 -20 499 -20 c 0,26,27
 568 -20 568 -20 634 -13.5 c 128,-1,28
 700 -7 700 -7 762 0 c 1,29,-1
 1190 0 l 1,0,-1
499 131 m 0,30,31
 442 131 442 131 398 149.5 c 128,-1,32
 354 168 354 168 324 211 c 256,33,34
 294 254 294 254 279 325.5 c 128,-1,35
 264 397 264 397 264 502 c 2,36,-1
 264 955 l 2,37,38
 264 1060 264 1060 279 1130.5 c 128,-1,39
 294 1201 294 1201 323 1244 c 256,40,41
 352 1287 352 1287 396 1305.5 c 128,-1,42
 440 1324 440 1324 497 1324 c 0,43,44
 523 1324 523 1324 548 1323 c 128,-1,45
 573 1322 573 1322 598 1320 c 1,46,-1
 598 134 l 1,47,48
 573 133 573 133 548.5 132 c 128,-1,49
 524 131 524 131 499 131 c 0,30,31
EndSplineSet
EndChar

StartChar: oe
Encoding: 339 339 277
Width: 1229
GlyphClass: 1
Flags: W
LayerCount: 2
Fore
SplineSet
46 639 m 2,0,-1
 46 441 l 2,1,2
 46 336 46 336 68.5 251 c 128,-1,3
 91 166 91 166 135 106 c 256,4,5
 179 46 179 46 243 13 c 128,-1,6
 307 -20 307 -20 390 -20 c 0,7,8
 442 -20 442 -20 486.5 -7 c 128,-1,9
 531 6 531 6 568 31 c 0,10,11
 589 46 589 46 608.5 65 c 128,-1,12
 628 84 628 84 644 107 c 1,13,14
 659 86 659 86 677 68 c 128,-1,15
 695 50 695 50 715 36 c 0,16,17
 753 8 753 8 801.5 -6 c 128,-1,18
 850 -20 850 -20 907 -20 c 0,19,20
 955 -20 955 -20 993 -12 c 128,-1,21
 1031 -4 1031 -4 1061 9 c 256,22,23
 1091 22 1091 22 1113.5 39 c 128,-1,24
 1136 56 1136 56 1153 74 c 1,25,-1
 1098 200 l 1,26,27
 1082 186 1082 186 1064 174 c 128,-1,28
 1046 162 1046 162 1023 152 c 256,29,30
 1000 142 1000 142 971 136 c 128,-1,31
 942 130 942 130 907 130 c 0,32,33
 878 130 878 130 855 139.5 c 128,-1,34
 832 149 832 149 814 168 c 0,35,36
 795 188 795 188 780 219 c 128,-1,37
 765 250 765 250 755 291 c 0,38,39
 747 322 747 322 744.5 357.5 c 128,-1,40
 742 393 742 393 742 432 c 2,41,-1
 742 496 l 1,42,-1
 1200 496 l 1,43,-1
 1200 677 l 2,44,45
 1200 768 1200 768 1181 846 c 128,-1,46
 1162 924 1162 924 1123 981 c 0,47,48
 1083 1038 1083 1038 1022.5 1070 c 128,-1,49
 962 1102 962 1102 879 1102 c 0,50,51
 836 1102 836 1102 796 1089.5 c 128,-1,52
 756 1077 756 1077 722 1052 c 0,53,54
 700 1037 700 1037 680.5 1017 c 128,-1,55
 661 997 661 997 644 973 c 1,56,57
 629 995 629 995 611 1013.5 c 128,-1,58
 593 1032 593 1032 572 1046 c 0,59,60
 535 1073 535 1073 489 1087.5 c 128,-1,61
 443 1102 443 1102 388 1102 c 0,62,63
 306 1102 306 1102 242 1069 c 128,-1,64
 178 1036 178 1036 135 975 c 0,65,66
 91 914 91 914 68.5 829 c 128,-1,67
 46 744 46 744 46 639 c 2,0,-1
232 441 m 2,68,-1
 232 639 l 2,69,70
 232 706 232 706 241 763.5 c 128,-1,71
 250 821 250 821 269 862 c 0,72,73
 287 903 287 903 316.5 926.5 c 128,-1,74
 346 950 346 950 388 950 c 256,75,76
 430 950 430 950 460.5 927 c 128,-1,77
 491 904 491 904 510 863 c 0,78,79
 519 843 519 843 526 818.5 c 128,-1,80
 533 794 533 794 538 767 c 0,81,82
 542 739 542 739 544.5 706.5 c 128,-1,83
 547 674 547 674 547 639 c 2,84,-1
 547 441 l 2,85,86
 547 397 547 397 542.5 357 c 128,-1,87
 538 317 538 317 532 283 c 0,88,89
 527 254 527 254 512.5 222.5 c 128,-1,90
 498 191 498 191 474 165 c 0,91,92
 460 149 460 149 438 139.5 c 128,-1,93
 416 130 416 130 390 130 c 0,94,95
 347 130 347 130 317 153 c 128,-1,96
 287 176 287 176 268 217 c 256,97,98
 249 258 249 258 240.5 315.5 c 128,-1,99
 232 373 232 373 232 441 c 2,68,-1
879 950 m 0,100,101
 916 950 916 950 941.5 931.5 c 128,-1,102
 967 913 967 913 984 883 c 0,103,104
 1000 852 1000 852 1007.5 813 c 128,-1,105
 1015 774 1015 774 1015 732 c 2,106,-1
 1015 647 l 1,107,-1
 742 647 l 1,108,-1
 742 651 l 2,109,110
 742 685 742 685 745 716.5 c 128,-1,111
 748 748 748 748 752 775 c 0,112,113
 759 820 759 820 774.5 859 c 128,-1,114
 790 898 790 898 811 920 c 0,115,116
 826 935 826 935 843 942.5 c 128,-1,117
 860 950 860 950 879 950 c 0,100,101
EndSplineSet
EndChar

StartChar: Tbar
Encoding: 358 358 296
Width: 1229
GlyphClass: 1
Flags: W
LayerCount: 2
Fore
SplineSet
941 823 m 1,0,-1
 941 974 l 1,1,-1
 706 974 l 1,2,-1
 706 1298 l 1,3,-1
 1156 1298 l 1,4,-1
 1156 1456 l 1,5,-1
 76 1456 l 1,6,-1
 76 1298 l 1,7,-1
 526 1298 l 1,8,-1
 526 974 l 1,9,-1
 304 974 l 1,10,-1
 304 823 l 1,11,-1
 526 823 l 1,12,-1
 526 0 l 1,13,-1
 706 0 l 1,14,-1
 706 823 l 1,15,-1
 941 823 l 1,0,-1
EndSplineSet
Substitution2: "'smcp' Lowercase to Small Capitals lookup 0 subtable" Tbar.smcp
EndChar

StartChar: tbar
Encoding: 359 359 297
Width: 1229
GlyphClass: 1
Flags: W
LayerCount: 2
Fore
SplineSet
612 1344 m 1,0,-1
 426 1344 l 1,1,-1
 426 1082 l 1,2,-1
 142 1082 l 1,3,-1
 142 939 l 1,4,-1
 426 939 l 1,5,-1
 426 753 l 1,6,-1
 209 753 l 1,7,-1
 209 602 l 1,8,-1
 426 602 l 1,9,-1
 426 351 l 2,10,11
 426 251 426 251 452.5 180.5 c 128,-1,12
 479 110 479 110 525 66 c 0,13,14
 571 21 571 21 633.5 0.5 c 128,-1,15
 696 -20 696 -20 768 -20 c 0,16,17
 811 -20 811 -20 854.5 -16 c 128,-1,18
 898 -12 898 -12 937 -4 c 0,19,20
 976 3 976 3 1009 13.5 c 128,-1,21
 1042 24 1042 24 1065 38 c 1,22,-1
 1039 169 l 1,23,24
 1022 165 1022 165 995.5 159.5 c 128,-1,25
 969 154 969 154 939 149 c 0,26,27
 908 144 908 144 876 140.5 c 128,-1,28
 844 137 844 137 814 137 c 0,29,30
 773 137 773 137 736.5 147 c 128,-1,31
 700 157 700 157 672 182 c 0,32,33
 644 206 644 206 628 247 c 128,-1,34
 612 288 612 288 612 351 c 2,35,-1
 612 602 l 1,36,-1
 846 602 l 1,37,-1
 846 753 l 1,38,-1
 612 753 l 1,39,-1
 612 939 l 1,40,-1
 1024 939 l 1,41,-1
 1024 1082 l 1,42,-1
 612 1082 l 1,43,-1
 612 1344 l 1,0,-1
EndSplineSet
Substitution2: "'smcp' Lowercase to Small Capitals lookup 0 subtable" Tbar.smcp
EndChar

StartChar: Uogonek
Encoding: 370 370 308
Width: 1229
GlyphClass: 1
Flags: W
LayerCount: 2
Fore
SplineSet
1088 1456 m 1,0,-1
 909 1456 l 1,1,-1
 906 470 l 2,2,3
 904 405 904 405 885 345 c 128,-1,4
 866 285 866 285 830 239 c 0,5,6
 793 192 793 192 739 164.5 c 128,-1,7
 685 137 685 137 614 137 c 256,8,9
 543 137 543 137 488.5 165 c 128,-1,10
 434 193 434 193 398 239 c 0,11,12
 361 285 361 285 341.5 345 c 128,-1,13
 322 405 322 405 321 470 c 2,14,-1
 317 1456 l 1,15,-1
 141 1456 l 1,16,-1
 139 470 l 2,17,18
 140 369 140 369 174 281 c 128,-1,19
 208 193 208 193 269 127 c 0,20,21
 328 62 328 62 411 23 c 128,-1,22
 494 -16 494 -16 597 -19 c 0,23,24
 598 -19 598 -19 599.5 -19 c 128,-1,25
 601 -19 601 -19 602 -19 c 1,26,27
 588 -35 588 -35 576 -51 c 128,-1,28
 564 -67 564 -67 555 -84 c 0,29,30
 540 -111 540 -111 532 -139.5 c 128,-1,31
 524 -168 524 -168 524 -196 c 0,32,33
 524 -243 524 -243 539 -278.5 c 128,-1,34
 554 -314 554 -314 580 -338 c 256,35,36
 606 -362 606 -362 641 -374 c 128,-1,37
 676 -386 676 -386 717 -386 c 0,38,39
 782 -386 782 -386 824.5 -372 c 128,-1,40
 867 -358 867 -358 895 -342 c 1,41,-1
 864 -221 l 1,42,43
 848 -229 848 -229 821.5 -238.5 c 128,-1,44
 795 -248 795 -248 763 -247 c 0,45,46
 721 -247 721 -247 703 -226.5 c 128,-1,47
 685 -206 685 -206 685 -172 c 0,48,49
 685 -147 685 -147 692 -123 c 128,-1,50
 699 -99 699 -99 712 -77 c 0,51,52
 730 -49 730 -49 757 -23.5 c 128,-1,53
 784 2 784 2 819 25 c 1,54,55
 880 54 880 54 930 99 c 128,-1,56
 980 144 980 144 1015 202 c 256,57,58
 1050 260 1050 260 1070 328 c 128,-1,59
 1090 396 1090 396 1090 470 c 2,60,-1
 1088 1456 l 1,0,-1
EndSplineSet
Substitution2: "'smcp' Lowercase to Small Capitals lookup 0 subtable" Uogonek.smcp
EndChar

StartChar: uogonek
Encoding: 371 371 309
Width: 1229
GlyphClass: 1
Flags: W
LayerCount: 2
Fore
SplineSet
1054 0 m 1,0,-1
 1055 0 l 1,1,-1
 1055 1082 l 1,2,-1
 869 1082 l 1,3,-1
 869 306 l 1,4,5
 854 271 854 271 832 242 c 128,-1,6
 810 213 810 213 781 192 c 0,7,8
 744 165 744 165 695 150.5 c 128,-1,9
 646 136 646 136 583 136 c 0,10,11
 530 136 530 136 489.5 150 c 128,-1,12
 449 164 449 164 421 199 c 0,13,14
 393 233 393 233 379 291 c 128,-1,15
 365 349 365 349 365 437 c 2,16,-1
 365 1082 l 1,17,-1
 180 1082 l 1,18,-1
 180 439 l 2,19,20
 180 318 180 318 206.5 231.5 c 128,-1,21
 233 145 233 145 282 89 c 256,22,23
 331 33 331 33 400 6.5 c 128,-1,24
 469 -20 469 -20 554 -20 c 0,25,26
 660 -20 660 -20 741 24.5 c 128,-1,27
 822 69 822 69 876 149 c 1,28,-1
 886 9 l 1,29,30
 861 -8 861 -8 839.5 -26.5 c 128,-1,31
 818 -45 818 -45 800 -65 c 0,32,33
 762 -107 762 -107 741.5 -152.5 c 128,-1,34
 721 -198 721 -198 721 -243 c 0,35,36
 721 -290 721 -290 736 -325.5 c 128,-1,37
 751 -361 751 -361 777 -385 c 256,38,39
 803 -409 803 -409 838 -421 c 128,-1,40
 873 -433 873 -433 914 -433 c 0,41,42
 979 -433 979 -433 1021.5 -419 c 128,-1,43
 1064 -405 1064 -405 1092 -389 c 1,44,-1
 1061 -268 l 1,45,46
 1045 -276 1045 -276 1018.5 -285.5 c 128,-1,47
 992 -295 992 -295 960 -294 c 0,48,49
 918 -294 918 -294 900 -273.5 c 128,-1,50
 882 -253 882 -253 882 -219 c 0,51,52
 882 -187 882 -187 893.5 -157.5 c 128,-1,53
 905 -128 905 -128 926 -101 c 0,54,55
 948 -73 948 -73 981 -47.5 c 128,-1,56
 1014 -22 1014 -22 1054 0 c 1,0,-1
EndSplineSet
Substitution2: "'smcp' Lowercase to Small Capitals lookup 0 subtable" Uogonek.smcp
EndChar

StartChar: longs
Encoding: 383 383 321
Width: 1229
GlyphClass: 1
Flags: W
LayerCount: 2
Fore
SplineSet
456 0 m 1,0,-1
 642 0 l 1,1,-1
 642 1126 l 2,2,3
 642 1195 642 1195 660 1251 c 128,-1,4
 678 1307 678 1307 713 1346 c 256,5,6
 748 1385 748 1385 799.5 1406 c 128,-1,7
 851 1427 851 1427 919 1427 c 0,8,9
 948 1427 948 1427 971 1424 c 128,-1,10
 994 1421 994 1421 1012 1416 c 1,11,-1
 1035 1558 l 1,12,13
 998 1567 998 1567 962.5 1573 c 128,-1,14
 927 1579 927 1579 890 1579 c 0,15,16
 790 1579 790 1579 710 1549 c 128,-1,17
 630 1519 630 1519 574 1462 c 0,18,19
 517 1404 517 1404 486.5 1319.5 c 128,-1,20
 456 1235 456 1235 456 1126 c 2,21,-1
 456 0 l 1,0,-1
EndSplineSet
EndChar

StartChar: florin
Encoding: 402 402 322
Width: 1229
GlyphClass: 1
Flags: W
LayerCount: 2
Fore
SplineSet
895 939 m 1,0,-1
 895 1082 l 1,1,-1
 683 1082 l 1,2,-1
 682 1181 l 2,3,4
 682 1239 682 1239 697 1284 c 128,-1,5
 712 1329 712 1329 744 1359 c 0,6,7
 775 1390 775 1390 824 1405.5 c 128,-1,8
 873 1421 873 1421 938 1422 c 0,9,10
 978 1422 978 1422 1013.5 1414 c 128,-1,11
 1049 1406 1049 1406 1075 1393 c 1,12,-1
 1098 1540 l 1,13,14
 1051 1557 1051 1557 1006.5 1568 c 128,-1,15
 962 1579 962 1579 915 1579 c 0,16,17
 819 1579 819 1579 742 1553 c 128,-1,18
 665 1527 665 1527 611 1477 c 0,19,20
 556 1426 556 1426 527 1351.5 c 128,-1,21
 498 1277 498 1277 498 1181 c 2,22,-1
 498 1082 l 1,23,-1
 321 1082 l 1,24,-1
 321 939 l 1,25,-1
 498 939 l 1,26,-1
 498 -52 l 2,27,28
 497 -117 497 -117 480.5 -166 c 128,-1,29
 464 -215 464 -215 432 -245 c 0,30,31
 411 -264 411 -264 382.5 -274.5 c 128,-1,32
 354 -285 354 -285 320 -285 c 0,33,34
 298 -285 298 -285 250.5 -277 c 128,-1,35
 203 -269 203 -269 174 -253 c 1,36,-1
 160 -401 l 1,37,38
 199 -421 199 -421 239 -429 c 128,-1,39
 279 -437 279 -437 320 -437 c 0,40,41
 405 -437 405 -437 472.5 -411.5 c 128,-1,42
 540 -386 540 -386 587 -337 c 0,43,44
 633 -289 633 -289 658 -217 c 128,-1,45
 683 -145 683 -145 683 -52 c 2,46,-1
 683 939 l 1,47,-1
 895 939 l 1,0,-1
EndSplineSet
EndChar

StartChar: Ohorn
Encoding: 416 416 323
Width: 1229
GlyphClass: 1
Flags: W
LayerCount: 2
Fore
SplineSet
1114 644 m 2,0,-1
 1114 810 l 2,1,2
 1112 910 1112 910 1092 1011 c 128,-1,3
 1072 1112 1072 1112 1028 1200 c 1,4,5
 1068 1215 1068 1215 1101 1239.5 c 128,-1,6
 1134 1264 1134 1264 1158 1296 c 0,7,8
 1189 1340 1189 1340 1205.5 1399 c 128,-1,9
 1222 1458 1222 1458 1221 1530 c 1,10,-1
 1054 1530 l 1,11,12
 1053 1486 1053 1486 1046 1449.5 c 128,-1,13
 1039 1413 1039 1413 1025 1386 c 0,14,15
 1012 1362 1012 1362 993 1345.5 c 128,-1,16
 974 1329 974 1329 949 1321 c 1,17,18
 920 1354 920 1354 886.5 1381.5 c 128,-1,19
 853 1409 853 1409 814 1429 c 0,20,21
 770 1452 770 1452 718 1464 c 128,-1,22
 666 1476 666 1476 606 1476 c 0,23,24
 493 1476 493 1476 408 1433.5 c 128,-1,25
 323 1391 323 1391 261 1318 c 0,26,27
 181 1224 181 1224 140 1086.5 c 128,-1,28
 99 949 99 949 99 810 c 2,29,-1
 99 644 l 2,30,31
 99 527 99 527 130 409.5 c 128,-1,32
 161 292 161 292 220 197 c 0,33,34
 280 100 280 100 376.5 40 c 128,-1,35
 473 -20 473 -20 608 -20 c 0,36,37
 741 -20 741 -20 834.5 37.5 c 128,-1,38
 928 95 928 95 992 190 c 0,39,40
 1054 281 1054 281 1083 403.5 c 128,-1,41
 1112 526 1112 526 1114 644 c 2,0,-1
931 812 m 2,42,-1
 931 644 l 2,43,44
 929 560 929 560 912.5 464.5 c 128,-1,45
 896 369 896 369 857 297 c 0,46,47
 820 228 820 228 758 185.5 c 128,-1,48
 696 143 696 143 608 143 c 256,49,50
 520 143 520 143 460 184 c 128,-1,51
 400 225 400 225 365 287 c 0,52,53
 320 365 320 365 300.5 462 c 128,-1,54
 281 559 281 559 281 644 c 2,55,-1
 281 812 l 2,56,57
 281 903 281 903 303 1009 c 128,-1,58
 325 1115 325 1115 382 1194 c 0,59,60
 418 1247 418 1247 473.5 1279 c 128,-1,61
 529 1311 529 1311 606 1311 c 0,62,63
 685 1311 685 1311 744 1274.5 c 128,-1,64
 803 1238 803 1238 841 1180 c 0,65,66
 889 1107 889 1107 910 1008.5 c 128,-1,67
 931 910 931 910 931 812 c 2,42,-1
EndSplineSet
EndChar

StartChar: ohorn
Encoding: 417 417 324
Width: 1229
GlyphClass: 1
Flags: W
LayerCount: 2
Fore
SplineSet
119 551 m 2,0,-1
 119 529 l 2,1,2
 119 412 119 412 153 312 c 128,-1,3
 187 212 187 212 251 138 c 0,4,5
 314 64 314 64 405.5 22 c 128,-1,6
 497 -20 497 -20 612 -20 c 0,7,8
 726 -20 726 -20 817 22 c 128,-1,9
 908 64 908 64 972 138 c 0,10,11
 1035 212 1035 212 1069 312 c 128,-1,12
 1103 412 1103 412 1103 529 c 2,13,-1
 1103 551 l 2,14,15
 1103 643 1103 643 1082 725 c 128,-1,16
 1061 807 1061 807 1020 875 c 1,17,18
 1060 892 1060 892 1091 918 c 128,-1,19
 1122 944 1122 944 1145 980 c 0,20,21
 1170 1021 1170 1021 1183.5 1075 c 128,-1,22
 1197 1129 1197 1129 1198 1194 c 1,23,-1
 1030 1194 l 1,24,25
 1030 1151 1030 1151 1023.5 1116.5 c 128,-1,26
 1017 1082 1017 1082 1003 1056 c 0,27,28
 990 1032 990 1032 970.5 1015 c 128,-1,29
 951 998 951 998 925 990 c 1,30,31
 864 1043 864 1043 785 1072.5 c 128,-1,32
 706 1102 706 1102 610 1102 c 0,33,34
 496 1102 496 1102 405 1059.5 c 128,-1,35
 314 1017 314 1017 251 943 c 0,36,37
 187 869 187 869 153 768.5 c 128,-1,38
 119 668 119 668 119 551 c 2,0,-1
304 529 m 2,39,-1
 304 551 l 2,40,41
 304 630 304 630 323 702.5 c 128,-1,42
 342 775 342 775 381 830 c 0,43,44
 419 885 419 885 476 917.5 c 128,-1,45
 533 950 533 950 610 950 c 256,46,47
 687 950 687 950 744.5 917.5 c 128,-1,48
 802 885 802 885 841 830 c 0,49,50
 879 775 879 775 898.5 702.5 c 128,-1,51
 918 630 918 630 918 551 c 2,52,-1
 918 529 l 2,53,54
 918 449 918 449 899 376.5 c 128,-1,55
 880 304 880 304 842 249 c 0,56,57
 803 194 803 194 745.5 162 c 128,-1,58
 688 130 688 130 612 130 c 0,59,60
 535 130 535 130 477 162 c 128,-1,61
 419 194 419 194 381 249 c 0,62,63
 342 304 342 304 323 376.5 c 128,-1,64
 304 449 304 449 304 529 c 2,39,-1
EndSplineSet
EndChar

StartChar: Uhorn
Encoding: 431 431 325
Width: 1229
GlyphClass: 1
Flags: W
LayerCount: 2
Fore
SplineSet
1088 1456 m 1,0,-1
 909 1456 l 1,1,-1
 906 470 l 2,2,3
 904 405 904 405 885 345 c 128,-1,4
 866 285 866 285 830 239 c 0,5,6
 793 192 793 192 739 164.5 c 128,-1,7
 685 137 685 137 614 137 c 256,8,9
 543 137 543 137 488.5 165 c 128,-1,10
 434 193 434 193 398 239 c 0,11,12
 361 285 361 285 341.5 345 c 128,-1,13
 322 405 322 405 321 470 c 2,14,-1
 317 1456 l 1,15,-1
 141 1456 l 1,16,-1
 139 470 l 2,17,18
 140 368 140 368 175 278.5 c 128,-1,19
 210 189 210 189 272 123 c 0,20,21
 334 56 334 56 421 18 c 128,-1,22
 508 -20 508 -20 614 -20 c 0,23,24
 718 -20 718 -20 805 18.5 c 128,-1,25
 892 57 892 57 955 124 c 0,26,27
 1018 190 1018 190 1054 279 c 128,-1,28
 1090 368 1090 368 1090 470 c 2,29,-1
 1089 1136 l 1,30,31
 1169 1141 1169 1141 1229 1165.5 c 128,-1,32
 1289 1190 1289 1190 1328 1233 c 0,33,34
 1370 1280 1370 1280 1390.5 1349.5 c 128,-1,35
 1411 1419 1411 1419 1411 1512 c 1,36,-1
 1244 1512 l 1,37,38
 1244 1456 1244 1456 1236.5 1413.5 c 128,-1,39
 1229 1371 1229 1371 1211 1342 c 0,40,41
 1193 1312 1193 1312 1163 1295 c 128,-1,42
 1133 1278 1133 1278 1088 1272 c 1,43,-1
 1088 1456 l 1,0,-1
EndSplineSet
EndChar

StartChar: uhorn
Encoding: 432 432 326
Width: 1229
GlyphClass: 1
Flags: W
LayerCount: 2
Fore
SplineSet
1343 1171 m 1,0,-1
 1175 1171 l 1,1,2
 1175 1118 1175 1118 1168.5 1077 c 128,-1,3
 1162 1036 1162 1036 1146 1008 c 0,4,5
 1132 983 1132 983 1109.5 966 c 128,-1,6
 1087 949 1087 949 1055 941 c 1,7,-1
 1055 1082 l 1,8,-1
 869 1082 l 1,9,-1
 869 306 l 1,10,11
 857 279 857 279 841.5 255.5 c 128,-1,12
 826 232 826 232 806 213 c 0,13,14
 768 177 768 177 712.5 156.5 c 128,-1,15
 657 136 657 136 583 136 c 0,16,17
 530 136 530 136 489.5 150 c 128,-1,18
 449 164 449 164 421 199 c 0,19,20
 393 233 393 233 379 291 c 128,-1,21
 365 349 365 349 365 437 c 2,22,-1
 365 1082 l 1,23,-1
 180 1082 l 1,24,-1
 180 439 l 2,25,26
 180 318 180 318 206.5 231.5 c 128,-1,27
 233 145 233 145 282 89 c 256,28,29
 331 33 331 33 400 6.5 c 128,-1,30
 469 -20 469 -20 554 -20 c 0,31,32
 660 -20 660 -20 741 24.5 c 128,-1,33
 822 69 822 69 876 149 c 1,34,-1
 887 0 l 1,35,-1
 1055 0 l 1,36,-1
 1055 802 l 1,37,38
 1202 821 1202 821 1272 911 c 128,-1,39
 1342 1001 1342 1001 1343 1171 c 1,0,-1
EndSplineSet
EndChar

StartChar: uni0237
Encoding: 567 567 338
Width: 1229
GlyphClass: 1
Flags: W
LayerCount: 2
Fore
SplineSet
260 1082 m 1,0,-1
 260 921 l 1,1,-1
 624 921 l 1,2,-1
 624 -7 l 2,3,4
 624 -84 624 -84 604.5 -136.5 c 128,-1,5
 585 -189 585 -189 551 -221 c 256,6,7
 517 -253 517 -253 471.5 -266.5 c 128,-1,8
 426 -280 426 -280 374 -280 c 0,9,10
 360 -280 360 -280 335.5 -279.5 c 128,-1,11
 311 -279 311 -279 284 -277 c 0,12,13
 257 -276 257 -276 231.5 -273.5 c 128,-1,14
 206 -271 206 -271 189 -268 c 1,15,-1
 176 -420 l 1,16,17
 200 -424 200 -424 222 -427 c 128,-1,18
 244 -430 244 -430 266 -432 c 0,19,20
 295 -435 295 -435 324.5 -436 c 128,-1,21
 354 -437 354 -437 387 -437 c 0,22,23
 487 -437 487 -437 565.5 -408.5 c 128,-1,24
 644 -380 644 -380 699 -325 c 0,25,26
 753 -271 753 -271 781.5 -191 c 128,-1,27
 810 -111 810 -111 810 -7 c 2,28,-1
 810 1082 l 1,29,-1
 260 1082 l 1,0,-1
EndSplineSet
EndChar

StartChar: schwa
Encoding: 601 601 339
Width: 1229
GlyphClass: 1
Flags: W
LayerCount: 2
Fore
SplineSet
609 1103 m 0,0,1
 534 1103 534 1103 471.5 1091.5 c 128,-1,2
 409 1080 409 1080 360 1061 c 0,3,4
 310 1042 310 1042 272.5 1018 c 128,-1,5
 235 994 235 994 208 969 c 1,6,-1
 281 844 l 1,7,8
 306 865 306 865 336.5 883.5 c 128,-1,9
 367 902 367 902 403 916 c 0,10,11
 445 933 445 933 496.5 942.5 c 128,-1,12
 548 952 548 952 609 952 c 0,13,14
 687 952 687 952 746 923 c 128,-1,15
 805 894 805 894 846 844 c 0,16,17
 883 797 883 797 905 735.5 c 128,-1,18
 927 674 927 674 932 604 c 0,19,20
 932 599 932 599 932.5 594 c 128,-1,21
 933 589 933 589 933 584 c 1,22,-1
 177 584 l 1,23,-1
 177 463 l 2,24,25
 177 358 177 358 205 269.5 c 128,-1,26
 233 181 233 181 290 117 c 256,27,28
 347 53 347 53 433.5 17 c 128,-1,29
 520 -19 520 -19 637 -19 c 0,30,31
 733 -20 733 -20 820.5 20 c 128,-1,32
 908 60 908 60 975 132 c 0,33,34
 1041 203 1041 203 1080 302 c 128,-1,35
 1119 401 1119 401 1119 518 c 2,36,-1
 1119 562 l 2,37,38
 1119 679 1119 679 1083.5 778 c 128,-1,39
 1048 877 1048 877 982 950 c 0,40,41
 916 1022 916 1022 821.5 1062.5 c 128,-1,42
 727 1103 727 1103 609 1103 c 0,0,1
637 132 m 0,43,44
 566 132 566 132 514 154.5 c 128,-1,45
 462 177 462 177 429 215 c 0,46,47
 395 253 395 253 378.5 303 c 128,-1,48
 362 353 362 353 362 407 c 2,49,-1
 362 433 l 1,50,-1
 927 433 l 1,51,52
 916 369 916 369 891 314 c 128,-1,53
 866 259 866 259 829 219 c 0,54,55
 791 178 791 178 742.5 155 c 128,-1,56
 694 132 694 132 637 132 c 0,43,44
EndSplineSet
EndChar

StartChar: circumflex
Encoding: 710 710 341
Width: 1229
GlyphClass: 1
Flags: W
LayerCount: 2
Fore
SplineSet
798 1277 m 1,0,-1
 550 1517 l 1,1,-1
 438 1517 l 1,2,-1
 193 1278 l 1,3,-1
 193 1252 l 1,4,-1
 345 1252 l 1,5,-1
 494 1403 l 1,6,-1
 644 1252 l 1,7,-1
 798 1252 l 1,8,-1
 798 1277 l 1,0,-1
EndSplineSet
EndChar

StartChar: caron
Encoding: 711 711 342
Width: 1229
GlyphClass: 1
Flags: W
LayerCount: 2
Fore
SplineSet
612 1365 m 1,0,-1
 461 1517 l 1,1,-1
 304 1517 l 1,2,-1
 304 1496 l 1,3,-1
 555 1251 l 1,4,-1
 669 1251 l 1,5,-1
 923 1499 l 1,6,-1
 923 1517 l 1,7,-1
 763 1517 l 1,8,-1
 612 1365 l 1,0,-1
EndSplineSet
EndChar

StartChar: breve
Encoding: 728 728 343
Width: 1229
GlyphClass: 1
Flags: W
LayerCount: 2
Fore
SplineSet
913 1458 m 1,0,-1
 763 1458 l 1,1,2
 763 1428 763 1428 754 1400.5 c 128,-1,3
 745 1373 745 1373 727 1353 c 256,4,5
 709 1333 709 1333 681.5 1321 c 128,-1,6
 654 1309 654 1309 615 1309 c 0,7,8
 575 1309 575 1309 547 1321 c 128,-1,9
 519 1333 519 1333 501 1353 c 256,10,11
 483 1373 483 1373 474 1400.5 c 128,-1,12
 465 1428 465 1428 465 1458 c 1,13,-1
 315 1458 l 1,14,15
 315 1399 315 1399 336.5 1349.5 c 128,-1,16
 358 1300 358 1300 397 1265 c 256,17,18
 436 1230 436 1230 491 1210.5 c 128,-1,19
 546 1191 546 1191 615 1191 c 0,20,21
 683 1191 683 1191 738 1210.5 c 128,-1,22
 793 1230 793 1230 832 1265 c 256,23,24
 871 1300 871 1300 892 1349.5 c 128,-1,25
 913 1399 913 1399 913 1458 c 1,0,-1
EndSplineSet
EndChar

StartChar: dotaccent
Encoding: 729 729 344
Width: 1229
GlyphClass: 1
Flags: W
LayerCount: 2
Fore
SplineSet
498 1358 m 0,0,1
 498 1312 498 1312 527 1280.5 c 128,-1,2
 556 1249 556 1249 613 1249 c 256,3,4
 670 1249 670 1249 699 1280.5 c 128,-1,5
 728 1312 728 1312 728 1358 c 0,6,7
 728 1406 728 1406 699 1438 c 128,-1,8
 670 1470 670 1470 613 1470 c 256,9,10
 556 1470 556 1470 527 1438 c 128,-1,11
 498 1406 498 1406 498 1358 c 0,0,1
EndSplineSet
EndChar

StartChar: ring
Encoding: 730 730 345
Width: 1229
GlyphClass: 1
Flags: W
LayerCount: 2
Fore
SplineSet
410 1312 m 256,0,1
 410 1269 410 1269 426.5 1233 c 128,-1,2
 443 1197 443 1197 471 1172 c 0,3,4
 498 1146 498 1146 535.5 1132 c 128,-1,5
 573 1118 573 1118 615 1118 c 256,6,7
 657 1118 657 1118 693.5 1132 c 128,-1,8
 730 1146 730 1146 758 1172 c 0,9,10
 785 1197 785 1197 801 1233 c 128,-1,11
 817 1269 817 1269 817 1312 c 256,12,13
 817 1355 817 1355 801 1391.5 c 128,-1,14
 785 1428 785 1428 758 1455 c 0,15,16
 730 1481 730 1481 693.5 1496 c 128,-1,17
 657 1511 657 1511 615 1511 c 256,18,19
 573 1511 573 1511 535.5 1496 c 128,-1,20
 498 1481 498 1481 471 1455 c 0,21,22
 443 1428 443 1428 426.5 1391.5 c 128,-1,23
 410 1355 410 1355 410 1312 c 256,0,1
509 1312 m 0,24,25
 509 1337 509 1337 518 1357.5 c 128,-1,26
 527 1378 527 1378 542 1393 c 0,27,28
 556 1406 556 1406 575 1413.5 c 128,-1,29
 594 1421 594 1421 615 1421 c 0,30,31
 637 1421 637 1421 655.5 1413.5 c 128,-1,32
 674 1406 674 1406 688 1392 c 0,33,34
 702 1377 702 1377 710 1356.5 c 128,-1,35
 718 1336 718 1336 718 1312 c 0,36,37
 718 1289 718 1289 710 1270 c 128,-1,38
 702 1251 702 1251 688 1237 c 256,39,40
 674 1223 674 1223 655.5 1215 c 128,-1,41
 637 1207 637 1207 615 1207 c 256,42,43
 593 1207 593 1207 574 1215 c 128,-1,44
 555 1223 555 1223 541 1238 c 0,45,46
 526 1252 526 1252 517.5 1271 c 128,-1,47
 509 1290 509 1290 509 1312 c 0,24,25
EndSplineSet
EndChar

StartChar: ogonek
Encoding: 731 731 346
Width: 1229
GlyphClass: 1
Flags: W
LayerCount: 2
Fore
SplineSet
731 0 m 1,0,-1
 644 56 l 1,1,2
 588 29 588 29 542.5 -6 c 128,-1,3
 497 -41 497 -41 465 -80 c 256,4,5
 433 -119 433 -119 415.5 -160.5 c 128,-1,6
 398 -202 398 -202 398 -243 c 0,7,8
 398 -290 398 -290 413 -325.5 c 128,-1,9
 428 -361 428 -361 454 -385 c 256,10,11
 480 -409 480 -409 515 -421 c 128,-1,12
 550 -433 550 -433 591 -433 c 0,13,14
 656 -433 656 -433 698.5 -419 c 128,-1,15
 741 -405 741 -405 769 -389 c 1,16,-1
 738 -268 l 1,17,18
 722 -276 722 -276 695.5 -285.5 c 128,-1,19
 669 -295 669 -295 637 -294 c 0,20,21
 595 -294 595 -294 577 -273.5 c 128,-1,22
 559 -253 559 -253 559 -219 c 0,23,24
 559 -181 559 -181 575 -146.5 c 128,-1,25
 591 -112 591 -112 620 -81 c 0,26,27
 641 -59 641 -59 669.5 -38.5 c 128,-1,28
 698 -18 698 -18 731 0 c 1,0,-1
EndSplineSet
EndChar

StartChar: tilde
Encoding: 732 732 347
Width: 1229
GlyphClass: 1
Flags: W
LayerCount: 2
Fore
SplineSet
826 1491 m 1,0,-1
 723 1521 l 1,1,2
 723 1498 723 1498 714.5 1477.5 c 128,-1,3
 706 1457 706 1457 693 1442 c 0,4,5
 679 1427 679 1427 660 1418 c 128,-1,6
 641 1409 641 1409 620 1409 c 0,7,8
 581 1409 581 1409 548.5 1424 c 128,-1,9
 516 1439 516 1439 485 1457 c 0,10,11
 453 1474 453 1474 419.5 1489 c 128,-1,12
 386 1504 386 1504 344 1504 c 0,13,14
 298 1504 298 1504 260.5 1485 c 128,-1,15
 223 1466 223 1466 196 1435 c 0,16,17
 169 1403 169 1403 153.5 1361.5 c 128,-1,18
 138 1320 138 1320 138 1275 c 1,19,-1
 242 1251 l 1,20,21
 243 1297 243 1297 271.5 1329.5 c 128,-1,22
 300 1362 300 1362 344 1362 c 0,23,24
 371 1362 371 1362 393 1355 c 128,-1,25
 415 1348 415 1348 435 1338 c 0,26,27
 454 1327 454 1327 473 1314.5 c 128,-1,28
 492 1302 492 1302 514 1292 c 0,29,30
 535 1281 535 1281 561 1274 c 128,-1,31
 587 1267 587 1267 620 1267 c 0,32,33
 665 1267 665 1267 703 1285 c 128,-1,34
 741 1303 741 1303 768 1334 c 0,35,36
 795 1364 795 1364 810.5 1405 c 128,-1,37
 826 1446 826 1446 826 1491 c 1,0,-1
EndSplineSet
EndChar

StartChar: hungarumlaut
Encoding: 733 733 348
Width: 1229
GlyphClass: 1
Flags: W
LayerCount: 2
Fore
SplineSet
757 1519 m 1,0,-1
 508 1250 l 1,1,-1
 677 1250 l 1,2,-1
 982 1519 l 1,3,-1
 757 1519 l 1,0,-1
434 1519 m 1,4,-1
 246 1250 l 1,5,-1
 396 1250 l 1,6,-1
 641 1519 l 1,7,-1
 434 1519 l 1,4,-1
EndSplineSet
EndChar

StartChar: uni02F3
Encoding: 755 755 349
Width: 1229
GlyphClass: 1
Flags: W
LayerCount: 2
Fore
SplineSet
429 -233 m 256,0,1
 429 -265 429 -265 441 -292 c 128,-1,2
 453 -319 453 -319 474 -338 c 256,3,4
 495 -357 495 -357 523 -367.5 c 128,-1,5
 551 -378 551 -378 583 -378 c 0,6,7
 614 -378 614 -378 641 -367.5 c 128,-1,8
 668 -357 668 -357 689 -338 c 0,9,10
 709 -319 709 -319 721 -292 c 128,-1,11
 733 -265 733 -265 733 -233 c 256,12,13
 733 -201 733 -201 721 -173.5 c 128,-1,14
 709 -146 709 -146 689 -126 c 0,15,16
 668 -107 668 -107 641 -96 c 128,-1,17
 614 -85 614 -85 583 -85 c 0,18,19
 551 -85 551 -85 523 -96 c 128,-1,20
 495 -107 495 -107 474 -126 c 0,21,22
 453 -146 453 -146 441 -173.5 c 128,-1,23
 429 -201 429 -201 429 -233 c 256,0,1
515 -233 m 0,24,25
 516 -204 516 -204 535.5 -184.5 c 128,-1,26
 555 -165 555 -165 583 -165 c 0,27,28
 609 -165 609 -165 628 -184.5 c 128,-1,29
 647 -204 647 -204 647 -233 c 0,30,31
 647 -261 647 -261 628 -279.5 c 128,-1,32
 609 -298 609 -298 583 -298 c 0,33,34
 555 -298 555 -298 535.5 -279 c 128,-1,35
 516 -260 516 -260 515 -233 c 0,24,25
EndSplineSet
EndChar

StartChar: gravecomb
Encoding: 768 768 350
Width: 1229
GlyphClass: 1
Flags: W
LayerCount: 2
Fore
SplineSet
-517 1212 m 1,0,-1
 -644 1558 l 1,1,-1
 -822 1558 l 1,2,-1
 -643 1212 l 1,3,-1
 -517 1212 l 1,0,-1
EndSplineSet
EndChar

StartChar: acutecomb
Encoding: 769 769 351
Width: 1229
GlyphClass: 1
Flags: W
LayerCount: 2
Fore
SplineSet
-534 1559 m 1,0,-1
 -664 1212 l 1,1,-1
 -548 1212 l 1,2,-1
 -362 1559 l 1,3,-1
 -534 1559 l 1,0,-1
EndSplineSet
EndChar

StartChar: hook
Encoding: 777 777 353
Width: 1229
GlyphClass: 1
Flags: W
LayerCount: 2
Fore
SplineSet
-657 1241 m 1,0,-1
 -525 1241 l 1,1,-1
 -524 1312 l 1,2,3
 -496 1316 -496 1316 -468 1326 c 128,-1,4
 -440 1336 -440 1336 -418 1354 c 256,5,6
 -396 1372 -396 1372 -382.5 1399 c 128,-1,7
 -369 1426 -369 1426 -369 1464 c 0,8,9
 -369 1512 -369 1512 -393.5 1549.5 c 128,-1,10
 -418 1587 -418 1587 -464 1611 c 0,11,12
 -502 1631 -502 1631 -554.5 1641.5 c 128,-1,13
 -607 1652 -607 1652 -672 1652 c 1,14,-1
 -679 1546 l 1,15,16
 -646 1546 -646 1546 -616 1542 c 128,-1,17
 -586 1538 -586 1538 -563 1529 c 256,18,19
 -540 1520 -540 1520 -526.5 1505 c 128,-1,20
 -513 1490 -513 1490 -513 1468 c 256,21,22
 -513 1446 -513 1446 -523.5 1432.5 c 128,-1,23
 -534 1419 -534 1419 -555 1411 c 0,24,25
 -573 1404 -573 1404 -599 1400 c 128,-1,26
 -625 1396 -625 1396 -658 1394 c 1,27,-1
 -657 1241 l 1,0,-1
EndSplineSet
EndChar

StartChar: uni030F
Encoding: 783 783 354
Width: 1229
GlyphClass: 1
Flags: W
LayerCount: 2
Fore
SplineSet
-544 1252 m 1,0,-1
 -794 1518 l 1,1,-1
 -1019 1518 l 1,2,-1
 -713 1252 l 1,3,-1
 -544 1252 l 1,0,-1
-283 1252 m 1,4,-1
 -472 1518 l 1,5,-1
 -679 1518 l 1,6,-1
 -433 1252 l 1,7,-1
 -283 1252 l 1,4,-1
EndSplineSet
EndChar

StartChar: dotbelow
Encoding: 803 803 355
Width: 1229
GlyphClass: 1
Flags: W
LayerCount: 2
Fore
SplineSet
-729 -235 m 0,0,1
 -729 -281 -729 -281 -700 -312.5 c 128,-1,2
 -671 -344 -671 -344 -614 -344 c 256,3,4
 -557 -344 -557 -344 -528 -312.5 c 128,-1,5
 -499 -281 -499 -281 -499 -235 c 0,6,7
 -499 -187 -499 -187 -528 -155 c 128,-1,8
 -557 -123 -557 -123 -614 -123 c 256,9,10
 -671 -123 -671 -123 -700 -155 c 128,-1,11
 -729 -187 -729 -187 -729 -235 c 0,0,1
EndSplineSet
EndChar

StartChar: tonos
Encoding: 900 900 356
Width: 1229
GlyphClass: 1
Flags: W
LayerCount: 2
Fore
SplineSet
618 1658 m 1,0,-1
 553 1271 l 1,1,-1
 643 1271 l 1,2,-1
 813 1658 l 1,3,-1
 618 1658 l 1,0,-1
EndSplineSet
EndChar

StartChar: dieresistonos
Encoding: 901 901 357
Width: 1229
GlyphClass: 1
Flags: W
LayerCount: 2
Fore
SplineSet
628 1727 m 1,0,-1
 580 1463 l 1,1,-1
 715 1463 l 1,2,-1
 833 1727 l 1,3,-1
 628 1727 l 1,0,-1
275 1360 m 0,4,5
 275 1314 275 1314 303.5 1282 c 128,-1,6
 332 1250 332 1250 389 1250 c 256,7,8
 446 1250 446 1250 475 1282 c 128,-1,9
 504 1314 504 1314 504 1360 c 0,10,11
 504 1408 504 1408 475 1440 c 128,-1,12
 446 1472 446 1472 389 1472 c 256,13,14
 332 1472 332 1472 303.5 1440 c 128,-1,15
 275 1408 275 1408 275 1360 c 0,4,5
782 1360 m 0,16,17
 782 1314 782 1314 810.5 1282 c 128,-1,18
 839 1250 839 1250 896 1250 c 256,19,20
 953 1250 953 1250 982 1282 c 128,-1,21
 1011 1314 1011 1314 1011 1360 c 0,22,23
 1011 1408 1011 1408 982 1440 c 128,-1,24
 953 1472 953 1472 896 1472 c 256,25,26
 839 1472 839 1472 810.5 1440 c 128,-1,27
 782 1408 782 1408 782 1360 c 0,16,17
EndSplineSet
EndChar

StartChar: Gamma
Encoding: 915 915 369
Width: 1229
GlyphClass: 1
Flags: W
LayerCount: 2
Fore
SplineSet
1072 1304 m 1,0,-1
 1072 1456 l 1,1,-1
 181 1456 l 1,2,-1
 181 0 l 1,3,-1
 367 0 l 1,4,-1
 367 1304 l 1,5,-1
 1072 1304 l 1,0,-1
EndSplineSet
EndChar

StartChar: Delta
Encoding: 916 916 370
AltUni2: 002206.ffffffff.0 002206.ffffffff.0
Width: 1229
GlyphClass: 1
Flags: W
LayerCount: 2
Fore
SplineSet
564 1456 m 1,0,-1
 46 0 l 1,1,-1
 1204 0 l 1,2,-1
 724 1456 l 1,3,-1
 564 1456 l 1,0,-1
286 151 m 1,4,-1
 611 1114 l 1,5,-1
 641 1203 l 1,6,-1
 668 1113 l 1,7,-1
 967 151 l 1,8,-1
 286 151 l 1,4,-1
EndSplineSet
EndChar

StartChar: Theta
Encoding: 920 920 374
Width: 1229
GlyphClass: 1
Flags: W
LayerCount: 2
Fore
SplineSet
845 660 m 1,0,-1
 845 811 l 1,1,-1
 381 811 l 1,2,-1
 381 660 l 1,3,-1
 845 660 l 1,0,-1
1121 644 m 2,4,-1
 1121 810 l 2,5,6
 1119 928 1119 928 1090.5 1048 c 128,-1,7
 1062 1168 1062 1168 999 1264 c 256,8,9
 936 1360 936 1360 841 1418 c 128,-1,10
 746 1476 746 1476 613 1476 c 0,11,12
 492 1476 492 1476 402 1427.5 c 128,-1,13
 312 1379 312 1379 247 1289 c 0,14,15
 174 1188 174 1188 141 1063.5 c 128,-1,16
 108 939 108 939 106 810 c 2,17,-1
 106 644 l 2,18,19
 108 522 108 522 140 399 c 128,-1,20
 172 276 172 276 238 179 c 0,21,22
 301 90 301 90 393.5 35 c 128,-1,23
 486 -20 486 -20 615 -20 c 0,24,25
 747 -20 747 -20 843 38.5 c 128,-1,26
 939 97 939 97 998 188 c 0,27,28
 1062 283 1062 283 1091.5 404 c 128,-1,29
 1121 525 1121 525 1121 644 c 2,4,-1
938 812 m 2,30,-1
 938 644 l 2,31,32
 936 558 936 558 919.5 461 c 128,-1,33
 903 364 903 364 860 291 c 0,34,35
 822 223 822 223 762.5 183 c 128,-1,36
 703 143 703 143 615 143 c 0,37,38
 528 143 528 143 468.5 184 c 128,-1,39
 409 225 409 225 373 285 c 0,40,41
 328 362 328 362 308 460.5 c 128,-1,42
 288 559 288 559 288 644 c 2,43,-1
 288 812 l 2,44,45
 288 896 288 896 306.5 992.5 c 128,-1,46
 325 1089 325 1089 371 1168 c 0,47,48
 409 1229 409 1229 467.5 1270 c 128,-1,49
 526 1311 526 1311 613 1311 c 0,50,51
 698 1311 698 1311 757.5 1272 c 128,-1,52
 817 1233 817 1233 852 1175 c 0,53,54
 900 1095 900 1095 918 997 c 128,-1,55
 936 899 936 899 938 812 c 2,30,-1
EndSplineSet
EndChar

StartChar: Lambda
Encoding: 923 923 377
Width: 1229
GlyphClass: 1
Flags: W
LayerCount: 2
Fore
SplineSet
618 1180 m 1,0,-1
 995 0 l 1,1,-1
 1184 0 l 1,2,-1
 699 1456 l 1,3,-1
 538 1456 l 1,4,-1
 54 0 l 1,5,-1
 243 0 l 1,6,-1
 618 1180 l 1,0,-1
EndSplineSet
EndChar

StartChar: Xi
Encoding: 926 926 380
Width: 1229
GlyphClass: 1
Flags: W
LayerCount: 2
Fore
SplineSet
145 151 m 1,0,-1
 145 0 l 1,1,-1
 1079 0 l 1,2,-1
 1079 151 l 1,3,-1
 145 151 l 1,0,-1
230 830 m 1,4,-1
 230 678 l 1,5,-1
 984 678 l 1,6,-1
 984 830 l 1,7,-1
 230 830 l 1,4,-1
147 1456 m 1,8,-1
 147 1304 l 1,9,-1
 1065 1304 l 1,10,-1
 1065 1456 l 1,11,-1
 147 1456 l 1,8,-1
EndSplineSet
EndChar

StartChar: Pi
Encoding: 928 928 382
Width: 1229
GlyphClass: 1
Flags: W
LayerCount: 2
Fore
SplineSet
1066 0 m 1,0,-1
 1066 1456 l 1,1,-1
 162 1456 l 1,2,-1
 162 0 l 1,3,-1
 347 0 l 1,4,-1
 347 1304 l 1,5,-1
 881 1304 l 1,6,-1
 881 0 l 1,7,-1
 1066 0 l 1,0,-1
EndSplineSet
EndChar

StartChar: Sigma
Encoding: 931 931 384
Width: 1229
GlyphClass: 1
Flags: W
LayerCount: 2
Fore
SplineSet
793 717 m 1,0,-1
 793 742 l 1,1,-1
 342 1304 l 1,2,-1
 1085 1304 l 1,3,-1
 1085 1456 l 1,4,-1
 112 1456 l 1,5,-1
 112 1312 l 1,6,-1
 597 729 l 1,7,-1
 112 144 l 1,8,-1
 112 0 l 1,9,-1
 1135 0 l 1,10,-1
 1135 152 l 1,11,-1
 341 152 l 1,12,-1
 793 717 l 1,0,-1
EndSplineSet
EndChar

